<svg width="14" height="15" viewBox="0 0 14 15" fill="none" xmlns="http://www.w3.org/2000/svg">
<path d="M12.4351 4.46348L12.1472 3.96379C11.9294 3.58589 11.8206 3.39694 11.6353 3.32159C11.4501 3.24625 11.2405 3.3057 10.8215 3.42461L10.1097 3.6251C9.84221 3.6868 9.56151 3.6518 9.31727 3.52629L9.12074 3.41291C8.91127 3.27875 8.75015 3.08094 8.66096 2.84843L8.46618 2.26662C8.33808 1.88161 8.27403 1.68911 8.12155 1.579C7.96913 1.46889 7.76659 1.46889 7.36153 1.46889H6.71123C6.30622 1.46889 6.10368 1.46889 5.9512 1.579C5.79875 1.68911 5.7347 1.88161 5.60662 2.26662L5.41181 2.84843C5.32263 3.08094 5.16151 3.27875 4.95205 3.41291L4.75554 3.52629C4.51127 3.6518 4.2306 3.6868 3.96307 3.6251L3.25127 3.42461C2.83224 3.3057 2.62273 3.24625 2.43748 3.32159C2.25222 3.39694 2.14335 3.58589 1.92559 3.96379L1.63767 4.46348C1.43355 4.8177 1.33149 4.99482 1.3513 5.18337C1.37111 5.37191 1.50774 5.52385 1.78099 5.82773L2.38243 6.50013C2.52943 6.68622 2.63379 7.01055 2.63379 7.30216C2.63379 7.59388 2.52946 7.9181 2.38244 8.10424L1.78099 8.77665C1.50774 9.08057 1.37111 9.23247 1.3513 9.42106C1.33149 9.60959 1.43355 9.78669 1.63767 10.1409L1.92558 10.6406C2.14334 11.0185 2.25222 11.2075 2.43748 11.2828C2.62273 11.3581 2.83225 11.2987 3.25128 11.1797L3.96305 10.9793C4.23062 10.9175 4.51134 10.9526 4.75564 11.0781L4.95213 11.1915C5.16155 11.3257 5.32262 11.5234 5.41179 11.756L5.60662 12.3378C5.7347 12.7228 5.79875 12.9153 5.9512 13.0255C6.10368 13.1355 6.30622 13.1355 6.71123 13.1355H7.36153C7.76659 13.1355 7.96913 13.1355 8.12155 13.0255C8.27403 12.9153 8.33808 12.7228 8.46618 12.3378L8.66102 11.756C8.75015 11.5234 8.91121 11.3257 9.12068 11.1915L9.31715 11.0781C9.56145 10.9526 9.84215 10.9175 10.1097 10.9793L10.8215 11.1797C11.2405 11.2987 11.4501 11.3581 11.6353 11.2828C11.8206 11.2075 11.9294 11.0185 12.1472 10.6406L12.4351 10.1409C12.6392 9.78669 12.7413 9.60959 12.7215 9.42106C12.7016 9.23247 12.565 9.08057 12.2918 8.77665L11.6903 8.10424C11.5433 7.9181 11.439 7.59388 11.439 7.30216C11.439 7.01055 11.5434 6.68622 11.6903 6.50013L12.2918 5.82773C12.565 5.52385 12.7016 5.37191 12.7215 5.18337C12.7413 4.99482 12.6392 4.8177 12.4351 4.46348Z" stroke="#8396A8" stroke-width="0.875" stroke-linecap="round"/>
<path d="M4.95825 9.63099C5.36579 8.9265 6.1275 8.45248 6.99994 8.45248C7.87231 8.45248 8.63403 8.9265 9.0416 9.63099M8.1666 5.83934C8.1666 6.48367 7.64429 7.00599 6.99994 7.00599C6.35559 7.00599 5.83327 6.48367 5.83327 5.83934C5.83327 5.195 6.35559 4.67267 6.99994 4.67267C7.64429 4.67267 8.1666 5.195 8.1666 5.83934Z" stroke="#8396A8" stroke-width="0.875" stroke-linecap="round"/>
</svg>
