<svg width="21" height="20" viewBox="0 0 21 20" fill="none" xmlns="http://www.w3.org/2000/svg">
<g clip-path="url(#clip0_40795_57371)">
<path d="M8.66671 9.99984C8.66671 10.2209 8.57891 10.4328 8.42263 10.5891C8.26635 10.7454 8.05439 10.8332 7.83337 10.8332H4.50004C4.27903 10.8332 4.06707 10.7454 3.91079 10.5891C3.7545 10.4328 3.66671 10.2209 3.66671 9.99984C3.66671 9.77882 3.7545 9.56686 3.91079 9.41058C4.06707 9.2543 4.27903 9.1665 4.50004 9.1665H7.83337C8.05439 9.1665 8.26635 9.2543 8.42263 9.41058C8.57891 9.56686 8.66671 9.77882 8.66671 9.99984ZM16.1667 9.1665H15.3334V8.33317C15.3334 8.11216 15.2456 7.9002 15.0893 7.74392C14.933 7.58764 14.7211 7.49984 14.5 7.49984C14.279 7.49984 14.0671 7.58764 13.9108 7.74392C13.7545 7.9002 13.6667 8.11216 13.6667 8.33317V9.1665H12.8334C12.6124 9.1665 12.4004 9.2543 12.2441 9.41058C12.0878 9.56686 12 9.77882 12 9.99984C12 10.2209 12.0878 10.4328 12.2441 10.5891C12.4004 10.7454 12.6124 10.8332 12.8334 10.8332H13.6667V11.6665C13.6667 11.8875 13.7545 12.0995 13.9108 12.2558C14.0671 12.412 14.279 12.4998 14.5 12.4998C14.7211 12.4998 14.933 12.412 15.0893 12.2558C15.2456 12.0995 15.3334 11.8875 15.3334 11.6665V10.8332H16.1667C16.3877 10.8332 16.5997 10.7454 16.756 10.5891C16.9122 10.4328 17 10.2209 17 9.99984C17 9.77882 16.9122 9.56686 16.756 9.41058C16.5997 9.2543 16.3877 9.1665 16.1667 9.1665ZM20.3334 7.49984V14.1665C20.3321 15.2712 19.8926 16.3302 19.1115 17.1113C18.3304 17.8924 17.2714 18.3318 16.1667 18.3332H4.50004C3.39538 18.3318 2.33634 17.8924 1.55522 17.1113C0.774109 16.3302 0.334697 15.2712 0.333374 14.1665L0.333374 7.49984C0.334228 6.76107 0.580115 6.04345 1.03252 5.4594C1.48492 4.87535 2.11828 4.45786 2.83337 4.27234V3.33317C2.83337 2.89114 3.00897 2.46722 3.32153 2.15466C3.63409 1.8421 4.05801 1.6665 4.50004 1.6665H7.83337C8.2754 1.6665 8.69932 1.8421 9.01188 2.15466C9.32445 2.46722 9.50004 2.89114 9.50004 3.33317V4.1665H11.1667V3.33317C11.1667 2.89114 11.3423 2.46722 11.6549 2.15466C11.9674 1.8421 12.3913 1.6665 12.8334 1.6665H16.1667C16.6087 1.6665 17.0327 1.8421 17.3452 2.15466C17.6578 2.46722 17.8334 2.89114 17.8334 3.33317V4.27234C18.5485 4.45786 19.1818 4.87535 19.6342 5.4594C20.0866 6.04345 20.3325 6.76107 20.3334 7.49984ZM18.6667 7.49984C18.6667 7.05781 18.4911 6.63389 18.1786 6.32133C17.866 6.00877 17.4421 5.83317 17 5.83317C16.779 5.83317 16.5671 5.74537 16.4108 5.58909C16.2545 5.43281 16.1667 5.22085 16.1667 4.99984V3.33317H12.8334V4.99984C12.8334 5.22085 12.7456 5.43281 12.5893 5.58909C12.433 5.74537 12.2211 5.83317 12 5.83317H8.66671C8.44569 5.83317 8.23373 5.74537 8.07745 5.58909C7.92117 5.43281 7.83337 5.22085 7.83337 4.99984V3.33317H4.50004V4.99984C4.50004 5.22085 4.41224 5.43281 4.25596 5.58909C4.09968 5.74537 3.88772 5.83317 3.66671 5.83317C3.22468 5.83317 2.80076 6.00877 2.4882 6.32133C2.17564 6.63389 2.00004 7.05781 2.00004 7.49984V14.1665C2.00004 14.8295 2.26343 15.4654 2.73227 15.9343C3.20111 16.4031 3.837 16.6665 4.50004 16.6665H16.1667C16.8297 16.6665 17.4656 16.4031 17.9345 15.9343C18.4033 15.4654 18.6667 14.8295 18.6667 14.1665V7.49984Z" fill="#E76500"/>
</g>
<defs>
<clipPath id="clip0_40795_57371">
<rect width="20" height="20" fill="white" transform="translate(0.333374)"/>
</clipPath>
</defs>
</svg>
