<svg width="14" height="15" viewBox="0 0 14 15" fill="none" xmlns="http://www.w3.org/2000/svg">
<path d="M9.33325 6.13101L10.5871 6.50715C11.3881 6.74748 11.7886 6.86765 12.0193 7.17763C12.2499 7.48761 12.2499 7.9058 12.2499 8.74207V13.131" stroke="#8396A8" stroke-width="0.875" stroke-linejoin="round"/>
<path d="M4.66675 5.54767H6.41675M4.66675 7.881H6.41675" stroke="#8396A8" stroke-width="0.875" stroke-linecap="round" stroke-linejoin="round"/>
<path d="M6.99992 13.131V11.381C6.99992 10.831 6.99992 10.556 6.82906 10.3852C6.6582 10.2143 6.38322 10.2143 5.83325 10.2143H5.24992C4.69995 10.2143 4.42496 10.2143 4.2541 10.3852C4.08325 10.556 4.08325 10.831 4.08325 11.381V13.131" stroke="#8396A8" stroke-width="0.875" stroke-linejoin="round"/>
<path d="M1.16675 13.131H12.8334" stroke="#8396A8" stroke-width="0.875" stroke-linecap="round"/>
<path d="M1.75 13.131V4.21605C1.75 2.75145 1.75 2.01914 2.21152 1.6558C2.67305 1.29246 3.35266 1.48973 4.71189 1.88427L7.62854 2.73087C8.44877 2.96896 8.85891 3.088 9.09609 3.41246C9.33333 3.73692 9.33333 4.17883 9.33333 5.06266V13.131" stroke="#8396A8" stroke-width="0.875" stroke-linecap="round" stroke-linejoin="round"/>
</svg>
