<svg width="21" height="21" viewBox="0 0 21 21" fill="none" xmlns="http://www.w3.org/2000/svg">
<path d="M14.2067 2.42896V5.76229M7.54004 2.42896V5.76229" stroke="#5B738B" stroke-linecap="round" stroke-linejoin="round"/>
<path d="M11.7069 4.09546H10.0402C6.8975 4.09546 5.32616 4.09546 4.34984 5.07177C3.37354 6.04808 3.37354 7.61943 3.37354 10.7621V12.4288C3.37354 15.5715 3.37354 17.1429 4.34984 18.1191C5.32616 19.0955 6.8975 19.0955 10.0402 19.0955H11.7069C14.8495 19.0955 16.421 19.0955 17.3972 18.1191C18.3735 17.1429 18.3735 15.5715 18.3735 12.4288V10.7621C18.3735 7.61943 18.3735 6.04808 17.3972 5.07177C16.421 4.09546 14.8495 4.09546 11.7069 4.09546Z" stroke="#5B738B" stroke-linecap="round" stroke-linejoin="round"/>
<path d="M3.37354 9.09546H18.3735" stroke="#5B738B" stroke-linecap="round" stroke-linejoin="round"/>
<path d="M10.8696 12.429H10.8771M10.8696 15.7623H10.8771M14.1992 12.429H14.2067M7.54004 12.429H7.54751M7.54004 15.7623H7.54751" stroke="#5B738B" stroke-width="1.66667" stroke-linecap="round" stroke-linejoin="round"/>
</svg>
