<svg width="15" height="14" viewBox="0 0 15 14" fill="none" xmlns="http://www.w3.org/2000/svg">
<path d="M1.69464 7L2.86131 7.58333" stroke="#5B738B" stroke-width="0.583333" stroke-linecap="round" stroke-linejoin="round"/>
<path d="M12.778 7.29199L11.6113 7.58366" stroke="#5B738B" stroke-width="0.583333" stroke-linecap="round" stroke-linejoin="round"/>
<path d="M4.90302 10.2083L5.04632 9.85005C5.25944 9.31729 5.366 9.05088 5.5882 8.90044C5.81041 8.75 6.09733 8.75 6.67116 8.75H7.80154C8.37536 8.75 8.66231 8.75 8.8845 8.90044C9.10669 9.05088 9.21327 9.31729 9.42636 9.85005L9.56968 10.2083" stroke="#5B738B" stroke-width="0.583333" stroke-linecap="round" stroke-linejoin="round"/>
<path d="M1.40302 9.91699V11.5982C1.40302 11.8191 1.54345 12.0211 1.76578 12.1199C1.91004 12.184 2.04782 12.2503 2.21419 12.2503H3.21684C3.38321 12.2503 3.52099 12.184 3.66525 12.1199C3.88758 12.0211 4.02802 11.8191 4.02802 11.5982V10.5003" stroke="#5B738B" stroke-width="0.583333" stroke-linecap="round" stroke-linejoin="round"/>
<path d="M10.4446 10.5003V11.5982C10.4446 11.8191 10.5851 12.0211 10.8074 12.1199C10.9517 12.184 11.0895 12.2503 11.2558 12.2503H12.2585C12.4248 12.2503 12.5626 12.184 12.7069 12.1199C12.9292 12.0211 13.0696 11.8191 13.0696 11.5982V9.91699" stroke="#5B738B" stroke-width="0.583333" stroke-linecap="round" stroke-linejoin="round"/>
<path d="M11.903 4.95866L12.4863 4.66699" stroke="#5B738B" stroke-width="0.583333" stroke-linecap="round" stroke-linejoin="round"/>
<path d="M2.56966 4.95866L1.98633 4.66699" stroke="#5B738B" stroke-width="0.583333" stroke-linecap="round" stroke-linejoin="round"/>
<path d="M2.86133 5.25L3.49617 3.34547C3.75285 2.57545 3.88118 2.19043 4.18672 1.97022C4.49225 1.75 4.89809 1.75 5.70977 1.75H8.76291C9.57456 1.75 9.98039 1.75 10.2859 1.97022C10.5915 2.19043 10.7198 2.57545 10.9765 3.34547L11.6113 5.25" stroke="#5B738B" stroke-width="0.583333" stroke-linejoin="round"/>
<path d="M2.86135 5.25H11.6113C12.1697 5.84121 13.0697 6.66453 13.0697 7.5831V9.60762C13.0697 9.94041 12.8483 10.2205 12.5545 10.2594L10.7363 10.5H3.73635L1.91819 10.2594C1.62442 10.2205 1.40302 9.94041 1.40302 9.60762V7.5831C1.40302 6.66453 2.30298 5.84121 2.86135 5.25Z" stroke="#5B738B" stroke-width="0.583333" stroke-linejoin="round"/>
</svg>
