<svg width="20" height="20" viewBox="0 0 20 20" fill="none" xmlns="http://www.w3.org/2000/svg">
<g clip-path="url(#clip0_40795_57365)">
<path d="M10 0C4.48583 0 0 4.48583 0 10C0 15.5142 4.48583 20 10 20C15.5142 20 20 15.5142 20 10C20 4.48583 15.5142 0 10 0ZM10 19.1667C4.94583 19.1667 0.833333 15.0542 0.833333 10C0.833333 4.94583 4.94583 0.833333 10 0.833333C15.0542 0.833333 19.1667 4.94583 19.1667 10C19.1667 15.0542 15.0542 19.1667 10 19.1667ZM10 3.33333C6.32417 3.33333 3.33333 6.32417 3.33333 10C3.33333 13.6758 6.32417 16.6667 10 16.6667C13.6758 16.6667 16.6667 13.6758 16.6667 10C16.6667 6.32417 13.6758 3.33333 10 3.33333ZM11.1175 11.47C10.7692 11.3267 10.3917 11.25 10 11.25C9.60833 11.25 9.23 11.3258 8.8825 11.47C8.92083 11.0975 8.88917 10.715 8.78417 10.3408C8.68167 9.97417 8.515 9.63833 8.295 9.34417C8.64333 9.28083 8.98 9.14583 9.2825 8.94167C9.5725 8.745 9.815 8.49583 10 8.21083C10.185 8.49583 10.4275 8.745 10.7175 8.94167C11.02 9.14667 11.3567 9.28167 11.705 9.345C11.4858 9.63917 11.3183 9.975 11.2158 10.3417C11.1108 10.7167 11.0792 11.0983 11.1175 11.4717V11.47ZM15.2417 7.44333L12.8133 8.42667C12.2658 8.64583 11.6733 8.58167 11.1842 8.25083C10.6958 7.92083 10.4158 7.39333 10.4158 6.80333V4.1825C12.5375 4.33333 14.35 5.62333 15.2408 7.44417L15.2417 7.44333ZM9.58333 4.18167V6.8025C9.58333 7.3925 9.30333 7.92 8.815 8.25C8.32667 8.58 7.7325 8.64417 7.19083 8.4275L4.76667 7.42417C5.66167 5.61417 7.46833 4.33167 9.5825 4.18167H9.58333ZM4.16667 10C4.16667 9.37083 4.2675 8.76417 4.4525 8.19583L6.685 9.1225C7.32333 9.37833 7.79583 9.90417 7.98083 10.565C8.16583 11.2242 8.0375 11.9158 7.63 12.4642L6.15917 14.3867C4.93833 13.3167 4.16667 11.7467 4.16667 10ZM6.82333 14.89L8.33333 12.9167C8.73083 12.3867 9.33833 12.0833 10 12.0833C10.6617 12.0833 11.2692 12.3867 11.6667 12.9167L13.1567 14.9033C12.2458 15.4917 11.1625 15.8333 10 15.8333C8.82917 15.8333 7.73833 15.4867 6.82333 14.89ZM13.8225 14.4025L12.375 12.4725C11.9625 11.9225 11.8325 11.2275 12.0183 10.5658C12.2042 9.90417 12.6767 9.37833 13.315 9.12333L15.5542 8.21667C15.735 8.77917 15.8333 9.37833 15.8333 10.0008C15.8333 11.7558 15.0542 13.3325 13.8225 14.4025Z" fill="#E76500"/>
</g>
<defs>
<clipPath id="clip0_40795_57365">
<rect width="20" height="20" fill="white"/>
</clipPath>
</defs>
</svg>
