<svg width="15" height="14" viewBox="0 0 15 14" fill="none" xmlns="http://www.w3.org/2000/svg">
<path d="M2.57423 7.7518C2.15344 8.51142 2.03583 9.45163 2.00295 9.91789C1.99162 10.0785 2.12094 10.2083 2.28221 10.2083H3.15827M2.57423 7.7518C2.57423 5.91733 3.10822 3.70361 4.17621 2.74821C4.27034 2.664 4.39465 2.625 4.52101 2.625H7.31747C7.6554 2.625 7.99274 2.69331 8.27618 2.87713C8.97536 3.33056 10.032 4.2465 10.9295 5.65211C11.0037 5.76834 11.1146 5.85655 11.2443 5.90357C11.761 6.09088 12.3362 6.35075 12.7043 6.52394C12.9528 6.6409 13.1507 6.84489 13.2448 7.10267C13.5041 7.81258 13.6504 8.60463 13.6689 9.91632C13.6711 10.0774 13.5402 10.2083 13.3789 10.2083H12.5028M2.57423 7.7518C2.78471 7.37176 3.07105 7.03698 3.46059 6.82926M10.1667 10.2083H5.4944" stroke="#00C950" stroke-width="0.583333" stroke-linecap="round" stroke-linejoin="round"/>
<path d="M5.50222 10.2082C5.50222 10.8525 4.97988 11.3748 4.33555 11.3748C3.69122 11.3748 3.16888 10.8525 3.16888 10.2082C3.16888 9.56382 3.69122 9.0415 4.33555 9.0415C4.97988 9.0415 5.50222 9.56382 5.50222 10.2082Z" stroke="#00C950" stroke-width="0.583333"/>
<path d="M12.5022 10.2082C12.5022 10.8525 11.9799 11.3748 11.3356 11.3748C10.6912 11.3748 10.1689 10.8525 10.1689 10.2082C10.1689 9.56382 10.6912 9.0415 11.3356 9.0415C11.9799 9.0415 12.5022 9.56382 12.5022 10.2082Z" stroke="#00C950" stroke-width="0.583333"/>
<path d="M11.0439 5.83333C9.29388 5.25 7.25222 4.95833 4.91888 5.25C4.91888 4.08333 5.50222 2.91667 5.79388 2.625" stroke="#00C950" stroke-width="0.583333" stroke-linecap="round" stroke-linejoin="round"/>
<path d="M5.50226 6.4165H6.08559" stroke="#00C950" stroke-width="0.583333" stroke-linecap="round" stroke-linejoin="round"/>
</svg>
