<svg width="21" height="20" viewBox="0 0 21 20" fill="none" xmlns="http://www.w3.org/2000/svg">
<path d="M8.44443 13.8888C8.44443 14.8093 7.69824 15.5555 6.77777 15.5555C5.85729 15.5555 5.1111 14.8093 5.1111 13.8888C5.1111 12.9683 5.85729 12.2222 6.77777 12.2222C7.69824 12.2222 8.44443 12.9683 8.44443 13.8888Z" stroke="#E76500" stroke-width="1.25"/>
<path d="M16.2222 13.8888C16.2222 14.8093 15.4761 15.5555 14.5556 15.5555C13.6351 15.5555 12.8889 14.8093 12.8889 13.8888C12.8889 12.9683 13.6351 12.2222 14.5556 12.2222C15.4761 12.2222 16.2222 12.9683 16.2222 13.8888Z" stroke="#E76500" stroke-width="1.25"/>
<path d="M2.89496 8.60979H15.3387M2.89496 8.60979C2.89496 9.2596 2.87941 11.1424 2.89807 12.9919C2.92604 13.5917 3.0193 14.0915 5.22949 14.4414M2.89496 8.60979C3.06282 7.16021 3.79333 5.44405 4.16636 4.79423M8.33909 8.60979V4.44434M12.9978 14.4414H8.33494M2.90739 4.44434H10.8529C10.8529 4.44434 11.2725 4.44434 11.6455 4.48432C12.345 4.5543 12.9325 4.89421 13.52 5.74396C14.1421 6.6437 14.6204 7.78337 15.2546 8.39319C16.3084 9.40656 18.3134 9.09299 18.4253 11.2424C18.4533 12.342 18.4533 13.5417 18.4067 13.7416C18.3318 14.3304 17.908 14.4265 17.3808 14.4414C16.9234 14.4544 16.3719 14.4182 16.1033 14.4414" stroke="#E76500" stroke-width="1.25" stroke-linecap="round"/>
</svg>
