<svg width="21" height="20" viewBox="0 0 21 20" fill="none" xmlns="http://www.w3.org/2000/svg">
<g clip-path="url(#clip0_40795_57359)">
<path d="M10.6666 4.16671C11.1116 4.16671 11.53 3.99338 11.845 3.67838C12.16 3.36338 12.3333 2.94505 12.3333 2.50005C12.3333 1.53671 11.3433 0.395046 11.2541 0.296712C10.9808 -0.0741211 10.3291 -0.0449544 10.1025 0.267546C9.98995 0.394212 8.99995 1.53588 8.99995 2.50255C8.99995 2.94588 9.17329 3.36338 9.48829 3.67838C9.80329 3.99338 10.2216 4.16671 10.6666 4.16671ZM10.6666 0.889212C11.0116 1.29755 11.5 2.03755 11.5 2.50005C11.5 2.72255 11.4133 2.93171 11.2558 3.08921C10.94 3.40338 10.3933 3.40338 10.0775 3.08921C9.92079 2.93171 9.83329 2.72338 9.83329 2.50255C9.83329 2.04755 10.3033 1.32588 10.6666 0.889212ZM5.66662 4.16671C6.11162 4.16671 6.52995 3.99338 6.84495 3.67838C7.15995 3.36338 7.33329 2.94505 7.33329 2.50005C7.33329 1.53671 6.34329 0.395046 6.25412 0.296712C5.98079 -0.0741211 5.32912 -0.0449544 5.10245 0.267546C4.98995 0.394212 3.99995 1.53588 3.99995 2.50255C3.99995 2.94588 4.17329 3.36338 4.48829 3.67838C4.80329 3.99338 5.22162 4.16671 5.66662 4.16671ZM5.66662 0.889212C6.01162 1.29755 6.49995 2.03755 6.49995 2.50005C6.49995 2.72255 6.41329 2.93171 6.25579 3.08921C5.93995 3.40338 5.39329 3.40338 5.07745 3.08921C4.92079 2.93171 4.83329 2.72338 4.83329 2.50255C4.83329 2.04755 5.30329 1.32588 5.66662 0.889212ZM15.6666 4.16671C16.1116 4.16671 16.53 3.99338 16.845 3.67838C17.16 3.36338 17.3333 2.94505 17.3333 2.50005C17.3333 1.53671 16.3433 0.395046 16.2541 0.296712C15.9808 -0.0741211 15.3291 -0.0449544 15.1025 0.267546C14.99 0.394212 14 1.53588 14 2.50255C14 2.94588 14.1733 3.36338 14.4883 3.67838C14.8033 3.99338 15.2216 4.16671 15.6666 4.16671ZM15.6666 0.889212C16.0116 1.29755 16.5 2.03755 16.5 2.50005C16.5 2.72255 16.4133 2.93171 16.2558 3.08921C15.94 3.40338 15.3933 3.40338 15.0775 3.08921C14.9208 2.93171 14.8333 2.72338 14.8333 2.50255C14.8333 2.04755 15.3033 1.32588 15.6666 0.889212ZM19.12 10.7234L17.405 7.72255C16.7383 6.55755 15.4908 5.83255 14.1491 5.83255H7.18412C5.84245 5.83255 4.59495 6.55671 3.92829 7.72255L2.21329 10.7234C1.74579 11.54 1.49995 12.47 1.49995 13.4117V14.5834C1.49995 15.7442 2.18245 16.7492 3.16662 17.2184V17.9167C3.16662 19.0659 4.10079 20 5.24995 20C6.39912 20 7.33329 19.0659 7.33329 17.9167V17.5H14V17.9167C14 19.0659 14.9341 20 16.0833 20C17.2325 20 18.1666 19.0659 18.1666 17.9167V17.2184C19.1508 16.7492 19.8333 15.7442 19.8333 14.5834V13.4117C19.8333 12.47 19.5866 11.5409 19.12 10.7234ZM4.65245 8.13671C5.16995 7.23005 6.13995 6.66671 7.18412 6.66671H14.1483C15.1925 6.66671 16.1625 7.23005 16.68 8.13671L18.395 11.1375C18.4925 11.3084 18.5791 11.4859 18.6541 11.6675H2.67912C2.75412 11.4859 2.83995 11.3092 2.93829 11.1375L4.65245 8.13671ZM6.49995 17.9167C6.49995 18.6059 5.93912 19.1667 5.24995 19.1667C4.56079 19.1667 3.99995 18.6059 3.99995 17.9167V17.47C4.13579 17.4892 4.27495 17.5 4.41662 17.5H6.49995V17.9167ZM17.3333 17.9167C17.3333 18.6059 16.7725 19.1667 16.0833 19.1667C15.3941 19.1667 14.8333 18.6059 14.8333 17.9167V17.5H16.9166C17.0583 17.5 17.1975 17.49 17.3333 17.47V17.9167ZM19 14.5834C19 15.7325 18.0658 16.6667 16.9166 16.6667H4.41662C3.26745 16.6667 2.33329 15.7325 2.33329 14.5834V13.4117C2.33329 13.105 2.36495 12.7992 2.42579 12.5H4.83329V13.75C4.83329 13.98 5.01995 14.1667 5.24995 14.1667C5.47995 14.1667 5.66662 13.98 5.66662 13.75V12.5H15.6666V13.75C15.6666 13.98 15.8533 14.1667 16.0833 14.1667C16.3133 14.1667 16.5 13.98 16.5 13.75V12.5H18.9075C18.9683 12.7992 19 13.1042 19 13.4117V14.5834Z" fill="#E76500"/>
</g>
<defs>
<clipPath id="clip0_40795_57359">
<rect width="20" height="20" fill="white" transform="translate(0.666626)"/>
</clipPath>
</defs>
</svg>
