<svg width="15" height="14" viewBox="0 0 15 14" fill="none" xmlns="http://www.w3.org/2000/svg">
<path d="M6.06964 5.25V6.41667" stroke="#6C32A9" stroke-width="0.583333" stroke-linecap="round"/>
<path d="M10.153 11.6663C10.7973 11.6663 11.3197 11.144 11.3197 10.4997C11.3197 9.85534 10.7973 9.33301 10.153 9.33301C9.50866 9.33301 8.98633 9.85534 8.98633 10.4997C8.98633 11.144 9.50866 11.6663 10.153 11.6663Z" stroke="#6C32A9" stroke-width="0.583333"/>
<path d="M4.31968 11.6663C4.96401 11.6663 5.48635 11.144 5.48635 10.4997C5.48635 9.85534 4.96401 9.33301 4.31968 9.33301C3.67535 9.33301 3.15302 9.85534 3.15302 10.4997C3.15302 11.144 3.67535 11.6663 4.31968 11.6663Z" stroke="#6C32A9" stroke-width="0.583333"/>
<path d="M3.15302 10.4836C2.51326 10.4517 2.11416 10.3565 1.83015 10.0726C1.40302 9.64538 1.40302 8.95792 1.40302 7.58301V5.24967C1.40302 3.87475 1.40302 3.18728 1.83015 2.76014C2.25729 2.33301 2.94475 2.33301 4.31968 2.33301H6.24468C6.89615 2.33301 7.22188 2.33301 7.48549 2.41866C8.01825 2.59176 8.43592 3.00946 8.60905 3.54223C8.69468 3.80584 8.69468 4.13156 8.69468 4.78301C8.69468 5.21731 8.69468 5.43446 8.75179 5.61019C8.86717 5.96537 9.14566 6.24385 9.50085 6.35923C9.67655 6.41634 9.89372 6.41634 10.328 6.41634H13.0697V7.58301C13.0697 8.95792 13.0697 9.64538 12.6426 10.0726C12.3585 10.3565 11.9594 10.4517 11.3197 10.4836M5.48635 10.4997H8.98635" stroke="#6C32A9" stroke-width="0.583333" stroke-linecap="round" stroke-linejoin="round"/>
<path d="M8.69464 3.5H9.75701C10.606 3.5 11.0304 3.5 11.3759 3.70633C11.7213 3.91266 11.9226 4.2864 12.3251 5.03388L13.0696 6.41667" stroke="#6C32A9" stroke-width="0.583333" stroke-linecap="round" stroke-linejoin="round"/>
<path d="M3.73633 5.25V6.41667" stroke="#6C32A9" stroke-width="0.583333" stroke-linecap="round"/>
</svg>
