<svg width="18" height="18" viewBox="0 0 18 18" fill="none" xmlns="http://www.w3.org/2000/svg">
<path d="M4 11V13" stroke="#5A66C1" stroke-width="1.125" stroke-linecap="round" stroke-linejoin="round"/>
<path d="M9 7V13" stroke="#5A66C1" stroke-width="1.125" stroke-linecap="round" stroke-linejoin="round"/>
<path d="M15 15H3" stroke="#5A66C1" stroke-width="1.125" stroke-linecap="round" stroke-linejoin="round"/>
<path d="M14 10V13" stroke="#5A66C1" stroke-width="1.125" stroke-linecap="round" stroke-linejoin="round"/>
<path d="M5.16005 7.07996C4.94113 6.78851 4.59258 6.6 4.2 6.6C3.53726 6.6 3 7.13726 3 7.8C3 8.46276 3.53726 9 4.2 9C4.86274 9 5.4 8.46276 5.4 7.8C5.4 7.52984 5.31072 7.28053 5.16005 7.07996ZM5.16005 7.07996L8.03994 4.92004M8.03994 4.92004C8.25888 5.21149 8.60742 5.4 9 5.4C9.4698 5.4 9.87654 5.13004 10.0735 4.73677M8.03994 4.92004C7.88928 4.71947 7.8 4.47016 7.8 4.2C7.8 3.53726 8.33724 3 9 3C9.66276 3 10.2 3.53726 10.2 4.2C10.2 4.39295 10.1545 4.57526 10.0735 4.73677M10.0735 4.73677L12.7265 6.06323M12.7265 6.06323C12.6455 6.22474 12.6 6.40705 12.6 6.6C12.6 7.26274 13.1372 7.8 13.8 7.8C14.4628 7.8 15 7.26274 15 6.6C15 5.93726 14.4628 5.4 13.8 5.4C13.3302 5.4 12.9235 5.66996 12.7265 6.06323Z" stroke="#5A66C1" stroke-width="1.125"/>
</svg>
