<svg width="18" height="19" viewBox="0 0 18 19" fill="none" xmlns="http://www.w3.org/2000/svg">
<path d="M8.15535 16.4319L6.63259 15.5281C6.24612 15.2987 6.05288 15.184 5.83843 15.1774C5.60668 15.1702 5.41002 15.2802 4.99241 15.5281C4.5247 15.8057 3.5947 16.5704 2.99312 16.2058C2.625 15.9826 2.625 15.4157 2.625 14.2819V6.29767C2.625 4.17635 2.625 3.11569 3.28401 2.45668C3.94302 1.79767 5.00368 1.79767 7.125 1.79767H10.875C12.9963 1.79767 14.0569 1.79767 14.716 2.45668C15.375 3.11569 15.375 4.17635 15.375 6.29767V14.2819C15.375 15.4157 15.375 15.9826 15.0069 16.2058C14.4053 16.5704 13.4753 15.8057 13.0075 15.5281C12.6211 15.2987 12.4279 15.184 12.2134 15.1774C11.9817 15.1702 11.7851 15.2802 11.3674 15.5281L9.84465 16.4319C9.43395 16.6757 9.22852 16.7976 9 16.7976C8.77148 16.7976 8.56605 16.6757 8.15535 16.4319Z" stroke="#8396A8" stroke-width="1.125" stroke-linecap="round" stroke-linejoin="round"/>
<path d="M11.25 6.29767L6.75 10.7977" stroke="#8396A8" stroke-width="1.125" stroke-linecap="round" stroke-linejoin="round"/>
<path d="M11.25 10.7977H11.2433M6.75673 6.29767H6.75" stroke="#8396A8" stroke-width="1.5" stroke-linecap="round" stroke-linejoin="round"/>
</svg>
