<svg width="18" height="19" viewBox="0 0 18 19" fill="none" xmlns="http://www.w3.org/2000/svg">
<path d="M11.9167 10.3503C11.9167 10.1486 11.9167 10.0478 11.9471 9.958C12.0353 9.6969 12.2678 9.59563 12.5007 9.48952C12.7626 9.37023 12.8935 9.31061 13.0232 9.30011C13.1705 9.28821 13.318 9.31995 13.4439 9.39059C13.6108 9.48421 13.7272 9.66219 13.8464 9.80691C14.3966 10.4753 14.6718 10.8095 14.7725 11.1781C14.8537 11.4755 14.8537 11.7865 14.7725 12.0839C14.6256 12.6214 14.1617 13.0721 13.8183 13.4891C13.6427 13.7025 13.5548 13.8092 13.4439 13.8714C13.318 13.942 13.1705 13.9738 13.0232 13.9619C12.8935 13.9514 12.7626 13.8918 12.5007 13.7725C12.2678 13.6664 12.0353 13.5651 11.9471 13.304C11.9167 13.2142 11.9167 13.1134 11.9167 12.9117V10.3503Z" stroke="#8396A8" stroke-width="0.875"/>
<path d="M7.54175 14.5477C8.34716 15.3254 9.65301 15.3254 10.4584 14.5477" stroke="#8396A8" stroke-width="0.875" stroke-linecap="round" stroke-linejoin="round"/>
<path d="M6.08341 10.3503C6.08341 10.0964 6.07629 9.86827 5.87103 9.68977C5.79637 9.62484 5.69739 9.57975 5.49945 9.48957C5.23759 9.37033 5.10666 9.31072 4.97692 9.30022C4.5877 9.26872 4.37828 9.53437 4.15382 9.80696C3.60352 10.4753 3.32837 10.8095 3.22768 11.1781C3.14644 11.4755 3.14644 11.7865 3.22768 12.0839C3.37453 12.6214 3.83847 13.0719 4.18187 13.489C4.39833 13.7519 4.60511 13.9919 4.97692 13.9618C5.10666 13.9513 5.23759 13.8916 5.49945 13.7723C5.69739 13.6822 5.79637 13.6371 5.87103 13.5722C6.07629 13.3937 6.08341 13.1656 6.08341 12.9116V10.3503Z" stroke="#8396A8" stroke-width="0.875"/>
<path d="M3.16675 11.631V9.29767C3.16675 6.07601 5.77842 3.46434 9.00008 3.46434C12.2217 3.46434 14.8334 6.07601 14.8334 9.29767L14.8335 11.631" stroke="#8396A8" stroke-width="0.875" stroke-linecap="round" stroke-linejoin="round"/>
</svg>
