<svg width="21" height="20" viewBox="0 0 21 20" fill="none" xmlns="http://www.w3.org/2000/svg">
<path d="M11.7421 16.2139C11.5835 15.8311 11.5835 15.3457 11.5835 14.375C11.5835 13.4042 11.5835 12.9189 11.7421 12.5361C11.9535 12.0256 12.3591 11.62 12.8696 11.4086C13.2524 11.25 13.7377 11.25 14.7085 11.25C15.6792 11.25 16.1646 11.25 16.5474 11.4086C17.0579 11.62 17.4635 12.0256 17.6749 12.5361C17.8335 12.9189 17.8335 13.4042 17.8335 14.375C17.8335 15.3457 17.8335 15.8311 17.6749 16.2139C17.4635 16.7244 17.0579 17.13 16.5474 17.3414C16.1646 17.5 15.6792 17.5 14.7085 17.5C13.7377 17.5 13.2524 17.5 12.8696 17.3414C12.3591 17.13 11.9535 16.7244 11.7421 16.2139Z" stroke="#E76500" stroke-width="1.125" stroke-linecap="square" stroke-linejoin="round"/>
<path d="M11.7421 7.46392C11.5835 7.08107 11.5835 6.59571 11.5835 5.625C11.5835 4.65429 11.5835 4.16893 11.7421 3.78608C11.9535 3.2756 12.3591 2.87003 12.8696 2.65858C13.2524 2.5 13.7377 2.5 14.7085 2.5C15.6792 2.5 16.1646 2.5 16.5474 2.65858C17.0579 2.87003 17.4635 3.2756 17.6749 3.78608C17.8335 4.16893 17.8335 4.65429 17.8335 5.625C17.8335 6.59571 17.8335 7.08107 17.6749 7.46392C17.4635 7.9744 17.0579 8.38 16.5474 8.59142C16.1646 8.75 15.6792 8.75 14.7085 8.75C13.7377 8.75 13.2524 8.75 12.8696 8.59142C12.3591 8.38 11.9535 7.9744 11.7421 7.46392Z" stroke="#E76500" stroke-width="1.125" stroke-linecap="square" stroke-linejoin="round"/>
<path d="M2.99208 16.2139C2.8335 15.8311 2.8335 15.3457 2.8335 14.375C2.8335 13.4042 2.8335 12.9189 2.99208 12.5361C3.20353 12.0256 3.6091 11.62 4.11957 11.4086C4.50243 11.25 4.98779 11.25 5.9585 11.25C6.9292 11.25 7.41456 11.25 7.79742 11.4086C8.3079 11.62 8.7135 12.0256 8.92491 12.5361C9.0835 12.9189 9.0835 13.4042 9.0835 14.375C9.0835 15.3457 9.0835 15.8311 8.92491 16.2139C8.7135 16.7244 8.3079 17.13 7.79742 17.3414C7.41456 17.5 6.9292 17.5 5.9585 17.5C4.98779 17.5 4.50243 17.5 4.11957 17.3414C3.6091 17.13 3.20353 16.7244 2.99208 16.2139Z" stroke="#E76500" stroke-width="1.125" stroke-linecap="square" stroke-linejoin="round"/>
<path d="M2.99208 7.46392C2.8335 7.08107 2.8335 6.59571 2.8335 5.625C2.8335 4.65429 2.8335 4.16893 2.99208 3.78608C3.20353 3.2756 3.6091 2.87003 4.11957 2.65858C4.50243 2.5 4.98779 2.5 5.9585 2.5C6.9292 2.5 7.41456 2.5 7.79742 2.65858C8.3079 2.87003 8.7135 3.2756 8.92491 3.78608C9.0835 4.16893 9.0835 4.65429 9.0835 5.625C9.0835 6.59571 9.0835 7.08107 8.92491 7.46392C8.7135 7.9744 8.3079 8.38 7.79742 8.59142C7.41456 8.75 6.9292 8.75 5.9585 8.75C4.98779 8.75 4.50243 8.75 4.11957 8.59142C3.6091 8.38 3.20353 7.9744 2.99208 7.46392Z" stroke="#E76500" stroke-width="1.125" stroke-linecap="square" stroke-linejoin="round"/>
</svg>
