<svg width="18" height="19" viewBox="0 0 18 19" fill="none" xmlns="http://www.w3.org/2000/svg">
<path d="M13.6666 8.29767V7.9643C13.6666 5.45018 13.6666 4.19308 12.8856 3.41203C12.1045 2.631 10.8474 2.631 8.33329 2.631C5.81922 2.631 4.56213 2.63104 3.78109 3.41206C3.00006 4.1931 3.00005 5.45015 3.00003 7.96426L3 10.9643C2.99998 13.1559 2.99997 14.2518 3.60525 14.9893C3.71608 15.1244 3.83991 15.2482 3.97495 15.3591C4.71251 15.9643 5.80833 15.9643 7.99996 15.9643" stroke="#8396A8" stroke-linecap="round" stroke-linejoin="round"/>
<path d="M5.66675 5.96433H11.0001M5.66675 8.631H8.33341" stroke="#8396A8" stroke-linecap="round" stroke-linejoin="round"/>
<path d="M13 13.631L12 13.2643V11.631M9 12.9643C9 14.6212 10.3431 15.9643 12 15.9643C13.6569 15.9643 15 14.6212 15 12.9643C15 11.3075 13.6569 9.96433 12 9.96433C10.3431 9.96433 9 11.3075 9 12.9643Z" stroke="#8396A8" stroke-linecap="round" stroke-linejoin="round"/>
</svg>
