<svg width="18" height="19" viewBox="0 0 18 19" fill="none" xmlns="http://www.w3.org/2000/svg">
<path d="M11.9605 15.5295L12.3286 15.0694C12.6521 14.6651 13.339 14.6977 13.6123 15.1302C13.9409 15.6507 14.7528 15.5472 14.9779 15.0685C14.9897 15.0436 14.9603 15.1059 14.9854 14.8905C15.0104 14.6751 15 14.6259 14.9791 14.5275L13.6971 8.47374C13.3749 6.9523 13.2137 6.19158 12.6595 5.74462C12.1054 5.29767 11.3232 5.29767 9.75893 5.29767H8.24107C6.67678 5.29767 5.89463 5.29767 5.34044 5.74462C4.78625 6.19158 4.62514 6.9523 4.30293 8.47374L3.02087 14.5275C3.00003 14.6259 2.98961 14.6751 3.01463 14.8905C3.03964 15.1059 3.01036 15.0436 3.02207 15.0685C3.24723 15.5472 4.05904 15.6507 4.38777 15.1302C4.66101 14.6977 5.34791 14.6651 5.67139 15.0694L6.03956 15.5295C6.50343 16.1093 7.47213 16.1093 7.936 15.5295L7.99387 15.4571C8.48607 14.842 9.51393 14.842 10.0061 15.4571L10.064 15.5295C10.5279 16.1093 11.4966 16.1093 11.9605 15.5295Z" stroke="#8396A8" stroke-linejoin="round"/>
<path d="M2.65549 7.631C2.26529 7.22566 2.33875 6.70362 2.33875 5.39884C2.33875 4.09407 2.33875 3.44168 2.72895 3.03634C3.11916 2.631 3.74719 2.631 5.00323 2.631H12.9967C14.2527 2.631 14.8808 2.631 15.271 3.03634C15.6612 3.44168 15.6612 4.09407 15.6612 5.39884C15.6612 6.70362 15.7342 7.22566 15.344 7.631" stroke="#8396A8" stroke-linecap="round"/>
<path d="M9 7.96433H7" stroke="#8396A8" stroke-linecap="round" stroke-linejoin="round"/>
<path d="M10.3333 10.631H6.33325" stroke="#8396A8" stroke-linecap="round" stroke-linejoin="round"/>
</svg>
