<svg width="18" height="18" viewBox="0 0 18 18" fill="none" xmlns="http://www.w3.org/2000/svg">
<path d="M15 9.5C15.2761 9.5 15.5 9.27614 15.5 9C15.5 8.72386 15.2761 8.5 15 8.5V9.5ZM3.64645 8.64645C3.45118 8.84171 3.45118 9.15829 3.64645 9.35355L6.82843 12.5355C7.02369 12.7308 7.34027 12.7308 7.53553 12.5355C7.7308 12.3403 7.7308 12.0237 7.53553 11.8284L4.70711 9L7.53553 6.17157C7.7308 5.97631 7.7308 5.65973 7.53553 5.46447C7.34027 5.2692 7.02369 5.2692 6.82843 5.46447L3.64645 8.64645ZM15 9V8.5L4 8.5V9V9.5L15 9.5V9Z" fill="#5A66C1"/>
</svg>
