<svg width="12" height="12" viewBox="0 0 12 12" fill="none" xmlns="http://www.w3.org/2000/svg">
<path d="M2.57151 7C2.19634 6.38561 1.99854 5.67938 2.00001 4.9595C2.00001 2.7725 3.79101 1 6.00001 1C8.20901 1 10 2.7725 10 4.9595C10.0015 5.67938 9.80368 6.38561 9.42851 7M7.50001 9.5L7.43501 9.8235C7.36501 10.177 7.32951 10.3535 7.25001 10.4935C7.12751 10.7093 6.92916 10.8718 6.69351 10.9495C6.54101 11 6.36001 11 6.00001 11C5.64001 11 5.45901 11 5.30651 10.95C5.07078 10.8722 4.87242 10.7095 4.75001 10.4935C4.67051 10.3535 4.63501 10.177 4.56501 9.8235L4.50001 9.5M6.00001 8V5.5M3.69151 8.549C3.64551 8.411 3.62251 8.3415 3.62501 8.2855C3.62784 8.2276 3.64738 8.17175 3.68128 8.12472C3.71517 8.07769 3.76197 8.04149 3.81601 8.0205C3.86801 8 3.94101 8 4.08601 8H7.91401C8.05951 8 8.13201 8 8.18401 8.02C8.23812 8.04103 8.28497 8.07731 8.31887 8.12443C8.35277 8.17156 8.37227 8.22751 8.37501 8.2855C8.37751 8.3415 8.35451 8.4105 8.30851 8.549C8.22351 8.8045 8.18101 8.9325 8.11551 9.036C7.97851 9.2523 7.76376 9.40782 7.51551 9.4705C7.39651 9.5 7.26251 9.5 6.99401 9.5H5.00601C4.73751 9.5 4.60301 9.5 4.48451 9.47C4.23634 9.40744 4.0216 9.25212 3.88451 9.036C3.81901 8.9325 3.77651 8.8045 3.69151 8.549Z" stroke="#E76500" stroke-width="1.125" stroke-linecap="round" stroke-linejoin="round"/>
</svg>
