<svg width="18" height="19" viewBox="0 0 18 19" fill="none" xmlns="http://www.w3.org/2000/svg">
<path d="M15.1117 5.96433C15.8515 7.66045 15.8515 9.60153 15.1117 11.2977M2.88809 11.2977C2.14831 9.60153 2.14831 7.66045 2.88809 5.96433" stroke="#8396A8" stroke-linecap="round" stroke-linejoin="round"/>
<path d="M11 8.631C11 9.7356 10.1046 10.631 9 10.631C7.8954 10.631 7 9.7356 7 8.631C7 7.52644 7.8954 6.631 9 6.631C10.1046 6.631 11 7.52644 11 8.631Z" stroke="#8396A8"/>
<path d="M9 3.631C11.7059 3.631 14 5.91636 14 8.68894C14 11.5057 11.6685 13.4823 9.515 14.8265C9.35807 14.9168 9.1806 14.9643 9 14.9643C8.8194 14.9643 8.64193 14.9168 8.485 14.8265C6.3355 13.4692 4 11.5154 4 8.68894C4 5.91636 6.29413 3.631 9 3.631Z" stroke="#8396A8"/>
</svg>
