<svg width="18" height="19" viewBox="0 0 18 19" fill="none" xmlns="http://www.w3.org/2000/svg">
<path d="M4 7.79767H11" stroke="#8396A8" stroke-width="0.992157" stroke-linecap="round" stroke-linejoin="round"/>
<path d="M8.00074 9.94766L7.09463 11.1257C6.99752 11.252 7.06712 11.4336 7.22546 11.4672L8.17461 11.6687C8.34348 11.7045 8.40783 11.9056 8.28979 12.0284L7.16557 13.1977" stroke="#8396A8" stroke-width="0.975" stroke-linecap="round" stroke-linejoin="round"/>
<path d="M3.80005 15.1477V7.34766C3.80005 5.50918 3.80005 4.58995 4.37119 4.0188C4.94233 3.44766 5.86157 3.44766 7.70005 3.44766C9.53851 3.44766 10.4577 3.44766 11.0289 4.0188C11.6 4.58995 11.6 5.50918 11.6 7.34766V15.1477H3.80005Z" stroke="#8396A8" stroke-width="0.975"/>
<path d="M2.5 15.1476H12.9" stroke="#8396A8" stroke-width="0.975" stroke-linecap="round" stroke-linejoin="round"/>
<path d="M11.6001 10.5976H12.6835C12.885 10.5976 12.9857 10.5976 13.0683 10.6198C13.2926 10.6799 13.4679 10.8551 13.5279 11.0794C13.5501 11.162 13.5501 11.2628 13.5501 11.4643V12.2226C13.5501 12.7611 13.9866 13.1976 14.5251 13.1976C15.0636 13.1976 15.5001 12.7611 15.5001 12.2226V8.13486C15.5001 7.74413 15.5001 7.54876 15.4443 7.36453C15.3886 7.1803 15.2801 7.01775 15.0634 6.69264L14.5607 5.93848C14.3354 5.60059 13.9562 5.39764 13.5501 5.39764" stroke="#8396A8" stroke-width="0.975" stroke-linecap="round" stroke-linejoin="round"/>
</svg>
