<svg width="20" height="20" viewBox="0 0 20 20" fill="none" xmlns="http://www.w3.org/2000/svg">
<path d="M4.44434 8.33333H12.2221" stroke="#E76500" stroke-width="0.992157" stroke-linecap="round" stroke-linejoin="round"/>
<path d="M8.88957 10.7222L7.88278 12.0312C7.77489 12.1714 7.85222 12.3733 8.02816 12.4106L9.08277 12.6344C9.2704 12.6742 9.3419 12.8977 9.21075 13.0341L7.96161 14.3333" stroke="#E76500" stroke-width="0.975" stroke-linecap="round" stroke-linejoin="round"/>
<path d="M4.22217 16.5V7.83333C4.22217 5.79058 4.22217 4.7692 4.85677 4.1346C5.49137 3.5 6.51275 3.5 8.5555 3.5C10.5982 3.5 11.6196 3.5 12.2542 4.1346C12.8888 4.7692 12.8888 5.79058 12.8888 7.83333V16.5H4.22217Z" stroke="#E76500" stroke-width="0.975"/>
<path d="M2.77783 16.5H14.3334" stroke="#E76500" stroke-width="0.975" stroke-linecap="round" stroke-linejoin="round"/>
<path d="M12.8889 11.4444H14.0926C14.3165 11.4444 14.4285 11.4444 14.5203 11.469C14.7695 11.5358 14.9642 11.7305 15.031 11.9797C15.0556 12.0715 15.0556 12.1835 15.0556 12.4074V13.25C15.0556 13.8483 15.5406 14.3333 16.1389 14.3333C16.7372 14.3333 17.2222 13.8483 17.2222 13.25V8.70799C17.2222 8.27385 17.2222 8.05677 17.1603 7.85207C17.0983 7.64737 16.9778 7.46676 16.7371 7.10552L16.1784 6.26757C15.9282 5.89214 15.5068 5.66664 15.0556 5.66664" stroke="#E76500" stroke-width="0.975" stroke-linecap="round" stroke-linejoin="round"/>
</svg>
