<svg width="18" height="19" viewBox="0 0 18 19" fill="none" xmlns="http://www.w3.org/2000/svg">
<path d="M3.375 7.99664V4.79767H14.625V7.99664C14.625 10.3777 14.625 11.5683 13.8928 12.3079C13.1606 13.0477 11.982 13.0477 9.62497 13.0477H8.37503C6.01798 13.0477 4.83946 13.0477 4.10723 12.3079C3.375 11.5683 3.375 10.3777 3.375 7.99664Z" stroke="#8396A8" stroke-width="1.125" stroke-linecap="round" stroke-linejoin="round"/>
<path d="M3.375 4.79767L3.91586 3.64382C4.33534 2.74895 4.54507 2.30152 4.97019 2.04959C5.39531 1.79767 5.94063 1.79767 7.03125 1.79767H10.9688C12.0594 1.79767 12.6047 1.79767 13.0298 2.04959C13.4549 2.30152 13.6647 2.74895 14.0841 3.64382L14.625 4.79767" stroke="#8396A8" stroke-width="1.125" stroke-linecap="round"/>
<path d="M7.875 7.04767H10.125" stroke="#8396A8" stroke-width="1.125" stroke-linecap="round"/>
<path d="M9 14.9227V16.7977M9 14.9227H5.25M9 14.9227H12.75M5.25 14.9227H3.375C2.33947 14.9227 1.5 15.7621 1.5 16.7977M5.25 14.9227V16.7977M12.75 14.9227H14.625C15.6605 14.9227 16.5 15.7621 16.5 16.7977M12.75 14.9227V16.7977" stroke="#8396A8" stroke-width="1.125" stroke-linecap="round" stroke-linejoin="round"/>
</svg>
