<svg width="25" height="24" viewBox="0 0 25 24" fill="none" xmlns="http://www.w3.org/2000/svg">
<path d="M8.5332 10.4112L12.1066 6.83766C13.0816 5.86278 13.569 5.37533 14.1069 4.98273C15.2106 4.17722 16.4908 3.64696 17.8408 3.43611C18.4988 3.33334 19.1882 3.33334 20.5669 3.33334C20.6389 3.33334 20.6665 3.36638 20.6665 3.43304C20.6665 4.81174 20.6665 5.50109 20.5637 6.15908C20.3529 7.5091 19.8227 8.78924 19.0172 9.89295C18.6246 10.4309 18.1371 10.9183 17.1623 11.8932L13.5887 15.4667" stroke="#E76500" stroke-width="1.3" stroke-linecap="round" stroke-linejoin="round"/>
<path d="M10.5619 8.61862C9.08601 8.61862 7.23108 8.30599 5.85007 8.87802C4.83816 9.29717 4.09354 10.2677 3.33301 11.0282L6.19818 12.2561C6.95748 12.5816 6.49332 13.5397 6.36762 14.1682C6.22754 14.8686 6.23535 14.8944 6.74038 15.3994L8.60024 17.2593C9.10527 17.7643 9.13108 17.7722 9.83141 17.6321C10.46 17.5064 11.4181 17.0422 11.7435 17.8015L12.9715 20.6667C13.732 19.9062 14.7025 19.1615 15.1217 18.1496C15.6938 16.7686 15.3811 14.9137 15.3811 13.4378" stroke="#E76500" stroke-width="1.3" stroke-linejoin="round"/>
<path d="M12 18.9333L11.1333 19.8" stroke="#E76500" stroke-width="1.3" stroke-linecap="round" stroke-linejoin="round"/>
<path d="M5.06637 12L4.19971 12.8667" stroke="#E76500" stroke-width="1.3" stroke-linecap="round" stroke-linejoin="round"/>
<path d="M14.6001 5.13596C15.6401 5.29196 16.7321 5.70796 17.34 6.33196C18.1167 7.01849 18.6561 7.94396 18.8641 9.39996" stroke="#E76500" stroke-width="1.3" stroke-linecap="square"/>
<path d="M17.1474 6.85205L15.8994 8.10005" stroke="#E76500" stroke-width="1.3" stroke-linecap="round"/>
</svg>
