<svg width="19" height="18" viewBox="0 0 19 18" fill="none" xmlns="http://www.w3.org/2000/svg">
<path d="M8.20837 3.375C8.20837 3.27554 8.24788 3.18016 8.31821 3.10984C8.38853 3.03951 8.48392 3 8.58337 3H10.0834C10.1828 3 10.2782 3.03951 10.3485 3.10984C10.4189 3.18016 10.4584 3.27554 10.4584 3.375C10.4584 3.47446 10.4189 3.56984 10.3485 3.64016C10.2782 3.71049 10.1828 3.75 10.0834 3.75H8.58337C8.48392 3.75 8.38853 3.71049 8.31821 3.64016C8.24788 3.56984 8.20837 3.47446 8.20837 3.375Z" fill="#E76500"/>
<path fill-rule="evenodd" clip-rule="evenodd" d="M13.3753 6.56411C13.2186 6.69077 13.0154 6.7921 12.7702 6.87431C12.7812 6.98868 12.7866 7.10452 12.7866 7.22185C12.7865 7.70327 12.6913 8.17964 12.507 8.62207C12.3227 9.06451 12.0531 9.46378 11.7144 9.7957C11.3758 10.1276 10.9752 10.3853 10.537 10.553C10.0988 10.7207 9.63206 10.7951 9.16511 10.7715C8.69816 10.748 8.24072 10.627 7.82052 10.4159C7.40033 10.2049 7.02613 9.90818 6.72062 9.54377C6.41512 9.17935 6.18466 8.75485 6.04323 8.29598C5.9018 7.83711 5.85234 7.35345 5.89786 6.87431C5.65272 6.7921 5.44945 6.69077 5.29322 6.56411C5.09038 6.39967 4.95444 6.18013 4.93847 5.91615C4.92336 5.67127 5.01745 5.46329 5.11153 5.31663C5.20437 5.17769 5.31466 5.05201 5.43953 4.94287C5.50052 4.88836 5.55893 4.83992 5.61474 4.79755C5.59806 4.706 5.58051 4.59638 5.56209 4.46868C5.48603 3.90844 5.44853 3.34336 5.44988 2.77767C5.44988 2.63812 5.50771 2.53413 5.53447 2.49013C5.56813 2.43458 5.60784 2.38703 5.64409 2.34881C5.71616 2.27103 5.80938 2.19193 5.91167 2.11593C6.11882 1.96128 6.40366 1.78751 6.74202 1.62485C7.41657 1.30043 8.34316 1 9.33405 1C10.3249 1 11.2515 1.30087 11.9261 1.62485C12.217 1.76179 12.495 1.92618 12.7564 2.11593C12.8587 2.19193 12.9519 2.27148 13.024 2.34881C13.0603 2.38703 13.1 2.43458 13.1336 2.49013C13.1604 2.53413 13.2182 2.63812 13.2182 2.77767C13.2182 3.48963 13.1621 4.06648 13.106 4.46868C13.0876 4.59667 13.07 4.7063 13.0534 4.79755C13.1086 4.83977 13.1686 4.88821 13.229 4.94287C13.3369 5.0402 13.4603 5.16686 13.5566 5.31663C13.6511 5.46329 13.7447 5.67127 13.7301 5.91659C13.7141 6.18013 13.5782 6.39967 13.3753 6.56411ZM6.3139 2.919C6.32037 3.51807 6.3687 4.00249 6.41661 4.34113C6.42812 4.42113 6.43905 4.49253 6.44941 4.55534H12.2187C12.2293 4.49223 12.2403 4.42083 12.2515 4.34113C12.299 4.00249 12.3477 3.51807 12.3542 2.919C12.3206 2.88979 12.2859 2.86192 12.2502 2.83545C12.0944 2.71945 11.8579 2.57324 11.561 2.43058C10.9641 2.14349 10.1644 1.88884 9.33405 1.88884C8.5037 1.88884 7.704 2.14349 7.10713 2.43058C6.81021 2.57324 6.5737 2.71945 6.41834 2.835C6.38248 2.86176 6.34764 2.88992 6.3139 2.91944M6.22154 5.44418L6.22024 5.44507C6.14574 5.49615 6.07439 5.55196 6.00661 5.61217C5.92979 5.6815 5.86851 5.74905 5.8314 5.80771C5.82277 5.82104 5.81484 5.83483 5.80766 5.84904L5.82665 5.86548C5.89138 5.91793 6.03035 5.99481 6.30138 6.07081C6.35489 6.08562 6.41229 6.10014 6.47358 6.11436L6.47746 6.11525C6.69411 6.16458 6.96082 6.20858 7.2858 6.24324C7.74629 6.29257 8.32589 6.32501 9.05008 6.33212L9.33405 6.33301C10.7267 6.33301 11.6274 6.24368 12.1911 6.11525L12.1945 6.11436C12.2561 6.10043 12.3136 6.08592 12.3672 6.07081C12.6378 5.99525 12.7772 5.91793 12.8415 5.86548L12.8604 5.84904C12.8534 5.83484 12.8456 5.82105 12.8371 5.80771C12.7868 5.73523 12.7277 5.66953 12.6615 5.61217C12.5939 5.55197 12.5226 5.49617 12.4483 5.44507L12.4466 5.44418H6.22154ZM9.21666 7.22185C10.3569 7.22185 11.2407 7.15963 11.9183 7.05119C11.9218 7.10748 11.9235 7.16437 11.9235 7.22185C11.9232 7.57771 11.8537 7.92991 11.7192 8.2577C11.5846 8.58548 11.3877 8.88221 11.14 9.13041C10.8924 9.37861 10.599 9.57324 10.2771 9.70285C9.9553 9.83246 9.61152 9.89442 9.26606 9.88507C8.9206 9.87573 8.58045 9.79527 8.26565 9.64844C7.95086 9.50161 7.66779 9.29138 7.43313 9.03014C7.19847 8.7689 7.01696 8.46193 6.8993 8.12732C6.78165 7.79272 6.73022 7.43725 6.74806 7.08186C7.37945 7.17163 8.18865 7.22185 9.21666 7.22185ZM5.91512 15.6111C5.89253 15.7765 5.88128 15.9432 5.88146 16.1102V16.5546C5.88151 16.6523 5.85029 16.7473 5.79264 16.8249C5.73499 16.9025 5.65412 16.9584 5.56253 16.9839C5.47094 17.0094 5.37375 17.0031 5.28599 16.966C5.19822 16.9289 5.12477 16.863 5.077 16.7786C4.786 16.9406 4.44581 16.9818 4.12625 16.8937L3.29244 16.6635C2.96089 16.5719 2.67825 16.3484 2.50668 16.0422C2.33511 15.736 2.28864 15.3722 2.37751 15.0307L2.71241 13.7428C2.80131 13.4013 3.0183 13.1101 3.31565 12.9334C3.613 12.7566 3.96636 12.7087 4.29801 12.8002L5.13181 13.0299C5.42183 13.1099 5.66265 13.2855 5.8301 13.5148C6.22969 12.9422 6.75597 12.4759 7.36537 12.1544C7.97477 11.8329 8.64976 11.6655 9.33448 11.666C10.0188 11.6657 10.6934 11.8331 11.3025 12.1544C11.9116 12.4757 12.4376 12.9417 12.8371 13.5139C13.0109 13.2773 13.2563 13.1072 13.5346 13.0304L14.3684 12.8006C14.7 12.7091 15.0533 12.757 15.3506 12.9336C15.6479 13.1103 15.865 13.4014 15.954 13.7428L16.2893 15.0312C16.3333 15.2003 16.3445 15.3767 16.3223 15.5503C16.3001 15.7239 16.2448 15.8913 16.1598 16.0429C16.0748 16.1945 15.9616 16.3274 15.8266 16.4339C15.6917 16.5405 15.5377 16.6187 15.3735 16.6639L14.5401 16.8937C14.2211 16.9819 13.8815 16.9412 13.5907 16.7799C13.5427 16.8642 13.4692 16.9299 13.3814 16.9668C13.2936 17.0038 13.1964 17.0099 13.1049 16.9842C13.0134 16.9586 12.9326 16.9026 12.8751 16.825C12.8176 16.7473 12.7865 16.6523 12.7866 16.5546V16.1102C12.7868 15.9432 12.7756 15.7765 12.753 15.6111L10.5071 16.2311C10.4028 16.4609 10.2371 16.6553 10.0293 16.7915C9.82153 16.9277 9.58035 17 9.33405 17C9.08775 17 8.84657 16.9277 8.63879 16.7915C8.43102 16.6553 8.26528 16.4609 8.16103 16.2311L5.91512 15.6111ZM8.09112 15.2911C8.14882 15.0884 8.25247 14.9027 8.39354 14.7493C8.5346 14.596 8.70904 14.4793 8.90248 14.409V12.5824C8.29714 12.6613 7.72286 12.9037 7.23797 13.2851C6.75307 13.6665 6.37484 14.1732 6.1417 14.7538L8.09112 15.2911ZM12.5264 14.7534C12.2932 14.1728 11.9149 13.6662 11.4301 13.2849C10.9452 12.9036 10.3709 12.6612 9.76563 12.5824V14.4085C10.1558 14.5507 10.4605 14.8796 10.577 15.2916L12.5264 14.7534ZM13.453 14.4334C13.4383 14.377 13.4346 14.3182 13.4419 14.2604C13.4493 14.2025 13.4677 14.1467 13.496 14.0961C13.5244 14.0456 13.5621 14.0013 13.6071 13.9657C13.652 13.9302 13.7034 13.9041 13.7581 13.889L14.5919 13.6588C14.7024 13.6284 14.8201 13.6444 14.9192 13.7033C15.0182 13.7622 15.0905 13.8592 15.1202 13.973L15.4555 15.2609C15.4702 15.3173 15.4739 15.3761 15.4666 15.434C15.4592 15.4918 15.4408 15.5477 15.4124 15.5982C15.3841 15.6488 15.3464 15.6931 15.3014 15.7286C15.2565 15.7642 15.2051 15.7902 15.1504 15.8053L14.3166 16.0355C14.2618 16.0507 14.2047 16.0545 14.1484 16.0469C14.0922 16.0392 14.038 16.0203 13.9889 15.991C13.9398 15.9618 13.8968 15.9229 13.8623 15.8766C13.8278 15.8302 13.8025 15.7773 13.7879 15.7209L13.453 14.4334ZM4.07489 13.6588C4.02011 13.6436 3.96296 13.6397 3.90671 13.6473C3.85046 13.6548 3.79622 13.6738 3.74707 13.7029C3.69793 13.7321 3.65486 13.771 3.62032 13.8173C3.58578 13.8637 3.56045 13.9166 3.54578 13.973L3.21088 15.2605C3.19619 15.3169 3.19243 15.3757 3.19982 15.4335C3.20721 15.4914 3.22559 15.5472 3.25393 15.5978C3.28226 15.6483 3.31999 15.6926 3.36496 15.7282C3.40992 15.7637 3.46125 15.7898 3.516 15.8049L4.3498 16.0351C4.40455 16.0502 4.46165 16.0541 4.51785 16.0465C4.57405 16.0389 4.62825 16.0199 4.67734 15.9908C4.72644 15.9616 4.76947 15.9227 4.80398 15.8764C4.83849 15.8301 4.86381 15.7773 4.87848 15.7209L5.21338 14.433C5.22813 14.3766 5.23194 14.3177 5.22458 14.2598C5.21723 14.2019 5.19885 14.146 5.17052 14.0954C5.14218 14.0448 5.10443 14.0004 5.05943 13.9649C5.01443 13.9293 4.96306 13.9032 4.90826 13.8881L4.07489 13.6588ZM9.76563 15.6658C9.76563 15.7837 9.72016 15.8967 9.63922 15.98C9.55828 16.0634 9.44851 16.1102 9.33405 16.1102C9.21959 16.1102 9.10982 16.0634 9.02888 15.98C8.94795 15.8967 8.90248 15.7837 8.90248 15.6658C8.90248 15.5479 8.94795 15.4349 9.02888 15.3515C9.10982 15.2682 9.21959 15.2214 9.33405 15.2214C9.44851 15.2214 9.55828 15.2682 9.63922 15.3515C9.72016 15.4349 9.76563 15.5479 9.76563 15.6658Z" fill="#E76500"/>
</svg>
