<svg width="18" height="19" viewBox="0 0 18 19" fill="none" xmlns="http://www.w3.org/2000/svg">
<path d="M10.75 5.96434C10.75 6.93084 9.96652 7.71434 9 7.71434C8.03347 7.71434 7.25 6.93084 7.25 5.96434C7.25 4.99784 8.03347 4.21434 9 4.21434C9.96652 4.21434 10.75 4.99784 10.75 5.96434Z" stroke="#8396A8" stroke-width="0.875" stroke-linecap="round" stroke-linejoin="round"/>
<path d="M11.3333 3.631C12.2997 3.631 13.0833 4.4145 13.0833 5.381C13.0833 6.09447 12.6563 6.70821 12.0439 6.98067" stroke="#8396A8" stroke-width="0.875" stroke-linecap="round" stroke-linejoin="round"/>
<path d="M10 9.46434H8C6.61929 9.46434 5.5 10.5836 5.5 11.9643C5.5 12.5166 5.94771 12.9643 6.5 12.9643H11.5C12.0523 12.9643 12.5 12.5166 12.5 11.9643C12.5 10.5836 11.3807 9.46434 10 9.46434Z" stroke="#8396A8" stroke-width="0.875" stroke-linecap="round" stroke-linejoin="round"/>
<path d="M12.3333 8.881C13.7139 8.881 14.8332 10.0003 14.8332 11.381C14.8332 11.9333 14.3855 12.381 13.8332 12.381" stroke="#8396A8" stroke-width="0.875" stroke-linecap="round" stroke-linejoin="round"/>
<path d="M6.66675 3.631C5.70025 3.631 4.91675 4.4145 4.91675 5.381C4.91675 6.09447 5.34371 6.70821 5.95606 6.98067" stroke="#8396A8" stroke-width="0.875" stroke-linecap="round" stroke-linejoin="round"/>
<path d="M4.16675 12.381C3.61446 12.381 3.16675 11.9333 3.16675 11.381C3.16675 10.0003 4.28604 8.881 5.66675 8.881" stroke="#8396A8" stroke-width="0.875" stroke-linecap="round" stroke-linejoin="round"/>
</svg>
