<svg width="21" height="20" viewBox="0 0 21 20" fill="none" xmlns="http://www.w3.org/2000/svg">
<path d="M12.278 6.2963C12.278 7.37018 11.4075 8.24074 10.3336 8.24074C9.25969 8.24074 8.38916 7.37018 8.38916 6.2963C8.38916 5.22241 9.25969 4.35185 10.3336 4.35185C11.4075 4.35185 12.278 5.22241 12.278 6.2963Z" stroke="#E76500" stroke-width="0.972222" stroke-linecap="round" stroke-linejoin="round"/>
<path d="M12.926 3.7037C13.9999 3.7037 14.8705 4.57426 14.8705 5.64815C14.8705 6.44089 14.396 7.12284 13.7157 7.42557" stroke="#E76500" stroke-width="0.972222" stroke-linecap="round" stroke-linejoin="round"/>
<path d="M11.4446 10.1852H9.22236C7.68823 10.1852 6.44458 11.4289 6.44458 12.963C6.44458 13.5766 6.94204 14.0741 7.55569 14.0741H13.1113C13.7249 14.0741 14.2224 13.5766 14.2224 12.963C14.2224 11.4289 12.9787 10.1852 11.4446 10.1852Z" stroke="#E76500" stroke-width="0.972222" stroke-linecap="round" stroke-linejoin="round"/>
<path d="M14.0371 9.53703C15.5712 9.53703 16.8149 10.7807 16.8149 12.3148C16.8149 12.9285 16.3174 13.4259 15.7038 13.4259" stroke="#E76500" stroke-width="0.972222" stroke-linecap="round" stroke-linejoin="round"/>
<path d="M7.74108 3.7037C6.66719 3.7037 5.79663 4.57426 5.79663 5.64815C5.79663 6.44089 6.27103 7.12284 6.95142 7.42557" stroke="#E76500" stroke-width="0.972222" stroke-linecap="round" stroke-linejoin="round"/>
<path d="M4.96316 13.4259C4.34951 13.4259 3.85205 12.9285 3.85205 12.3148C3.85205 10.7807 5.0957 9.53703 6.62983 9.53703" stroke="#E76500" stroke-width="0.972222" stroke-linecap="round" stroke-linejoin="round"/>
</svg>
