<svg width="14" height="15" viewBox="0 0 14 15" fill="none" xmlns="http://www.w3.org/2000/svg">
<path d="M8.75 4.96432C8.75 5.93082 7.96652 6.71432 7 6.71432C6.03347 6.71432 5.25 5.93082 5.25 4.96432C5.25 3.99783 6.03347 3.21432 7 3.21432C7.96652 3.21432 8.75 3.99783 8.75 4.96432Z" stroke="#8396A8" stroke-width="0.875" stroke-linecap="round" stroke-linejoin="round"/>
<path d="M9.33325 2.63101C10.2997 2.63101 11.0833 3.41452 11.0833 4.38101C11.0833 5.09448 10.6563 5.70823 10.0439 5.98069" stroke="#8396A8" stroke-width="0.875" stroke-linecap="round" stroke-linejoin="round"/>
<path d="M8.00002 8.46432H6C4.61929 8.46432 3.5 9.58362 3.5 10.9643C3.5 11.5166 3.94771 11.9643 4.5 11.9643H9.5C10.0523 11.9643 10.5 11.5166 10.5 10.9643C10.5 9.58362 9.38071 8.46432 8.00002 8.46432Z" stroke="#8396A8" stroke-width="0.875" stroke-linecap="round" stroke-linejoin="round"/>
<path d="M10.3333 7.88101C11.7139 7.88101 12.8332 9.00031 12.8332 10.381C12.8332 10.9333 12.3855 11.381 11.8332 11.381" stroke="#8396A8" stroke-width="0.875" stroke-linecap="round" stroke-linejoin="round"/>
<path d="M4.66675 2.63101C3.70025 2.63101 2.91675 3.41452 2.91675 4.38101C2.91675 5.09448 3.34371 5.70823 3.95606 5.98069" stroke="#8396A8" stroke-width="0.875" stroke-linecap="round" stroke-linejoin="round"/>
<path d="M2.16675 11.381C1.61446 11.381 1.16675 10.9333 1.16675 10.381C1.16675 9.00031 2.28604 7.88101 3.66675 7.88101" stroke="#8396A8" stroke-width="0.875" stroke-linecap="round" stroke-linejoin="round"/>
</svg>
