<svg width="20" height="10" viewBox="0 0 20 10" fill="none" xmlns="http://www.w3.org/2000/svg">
<path d="M19 5.6396C19.3532 5.6396 19.6396 5.35324 19.6396 5C19.6396 4.64676 19.3532 4.3604 19 4.3604V5V5.6396ZM0.547733 4.54773C0.297953 4.79751 0.297953 5.20249 0.547733 5.45227L4.61814 9.52267C4.86792 9.77245 5.27289 9.77245 5.52267 9.52267C5.77245 9.27289 5.77245 8.86792 5.52267 8.61814L1.90453 5L5.52267 1.38186C5.77245 1.13208 5.77245 0.72711 5.52267 0.47733C5.27289 0.22755 4.86792 0.22755 4.61814 0.47733L0.547733 4.54773ZM19 5V4.3604L1 4.3604V5V5.6396L19 5.6396V5Z" fill="#5B738B"/>
</svg>
