<svg width="21" height="21" viewBox="0 0 21 21" fill="none" xmlns="http://www.w3.org/2000/svg">
<g clip-path="url(#clip0_1_13281)">
<path d="M20.0495 10.4502C20.0495 15.824 15.6931 20.1804 10.3192 20.1804C4.9454 20.1804 0.588989 15.824 0.588989 10.4502C0.588989 10.4525 10.3192 0.721073 10.3192 0.719971C15.6931 0.719971 20.0495 5.07638 20.0495 10.4502Z" fill="#0052B4"/>
<path d="M10.2931 10.4535H10.3223C10.3223 10.4436 10.3223 10.4342 10.3223 10.4243C10.3126 10.4341 10.3028 10.4438 10.2931 10.4535Z" fill="#F0F0F0"/>
<path d="M10.3191 5.79685C10.3191 4.08475 10.3191 2.96284 10.3191 0.720215H10.3175C4.94436 0.721089 0.588867 5.07708 0.588867 10.4504H5.6655V7.5917L8.52421 10.4504H10.2931C10.3018 10.4417 10.3105 10.4331 10.3191 10.4244C10.3191 9.76884 10.3191 9.18392 10.3191 8.6556L7.46039 5.79685H10.3191Z" fill="#F0F0F0"/>
<path d="M5.51183 1.98975C3.99 2.85631 2.72484 4.12147 1.85828 5.6433V10.4508H4.39661V4.52812V4.52808H10.3194C10.3194 3.72751 10.3194 2.96482 10.3194 1.98975H5.51183Z" fill="#D80027"/>
<path d="M10.3196 9.25411L6.86257 5.79714H5.66602C5.66602 5.7971 5.66602 5.79714 5.66602 5.79714L10.3195 10.4507H10.3196C10.3196 10.4507 10.3196 9.62568 10.3196 9.25411Z" fill="#D80027"/>
<path d="M6.45762 12.1421L6.99164 13.2587L8.19754 12.98L7.65751 14.0937L8.62727 14.8628L7.41985 15.1349L7.42323 16.3726L6.45762 15.5983L5.49204 16.3726L5.49543 15.1349L4.28796 14.8628L5.25776 14.0937L4.71765 12.98L5.92363 13.2587L6.45762 12.1421Z" fill="#F0F0F0"/>
<path d="M15.1577 14.2573L15.4247 14.8156L16.0277 14.6763L15.7576 15.2331L16.2425 15.6177L15.6388 15.7537L15.6405 16.3726L15.1577 15.9854L14.6749 16.3726L14.6766 15.7537L14.0729 15.6177L14.5578 15.2331L14.2877 14.6763L14.8907 14.8156L15.1577 14.2573Z" fill="#F0F0F0"/>
<path d="M12.6735 8.33521L12.9404 8.89355L13.5434 8.75414L13.2734 9.311L13.7583 9.69554L13.1546 9.83161L13.1562 10.4505L12.6735 10.0633L12.1907 10.4505L12.1923 9.83161L11.5886 9.69554L12.0735 9.311L11.8035 8.75414L12.4065 8.89355L12.6735 8.33521Z" fill="#F0F0F0"/>
<path d="M15.1577 4.95093L15.4247 5.50928L16.0277 5.3699L15.7576 5.92676L16.2425 6.31126L15.6388 6.44737L15.6405 7.06623L15.1577 6.67903L14.6749 7.06623L14.6766 6.44737L14.0729 6.31126L14.5577 5.92676L14.2877 5.3699L14.8907 5.50928L15.1577 4.95093Z" fill="#F0F0F0"/>
<path d="M17.3268 7.48853L17.5938 8.04687L18.1967 7.90746L17.9267 8.46432L18.4116 8.84886L17.8079 8.98497L17.8095 9.60379L17.3268 9.21663L16.844 9.60379L16.8456 8.98497L16.2419 8.84886L16.7268 8.46432L16.4568 7.90746L17.0597 8.04687L17.3268 7.48853Z" fill="#F0F0F0"/>
<path d="M15.7757 10.4507L15.9857 11.0971H16.6653L16.1155 11.4966L16.3255 12.1429L15.7757 11.7434L15.2258 12.1429L15.4358 11.4966L14.886 11.0971H15.5656L15.7757 10.4507Z" fill="#F0F0F0"/>
</g>
<defs>
<clipPath id="clip0_1_13281">
<rect width="19.4605" height="19.4605" fill="white" transform="translate(0.588989 0.719971)"/>
</clipPath>
</defs>
</svg>
