<svg width="14" height="14" viewBox="0 0 14 14" fill="none" xmlns="http://www.w3.org/2000/svg">
<path d="M1.73847 7.7518C1.31769 8.51142 1.20007 9.45163 1.1672 9.91789C1.15586 10.0785 1.28518 10.2083 1.44646 10.2083H2.32251M1.73847 7.7518C1.73847 5.91733 2.27247 3.70361 3.34046 2.74821C3.43459 2.664 3.55889 2.625 3.68526 2.625H6.48172C6.81964 2.625 7.15699 2.69331 7.44043 2.87713C8.13961 3.33056 9.1962 4.2465 10.0937 5.65211C10.168 5.76834 10.2788 5.85655 10.4085 5.90357C10.9252 6.09088 11.5004 6.35075 11.8685 6.52394C12.117 6.6409 12.3149 6.84489 12.4091 7.10267C12.6683 7.81258 12.8146 8.60463 12.8332 9.91632C12.8354 10.0774 12.7044 10.2083 12.5431 10.2083H11.6671M1.73847 7.7518C1.94896 7.37176 2.2353 7.03698 2.62484 6.82926M9.33095 10.2083H4.65865" stroke="#00C950" stroke-width="0.583333" stroke-linecap="round" stroke-linejoin="round"/>
<path d="M4.66683 10.2085C4.66683 10.8529 4.1445 11.3752 3.50016 11.3752C2.85583 11.3752 2.3335 10.8529 2.3335 10.2085C2.3335 9.56419 2.85583 9.04187 3.50016 9.04187C4.1445 9.04187 4.66683 9.56419 4.66683 10.2085Z" stroke="#00C950" stroke-width="0.583333"/>
<path d="M11.6668 10.2085C11.6668 10.8529 11.1445 11.3752 10.5002 11.3752C9.85581 11.3752 9.3335 10.8529 9.3335 10.2085C9.3335 9.56419 9.85581 9.04187 10.5002 9.04187C11.1445 9.04187 11.6668 9.56419 11.6668 10.2085Z" stroke="#00C950" stroke-width="0.583333"/>
<path d="M10.2085 5.83333C8.4585 5.25 6.41683 4.95833 4.0835 5.25C4.0835 4.08333 4.66683 2.91667 4.9585 2.625" stroke="#00C950" stroke-width="0.583333" stroke-linecap="round" stroke-linejoin="round"/>
<path d="M4.6665 6.41687H5.24984" stroke="#00C950" stroke-width="0.583333" stroke-linecap="round" stroke-linejoin="round"/>
</svg>
