<svg width="20" height="20" viewBox="0 0 20 20" fill="none" xmlns="http://www.w3.org/2000/svg">
<path d="M6.6665 13.3333L13.9333 12.7277C16.207 12.5383 16.7174 12.0417 16.9694 9.77408L17.4998 5" stroke="#5B738B" stroke-width="1.25" stroke-linecap="round"/>
<path d="M5 5H18.3333" stroke="#5B738B" stroke-width="1.25" stroke-linecap="round"/>
<path d="M5.00016 18.3333C5.92064 18.3333 6.66683 17.5871 6.66683 16.6667C6.66683 15.7462 5.92064 15 5.00016 15C4.07969 15 3.3335 15.7462 3.3335 16.6667C3.3335 17.5871 4.07969 18.3333 5.00016 18.3333Z" stroke="#5B738B" stroke-width="1.25"/>
<path d="M14.1667 18.3333C15.0871 18.3333 15.8333 17.5871 15.8333 16.6667C15.8333 15.7462 15.0871 15 14.1667 15C13.2462 15 12.5 15.7462 12.5 16.6667C12.5 17.5871 13.2462 18.3333 14.1667 18.3333Z" stroke="#5B738B" stroke-width="1.25"/>
<path d="M6.6665 16.6667H12.4998" stroke="#5B738B" stroke-width="1.25" stroke-linecap="round"/>
<path d="M1.6665 1.66667H2.4715C3.25874 1.66667 3.94495 2.18716 4.13589 2.92911L6.61527 12.5637C6.74056 13.0507 6.63334 13.5664 6.32337 13.968L5.52661 15" stroke="#5B738B" stroke-width="1.25" stroke-linecap="round"/>
</svg>
