<svg width="20" height="20" viewBox="0 0 20 20" fill="none" xmlns="http://www.w3.org/2000/svg">
<path d="M6.66675 13.3333L13.9335 12.7277C16.2072 12.5383 16.7177 12.0417 16.9697 9.77408L17.5001 5" stroke="#5B738B" stroke-width="1.25" stroke-linecap="round"/>
<path d="M5 5H18.3333" stroke="#5B738B" stroke-width="1.25" stroke-linecap="round"/>
<path d="M4.99992 18.3333C5.92039 18.3333 6.66659 17.5871 6.66659 16.6667C6.66659 15.7462 5.92039 15 4.99992 15C4.07944 15 3.33325 15.7462 3.33325 16.6667C3.33325 17.5871 4.07944 18.3333 4.99992 18.3333Z" stroke="#5B738B" stroke-width="1.25"/>
<path d="M14.1667 18.3333C15.0871 18.3333 15.8333 17.5871 15.8333 16.6667C15.8333 15.7462 15.0871 15 14.1667 15C13.2462 15 12.5 15.7462 12.5 16.6667C12.5 17.5871 13.2462 18.3333 14.1667 18.3333Z" stroke="#5B738B" stroke-width="1.25"/>
<path d="M6.66675 16.6667H12.5001" stroke="#5B738B" stroke-width="1.25" stroke-linecap="round"/>
<path d="M1.66675 1.66667H2.47175C3.25898 1.66667 3.9452 2.18716 4.13613 2.92911L6.61551 12.5637C6.74081 13.0507 6.63358 13.5664 6.32361 13.968L5.52686 15" stroke="#5B738B" stroke-width="1.25" stroke-linecap="round"/>
</svg>
