<svg width="14" height="14" viewBox="0 0 14 14" fill="none" xmlns="http://www.w3.org/2000/svg">
<path d="M1.4585 7L2.62516 7.58333" stroke="#5B738B" stroke-width="0.583333" stroke-linecap="round" stroke-linejoin="round"/>
<path d="M12.5417 7.29208L11.375 7.58375" stroke="#5B738B" stroke-width="0.583333" stroke-linecap="round" stroke-linejoin="round"/>
<path d="M4.6665 10.2083L4.80981 9.85005C5.02293 9.31729 5.12948 9.05088 5.35169 8.90044C5.5739 8.75 5.86082 8.75 6.43465 8.75H7.56503C8.13885 8.75 8.4258 8.75 8.64799 8.90044C8.87018 9.05088 8.97675 9.31729 9.18985 9.85005L9.33317 10.2083" stroke="#5B738B" stroke-width="0.583333" stroke-linecap="round" stroke-linejoin="round"/>
<path d="M1.1665 9.91708V11.5983C1.1665 11.8192 1.30694 12.0212 1.52927 12.12C1.67353 12.1841 1.81131 12.2504 1.97768 12.2504H2.98033C3.1467 12.2504 3.28448 12.1841 3.42874 12.12C3.65107 12.0212 3.7915 11.8192 3.7915 11.5983V10.5004" stroke="#5B738B" stroke-width="0.583333" stroke-linecap="round" stroke-linejoin="round"/>
<path d="M10.2085 10.5004V11.5983C10.2085 11.8192 10.349 12.0212 10.5713 12.12C10.7155 12.1841 10.8533 12.2504 11.0197 12.2504H12.0223C12.1887 12.2504 12.3265 12.1841 12.4707 12.12C12.693 12.0212 12.8335 11.8192 12.8335 11.5983V9.91708" stroke="#5B738B" stroke-width="0.583333" stroke-linecap="round" stroke-linejoin="round"/>
<path d="M11.6665 4.95875L12.2498 4.66708" stroke="#5B738B" stroke-width="0.583333" stroke-linecap="round" stroke-linejoin="round"/>
<path d="M2.33333 4.95875L1.75 4.66708" stroke="#5B738B" stroke-width="0.583333" stroke-linecap="round" stroke-linejoin="round"/>
<path d="M2.625 5.25L3.25984 3.34547C3.51652 2.57545 3.64485 2.19043 3.95039 1.97022C4.25592 1.75 4.66176 1.75 5.47344 1.75H8.52658C9.33823 1.75 9.74406 1.75 10.0496 1.97022C10.3552 2.19043 10.4835 2.57545 10.7402 3.34547L11.375 5.25" stroke="#5B738B" stroke-width="0.583333" stroke-linejoin="round"/>
<path d="M2.62484 5.25H11.3748C11.9332 5.84121 12.8332 6.66453 12.8332 7.5831V9.60762C12.8332 9.94041 12.6118 10.2205 12.318 10.2594L10.4998 10.5H3.49984L1.68168 10.2594C1.38791 10.2205 1.1665 9.94041 1.1665 9.60762V7.5831C1.1665 6.66453 2.06646 5.84121 2.62484 5.25Z" stroke="#5B738B" stroke-width="0.583333" stroke-linejoin="round"/>
</svg>
