<svg width="14" height="14" viewBox="0 0 14 14" fill="none" xmlns="http://www.w3.org/2000/svg">
<path d="M5.8335 5.25V6.41667" stroke="#6C32A9" stroke-width="0.583333" stroke-linecap="round"/>
<path d="M9.91667 11.6667C10.561 11.6667 11.0833 11.1443 11.0833 10.5C11.0833 9.85568 10.561 9.33334 9.91667 9.33334C9.27233 9.33334 8.75 9.85568 8.75 10.5C8.75 11.1443 9.27233 11.6667 9.91667 11.6667Z" stroke="#6C32A9" stroke-width="0.583333"/>
<path d="M4.08317 11.6667C4.7275 11.6667 5.24984 11.1443 5.24984 10.5C5.24984 9.85568 4.7275 9.33334 4.08317 9.33334C3.43884 9.33334 2.9165 9.85568 2.9165 10.5C2.9165 11.1443 3.43884 11.6667 4.08317 11.6667Z" stroke="#6C32A9" stroke-width="0.583333"/>
<path d="M2.9165 10.4839C2.27675 10.4521 1.87765 10.3569 1.59364 10.0729C1.1665 9.64572 1.1665 8.95826 1.1665 7.58334V5.25001C1.1665 3.87508 1.1665 3.18762 1.59364 2.76048C2.02078 2.33334 2.70824 2.33334 4.08317 2.33334H6.00817C6.65964 2.33334 6.98537 2.33334 7.24898 2.41899C7.78174 2.5921 8.1994 3.0098 8.37254 3.54256C8.45817 3.80617 8.45817 4.13189 8.45817 4.78334C8.45817 5.21764 8.45817 5.43479 8.51528 5.61053C8.63066 5.9657 8.90915 6.24419 9.26434 6.35957C9.44004 6.41668 9.65721 6.41668 10.0915 6.41668H12.8332V7.58334C12.8332 8.95826 12.8332 9.64572 12.4061 10.0729C12.122 10.3569 11.7229 10.4521 11.0832 10.4839M5.24984 10.5H8.74984" stroke="#6C32A9" stroke-width="0.583333" stroke-linecap="round" stroke-linejoin="round"/>
<path d="M8.4585 3.5H9.52086C10.3698 3.5 10.7943 3.5 11.1397 3.70633C11.4852 3.91266 11.6864 4.2864 12.0889 5.03388L12.8335 6.41667" stroke="#6C32A9" stroke-width="0.583333" stroke-linecap="round" stroke-linejoin="round"/>
<path d="M3.5 5.25V6.41667" stroke="#6C32A9" stroke-width="0.583333" stroke-linecap="round"/>
</svg>
