<svg width="14" height="14" viewBox="0 0 14 14" fill="none" xmlns="http://www.w3.org/2000/svg">
<path d="M5.25423 9.91667C5.25423 10.561 4.7319 11.0833 4.08757 11.0833C3.44323 11.0833 2.9209 10.561 2.9209 9.91667C2.9209 9.27232 3.44323 8.75 4.08757 8.75C4.7319 8.75 5.25423 9.27232 5.25423 9.91667Z" stroke="#E76500" stroke-width="0.583333"/>
<path d="M11.0872 9.91667C11.0872 10.561 10.5649 11.0833 9.92057 11.0833C9.27622 11.0833 8.75391 10.561 8.75391 9.91667C8.75391 9.27232 9.27622 8.75 9.92057 8.75C10.5649 8.75 11.0872 9.27232 11.0872 9.91667Z" stroke="#E76500" stroke-width="0.583333"/>
<path d="M1.17057 5.83332H10.5039M1.17057 5.83332C1.17057 6.28832 1.15891 7.60666 1.1729 8.90166C1.19389 9.32166 1.26383 9.67166 2.92157 9.91666M1.17057 5.83332C1.29648 4.81832 1.84439 3.61666 2.12417 3.16166M5.2539 5.83332V2.91666M8.74812 9.91666H5.25079M1.1799 2.91666H7.13934C7.13934 2.91666 7.45411 2.91666 7.73388 2.94466C8.25853 2.99366 8.69918 3.23166 9.13983 3.82666C9.60643 4.45666 9.96518 5.25466 10.4408 5.68166C11.2313 6.39122 12.7351 6.17166 12.819 7.67666C12.84 8.44666 12.84 9.28666 12.805 9.42666C12.7489 9.8389 12.431 9.90622 12.0356 9.91666C11.6925 9.92576 11.2789 9.90038 11.0774 9.91666" stroke="#E76500" stroke-width="0.583333" stroke-linecap="round"/>
</svg>
