<svg width="171" height="25" viewBox="0 0 171 25" fill="none" xmlns="http://www.w3.org/2000/svg">
<path d="M14.9625 3.70581H17.8766L11.5116 10.9994L19 20.9246H13.1373L8.54525 14.9039L3.29056 20.9246H0.37525L7.18319 13.1227L0 3.70581H6.01231L10.1626 9.2075L14.9625 3.70581ZM13.9412 19.1766H15.5563L5.13356 5.36237H3.40219L13.9412 19.1766Z" fill="#223548"/>
<path d="M43.1947 11.6152C40.6454 11.613 38.5773 13.6776 38.5747 16.2264C38.5725 18.7757 40.6371 20.8442 43.186 20.8464C45.7283 20.8486 47.7937 18.7946 47.806 16.2527V3.78394C47.806 6.33325 49.8723 8.39956 52.4216 8.39956" stroke="#223548" stroke-width="1.68" stroke-linecap="round" stroke-linejoin="round"/>
<path d="M45.4268 16.2579L42.2349 14.4152V18.1005L45.4268 16.2579Z" stroke="#223548" stroke-width="1.05" stroke-linecap="round" stroke-linejoin="round"/>
<g clip-path="url(#clip0_18_6470)">
<path d="M72.5217 12.1677C72.5211 14.2371 73.0618 16.2578 74.09 18.0388L72.4233 24.124L78.6508 22.4912C80.3733 23.4288 82.3031 23.9202 84.2643 23.9203H84.2694C90.7435 23.9203 96.0135 18.6522 96.0163 12.177C96.0175 9.03926 94.7967 6.08877 92.5786 3.86898C90.3609 1.64938 87.4115 0.426359 84.2689 0.424927C77.7941 0.424927 72.5244 5.69277 72.5218 12.1677" fill="url(#paint0_linear_18_6470)"/>
<path d="M72.1021 12.164C72.1015 14.3079 72.6616 16.4008 73.7264 18.2456L72 24.549L78.4508 22.8576C80.2282 23.8267 82.2293 24.3376 84.2656 24.3384H84.2709C90.9772 24.3384 96.4366 18.8807 96.4395 12.1737C96.4406 8.92326 95.1759 5.86671 92.8785 3.5674C90.581 1.26837 87.526 0.00133653 84.2709 0C77.5634 0 72.1048 5.45687 72.1021 12.164ZM75.9438 17.9279L75.703 17.5455C74.6904 15.9356 74.156 14.0751 74.1568 12.1647C74.1589 6.58996 78.6958 2.05444 84.2747 2.05444C86.9764 2.05559 89.5154 3.10877 91.4252 5.01963C93.3348 6.93069 94.3856 9.47105 94.3849 12.1729C94.3824 17.7477 89.8454 22.2838 84.2709 22.2838H84.2669C82.4518 22.2829 80.6716 21.7954 79.1191 20.8743L78.7497 20.6552L74.9217 21.6588L75.9438 17.9279Z" fill="url(#paint1_linear_18_6470)"/>
<path d="M81.2292 7.07869C81.0014 6.57243 80.7617 6.56222 80.5451 6.55334C80.3677 6.5457 80.1649 6.54627 79.9624 6.54627C79.7596 6.54627 79.4301 6.62255 79.1517 6.92661C78.8729 7.23096 78.0874 7.96644 78.0874 9.4623C78.0874 10.9582 79.177 12.4039 79.3289 12.607C79.4809 12.8096 81.4323 15.9776 84.5227 17.1963C87.0911 18.2091 87.6138 18.0077 88.1713 17.9569C88.7288 17.9063 89.9702 17.2216 90.2235 16.5117C90.477 15.8018 90.477 15.1933 90.401 15.0661C90.325 14.9394 90.1222 14.8633 89.8181 14.7113C89.5141 14.5594 88.0192 13.8237 87.7405 13.7222C87.4617 13.6208 87.2591 13.5702 87.0563 13.8747C86.8535 14.1786 86.2713 14.8633 86.0938 15.0661C85.9165 15.2693 85.7391 15.2946 85.4351 15.1426C85.1308 14.99 84.1516 14.6693 82.9899 13.6336C82.086 12.8277 81.4758 11.8325 81.2984 11.528C81.121 11.224 81.2794 11.0593 81.4319 10.9078C81.5685 10.7715 81.736 10.5527 81.8882 10.3752C82.0398 10.1977 82.0904 10.071 82.1918 9.86823C82.2933 9.66526 82.2425 9.4877 82.1666 9.33562C82.0904 9.18354 81.4996 7.67985 81.2292 7.07869Z" fill="white"/>
</g>
<g clip-path="url(#clip1_18_6470)">
<path d="M117.844 21.1908V12.003L114.995 9.39628L112.439 7.94971V19.5694C112.439 20.4665 113.166 21.1908 114.061 21.1908H117.844Z" fill="#4285F4"/>
<path d="M130.815 21.1907H134.598C135.495 21.1907 136.219 20.4637 136.219 19.5693V7.94971L133.325 9.60658L130.815 12.003V21.1907Z" fill="#34A853"/>
<path d="M117.844 12.003L117.457 8.41307L117.844 4.97717L124.33 9.84125L130.815 4.97717L131.249 8.22757L130.815 12.003L124.33 16.8671L117.844 12.003Z" fill="#EA4335"/>
<path d="M130.815 4.97723V12.003L136.219 7.94971V5.78788C136.219 3.78286 133.931 2.63985 132.328 3.84231L130.815 4.97723Z" fill="#FBBC04"/>
<path d="M112.439 7.94975L114.925 9.81405L117.844 12.0031V4.97728L116.331 3.84235C114.725 2.6398 112.439 3.7829 112.439 5.78783V7.94975Z" fill="#C5221F"/>
</g>
<g clip-path="url(#clip2_18_6470)">
<path d="M166.598 2.92529H156.621C154.19 2.92529 152.219 4.89592 152.219 7.32681V17.3036C152.219 19.7345 154.19 21.7051 156.621 21.7051H166.598C169.028 21.7051 170.999 19.7345 170.999 17.3036V7.32681C170.999 4.89592 169.028 2.92529 166.598 2.92529Z" fill="url(#paint2_radial_18_6470)"/>
<path d="M166.598 2.92529H156.621C154.19 2.92529 152.219 4.89592 152.219 7.32681V17.3036C152.219 19.7345 154.19 21.7051 156.621 21.7051H166.598C169.028 21.7051 170.999 19.7345 170.999 17.3036V7.32681C170.999 4.89592 169.028 2.92529 166.598 2.92529Z" fill="url(#paint3_radial_18_6470)"/>
<path d="M161.61 4.97931C159.618 4.97931 159.368 4.98804 158.585 5.02362C157.804 5.05942 157.271 5.18303 156.805 5.36444C156.322 5.5518 155.913 5.80247 155.505 6.21034C155.097 6.61814 154.846 7.02741 154.658 7.50974C154.476 7.9763 154.353 8.50962 154.318 9.29022C154.283 10.0727 154.273 10.3229 154.273 12.3152C154.273 14.3076 154.282 14.5569 154.318 15.3393C154.354 16.1203 154.477 16.6534 154.659 17.1198C154.846 17.6023 155.097 18.0116 155.505 18.4193C155.912 18.8274 156.322 19.0787 156.804 19.266C157.271 19.4474 157.804 19.5711 158.584 19.6069C159.367 19.6424 159.617 19.6512 161.609 19.6512C163.602 19.6512 163.851 19.6424 164.633 19.6069C165.414 19.5711 165.948 19.4474 166.415 19.266C166.897 19.0787 167.306 18.8274 167.713 18.4193C168.121 18.0116 168.372 17.6023 168.56 17.12C168.74 16.6534 168.864 16.1201 168.901 15.3394C168.936 14.557 168.945 14.3076 168.945 12.3152C168.945 10.3229 168.936 10.0729 168.901 9.29037C168.864 8.5094 168.74 7.97637 168.56 7.50996C168.372 7.02741 168.121 6.61814 167.713 6.21034C167.305 5.80232 166.897 5.55165 166.414 5.36451C165.947 5.18303 165.413 5.05934 164.632 5.02362C163.85 4.98804 163.601 4.97931 161.608 4.97931H161.61ZM160.952 6.3013C161.147 6.30101 161.365 6.3013 161.61 6.3013C163.569 6.3013 163.801 6.30835 164.574 6.34348C165.29 6.3762 165.678 6.4957 165.936 6.59613C166.279 6.72906 166.523 6.88802 166.779 7.14485C167.036 7.40161 167.195 7.64611 167.328 7.98848C167.429 8.2467 167.548 8.63491 167.581 9.35016C167.616 10.1235 167.624 10.3558 167.624 12.3135C167.624 14.2713 167.616 14.5037 167.581 15.2769C167.548 15.9922 167.429 16.3804 167.328 16.6387C167.195 16.9811 167.036 17.2248 166.779 17.4814C166.523 17.7382 166.279 17.8971 165.936 18.0301C165.678 18.131 165.29 18.2502 164.574 18.2829C163.801 18.318 163.569 18.3256 161.61 18.3256C159.651 18.3256 159.419 18.318 158.646 18.2829C157.93 18.2499 157.542 18.1304 157.283 18.0299C156.941 17.8969 156.697 17.738 156.44 17.4813C156.183 17.2245 156.024 16.9806 155.891 16.6381C155.79 16.3798 155.671 15.9916 155.638 15.2764C155.603 14.503 155.596 14.2708 155.596 12.3117C155.596 10.3527 155.603 10.1217 155.638 9.34832C155.671 8.63308 155.79 8.24486 155.891 7.98628C156.024 7.64391 156.183 7.39941 156.44 7.14265C156.697 6.8859 156.941 6.72693 157.283 6.59371C157.542 6.49284 157.93 6.37363 158.646 6.34077C159.322 6.31018 159.585 6.30101 160.952 6.29947V6.3013ZM165.526 7.51935C165.04 7.51935 164.646 7.91328 164.646 8.39936C164.646 8.88536 165.04 9.27966 165.526 9.27966C166.012 9.27966 166.406 8.88536 166.406 8.39936C166.406 7.91336 166.012 7.51905 165.526 7.51905V7.51935ZM161.61 8.54791C159.53 8.54791 157.843 10.2347 157.843 12.3152C157.843 14.3958 159.53 16.0818 161.61 16.0818C163.69 16.0818 165.377 14.3958 165.377 12.3152C165.377 10.2348 163.69 8.54791 161.61 8.54791H161.61ZM161.61 9.8699C162.96 9.8699 164.055 10.9646 164.055 12.3152C164.055 13.6657 162.96 14.7606 161.61 14.7606C160.259 14.7606 159.165 13.6657 159.165 12.3152C159.165 10.9646 160.259 9.8699 161.61 9.8699Z" fill="white"/>
</g>
<defs>
<linearGradient id="paint0_linear_18_6470" x1="1252.07" y1="2370.34" x2="1252.07" y2="0.424927" gradientUnits="userSpaceOnUse">
<stop stop-color="#1FAF38"/>
<stop offset="1" stop-color="#60D669"/>
</linearGradient>
<linearGradient id="paint1_linear_18_6470" x1="1293.97" y1="2454.9" x2="1293.97" y2="0" gradientUnits="userSpaceOnUse">
<stop stop-color="#F9F9F9"/>
<stop offset="1" stop-color="white"/>
</linearGradient>
<radialGradient id="paint2_radial_18_6470" cx="0" cy="0" r="1" gradientUnits="userSpaceOnUse" gradientTransform="translate(157.208 23.1515) rotate(-90) scale(18.6122 17.3108)">
<stop stop-color="#FFDD55"/>
<stop offset="0.1" stop-color="#FFDD55"/>
<stop offset="0.5" stop-color="#FF543E"/>
<stop offset="1" stop-color="#C837AB"/>
</radialGradient>
<radialGradient id="paint3_radial_18_6470" cx="0" cy="0" r="1" gradientUnits="userSpaceOnUse" gradientTransform="translate(149.074 4.2781) rotate(78.681) scale(8.31974 34.2942)">
<stop stop-color="#3771C8"/>
<stop offset="0.128" stop-color="#3771C8"/>
<stop offset="1" stop-color="#6600FF" stop-opacity="0"/>
</radialGradient>
<clipPath id="clip0_18_6470">
<rect width="24.4395" height="24.6304" fill="white" transform="translate(72)"/>
</clipPath>
<clipPath id="clip1_18_6470">
<rect width="23.7798" height="17.9277" fill="white" transform="translate(112.439 3.35132)"/>
</clipPath>
<clipPath id="clip2_18_6470">
<rect width="18.7798" height="18.7798" fill="white" transform="translate(152.219 2.92529)"/>
</clipPath>
</defs>
</svg>
