<svg width="171" height="25" viewBox="0 0 171 25" fill="none" xmlns="http://www.w3.org/2000/svg">
<path d="M14.9625 3.70581H17.8766L11.5116 10.9994L19 20.9246H13.1373L8.54525 14.9039L3.29056 20.9246H0.37525L7.18319 13.1227L0 3.70581H6.01231L10.1626 9.2075L14.9625 3.70581ZM13.9412 19.1766H15.5563L5.13356 5.36237H3.40219L13.9412 19.1766Z" fill="#223548"/>
<path d="M43.1945 11.6152C40.6452 11.613 38.5771 13.6776 38.5745 16.2264C38.5723 18.7757 40.6368 20.8442 43.1857 20.8464C45.728 20.8486 47.7935 18.7946 47.8057 16.2527V3.78394C47.8057 6.33325 49.872 8.39956 52.4213 8.39956" stroke="#223548" stroke-width="1.68" stroke-linecap="round" stroke-linejoin="round"/>
<path d="M45.4265 16.2579L42.2346 14.4152V18.1005L45.4265 16.2579Z" stroke="#223548" stroke-width="1.05" stroke-linecap="round" stroke-linejoin="round"/>
<g clip-path="url(#clip0_14_1862)">
<path d="M72.5214 12.1677C72.5209 14.2371 73.0616 16.2578 74.0898 18.0388L72.4231 24.124L78.6506 22.4912C80.373 23.4288 82.3029 23.9202 84.264 23.9203H84.2692C90.7432 23.9203 96.0133 18.6522 96.016 12.177C96.0173 9.03926 94.7965 6.08877 92.5784 3.86898C90.3607 1.64938 87.4113 0.426359 84.2687 0.424927C77.7939 0.424927 72.5242 5.69277 72.5215 12.1677" fill="url(#paint0_linear_14_1862)"/>
<path d="M72.1021 12.164C72.1015 14.3079 72.6616 16.4008 73.7264 18.2456L72 24.549L78.4508 22.8576C80.2282 23.8267 82.2293 24.3376 84.2656 24.3384H84.2709C90.9772 24.3384 96.4366 18.8807 96.4395 12.1737C96.4406 8.92326 95.1759 5.86671 92.8785 3.5674C90.581 1.26837 87.526 0.00133653 84.2709 0C77.5634 0 72.1048 5.45687 72.1021 12.164ZM75.9438 17.9279L75.703 17.5455C74.6904 15.9356 74.156 14.0751 74.1568 12.1647C74.1589 6.58996 78.6958 2.05444 84.2747 2.05444C86.9764 2.05559 89.5154 3.10877 91.4252 5.01963C93.3348 6.93069 94.3856 9.47105 94.3849 12.1729C94.3824 17.7477 89.8454 22.2838 84.2709 22.2838H84.2669C82.4518 22.2829 80.6716 21.7954 79.1191 20.8743L78.7497 20.6552L74.9217 21.6588L75.9438 17.9279Z" fill="url(#paint1_linear_14_1862)"/>
<path d="M81.2295 7.07869C81.0017 6.57243 80.762 6.56222 80.5453 6.55334C80.368 6.5457 80.1652 6.54627 79.9626 6.54627C79.7598 6.54627 79.4304 6.62255 79.1519 6.92661C78.8731 7.23096 78.0876 7.96644 78.0876 9.4623C78.0876 10.9582 79.1772 12.4039 79.3291 12.607C79.4812 12.8096 81.4325 15.9776 84.523 17.1963C87.0914 18.2091 87.6141 18.0077 88.1715 17.9569C88.729 17.9063 89.9705 17.2216 90.2237 16.5117C90.4772 15.8018 90.4772 15.1933 90.4012 15.0661C90.3252 14.9394 90.1225 14.8633 89.8184 14.7113C89.5143 14.5594 88.0194 13.8237 87.7408 13.7222C87.462 13.6208 87.2593 13.5702 87.0565 13.8747C86.8538 14.1786 86.2715 14.8633 86.094 15.0661C85.9168 15.2693 85.7393 15.2946 85.4353 15.1426C85.1311 14.99 84.1519 14.6693 82.9901 13.6336C82.0863 12.8277 81.476 11.8325 81.2987 11.528C81.1213 11.224 81.2797 11.0593 81.4321 10.9078C81.5687 10.7715 81.7363 10.5527 81.8885 10.3752C82.0401 10.1977 82.0907 10.071 82.192 9.86823C82.2935 9.66526 82.2427 9.4877 82.1668 9.33562C82.0907 9.18354 81.4998 7.67985 81.2295 7.07869Z" fill="white"/>
</g>
<g clip-path="url(#clip1_14_1862)">
<path d="M117.844 21.1908V12.003L114.995 9.39628L112.439 7.94971V19.5694C112.439 20.4665 113.166 21.1908 114.061 21.1908H117.844Z" fill="#4285F4"/>
<path d="M130.815 21.1907H134.598C135.495 21.1907 136.219 20.4637 136.219 19.5693V7.94971L133.325 9.60658L130.815 12.003V21.1907Z" fill="#34A853"/>
<path d="M117.844 12.003L117.457 8.41307L117.844 4.97717L124.33 9.84125L130.815 4.97717L131.249 8.22757L130.815 12.003L124.33 16.8671L117.844 12.003Z" fill="#EA4335"/>
<path d="M130.815 4.97723V12.003L136.219 7.94971V5.78788C136.219 3.78286 133.93 2.63985 132.328 3.84231L130.815 4.97723Z" fill="#FBBC04"/>
<path d="M112.439 7.94975L114.925 9.81405L117.844 12.0031V4.97728L116.331 3.84235C114.725 2.6398 112.439 3.7829 112.439 5.78783V7.94975Z" fill="#C5221F"/>
</g>
<g clip-path="url(#clip2_14_1862)">
<path d="M166.598 2.92529H156.621C154.19 2.92529 152.219 4.89592 152.219 7.32681V17.3036C152.219 19.7345 154.19 21.7051 156.621 21.7051H166.598C169.028 21.7051 170.999 19.7345 170.999 17.3036V7.32681C170.999 4.89592 169.028 2.92529 166.598 2.92529Z" fill="url(#paint2_radial_14_1862)"/>
<path d="M166.598 2.92529H156.621C154.19 2.92529 152.219 4.89592 152.219 7.32681V17.3036C152.219 19.7345 154.19 21.7051 156.621 21.7051H166.598C169.028 21.7051 170.999 19.7345 170.999 17.3036V7.32681C170.999 4.89592 169.028 2.92529 166.598 2.92529Z" fill="url(#paint3_radial_14_1862)"/>
<path d="M161.61 4.97937C159.617 4.97937 159.367 4.9881 158.585 5.02368C157.804 5.05948 157.271 5.18309 156.804 5.3645C156.322 5.55186 155.913 5.80253 155.505 6.2104C155.097 6.6182 154.846 7.02747 154.658 7.5098C154.476 7.97636 154.352 8.50968 154.317 9.29028C154.282 10.0728 154.273 10.323 154.273 12.3153C154.273 14.3076 154.282 14.5569 154.318 15.3394C154.353 16.1203 154.477 16.6534 154.658 17.1198C154.846 17.6024 155.096 18.0117 155.504 18.4194C155.912 18.8275 156.321 19.0787 156.803 19.2661C157.27 19.4475 157.803 19.5711 158.584 19.6069C159.367 19.6425 159.617 19.6512 161.609 19.6512C163.601 19.6512 163.851 19.6425 164.633 19.6069C165.414 19.5711 165.948 19.4475 166.414 19.2661C166.897 19.0787 167.305 18.8275 167.713 18.4194C168.121 18.0117 168.372 17.6024 168.56 17.1201C168.74 16.6534 168.864 16.1202 168.901 15.3395C168.936 14.5571 168.945 14.3076 168.945 12.3153C168.945 10.323 168.936 10.0729 168.901 9.29043C168.864 8.50946 168.74 7.97643 168.56 7.51002C168.372 7.02747 168.121 6.6182 167.713 6.2104C167.305 5.80238 166.897 5.55171 166.414 5.36458C165.946 5.18309 165.413 5.0594 164.632 5.02368C163.849 4.9881 163.6 4.97937 161.607 4.97937H161.61ZM160.952 6.30136C161.147 6.30107 161.365 6.30136 161.61 6.30136C163.568 6.30136 163.801 6.30841 164.574 6.34355C165.289 6.37626 165.678 6.49576 165.936 6.59619C166.278 6.72912 166.523 6.88809 166.779 7.14491C167.036 7.40167 167.195 7.64617 167.328 7.98854C167.429 8.24676 167.548 8.63497 167.581 9.35022C167.616 10.1236 167.623 10.3558 167.623 12.3136C167.623 14.2714 167.616 14.5037 167.581 15.277C167.548 15.9922 167.429 16.3805 167.328 16.6388C167.195 16.9811 167.036 17.2249 166.779 17.4815C166.522 17.7383 166.279 17.8971 165.936 18.0301C165.678 18.131 165.289 18.2502 164.574 18.2829C163.801 18.3181 163.568 18.3257 161.61 18.3257C159.651 18.3257 159.419 18.3181 158.645 18.2829C157.93 18.2499 157.542 18.1304 157.283 18.03C156.941 17.897 156.696 17.7381 156.44 17.4814C156.183 17.2246 156.024 16.9807 155.891 16.6382C155.79 16.3799 155.671 15.9917 155.638 15.2764C155.603 14.5031 155.596 14.2708 155.596 12.3118C155.596 10.3527 155.603 10.1217 155.638 9.34838C155.671 8.63314 155.79 8.24493 155.891 7.98634C156.024 7.64397 156.183 7.39947 156.44 7.14271C156.696 6.88596 156.941 6.72699 157.283 6.59377C157.542 6.4929 157.93 6.3737 158.645 6.34083C159.322 6.31024 159.584 6.30107 160.952 6.29953V6.30136ZM165.526 7.51941C165.04 7.51941 164.645 7.91334 164.645 8.39942C164.645 8.88542 165.04 9.27972 165.526 9.27972C166.012 9.27972 166.406 8.88542 166.406 8.39942C166.406 7.91342 166.012 7.51912 165.526 7.51912V7.51941ZM161.61 8.54797C159.529 8.54797 157.842 10.2348 157.842 12.3153C157.842 14.3958 159.529 16.0818 161.61 16.0818C163.69 16.0818 165.376 14.3958 165.376 12.3153C165.376 10.2348 163.69 8.54797 161.61 8.54797H161.61ZM161.61 9.86996C162.96 9.86996 164.055 10.9647 164.055 12.3153C164.055 13.6658 162.96 14.7606 161.61 14.7606C160.259 14.7606 159.164 13.6658 159.164 12.3153C159.164 10.9647 160.259 9.86996 161.61 9.86996Z" fill="white"/>
</g>
<defs>
<linearGradient id="paint0_linear_14_1862" x1="1252.07" y1="2370.34" x2="1252.07" y2="0.424927" gradientUnits="userSpaceOnUse">
<stop stop-color="#1FAF38"/>
<stop offset="1" stop-color="#60D669"/>
</linearGradient>
<linearGradient id="paint1_linear_14_1862" x1="1293.97" y1="2454.9" x2="1293.97" y2="0" gradientUnits="userSpaceOnUse">
<stop stop-color="#F9F9F9"/>
<stop offset="1" stop-color="white"/>
</linearGradient>
<radialGradient id="paint2_radial_14_1862" cx="0" cy="0" r="1" gradientUnits="userSpaceOnUse" gradientTransform="translate(157.208 23.1515) rotate(-90) scale(18.6122 17.3108)">
<stop stop-color="#FFDD55"/>
<stop offset="0.1" stop-color="#FFDD55"/>
<stop offset="0.5" stop-color="#FF543E"/>
<stop offset="1" stop-color="#C837AB"/>
</radialGradient>
<radialGradient id="paint3_radial_14_1862" cx="0" cy="0" r="1" gradientUnits="userSpaceOnUse" gradientTransform="translate(149.074 4.2781) rotate(78.681) scale(8.31974 34.2942)">
<stop stop-color="#3771C8"/>
<stop offset="0.128" stop-color="#3771C8"/>
<stop offset="1" stop-color="#6600FF" stop-opacity="0"/>
</radialGradient>
<clipPath id="clip0_14_1862">
<rect width="24.4395" height="24.6304" fill="white" transform="translate(72)"/>
</clipPath>
<clipPath id="clip1_14_1862">
<rect width="23.7798" height="17.9277" fill="white" transform="translate(112.439 3.35132)"/>
</clipPath>
<clipPath id="clip2_14_1862">
<rect width="18.7798" height="18.7798" fill="white" transform="translate(152.219 2.92529)"/>
</clipPath>
</defs>
</svg>
