<svg width="18" height="19" viewBox="0 0 18 19" fill="none" xmlns="http://www.w3.org/2000/svg">
<path d="M7 12.7977C7 13.6261 6.32843 14.2977 5.5 14.2977C4.67157 14.2977 4 13.6261 4 12.7977C4 11.9692 4.67157 11.2977 5.5 11.2977C6.32843 11.2977 7 11.9692 7 12.7977Z" stroke="#8396A8" stroke-width="1.125"/>
<path d="M14 12.7977C14 13.6261 13.3284 14.2977 12.5 14.2977C11.6716 14.2977 11 13.6261 11 12.7977C11 11.9692 11.6716 11.2977 12.5 11.2977C13.3284 11.2977 14 11.9692 14 12.7977Z" stroke="#8396A8" stroke-width="1.125"/>
<path d="M2.00547 8.04658H13.2048M2.00547 8.04658C2.00547 8.63141 1.99147 10.3259 2.00827 11.9904C2.03344 12.5303 2.11738 12.9801 4.10654 13.2951M2.00547 8.04658C2.15654 6.74196 2.814 5.19741 3.14972 4.61258M6.90518 8.04658V4.29767M11.098 13.2951H6.90145M2.01666 4.29767H9.16758C9.16758 4.29767 9.54528 4.29767 9.88098 4.33366C10.5105 4.39664 11.0393 4.70255 11.568 5.46733C12.1279 6.27709 12.5584 7.3028 13.1291 7.85164C14.0776 8.76367 15.8821 8.48145 15.9828 10.4159C16.008 11.4056 16.008 12.4853 15.966 12.6652C15.8986 13.1951 15.5172 13.2816 15.0428 13.2951C14.631 13.3068 14.1347 13.2741 13.8929 13.2951" stroke="#8396A8" stroke-width="1.125" stroke-linecap="round"/>
</svg>
