<svg width="20" height="20" viewBox="0 0 20 20" fill="none" xmlns="http://www.w3.org/2000/svg">
<path d="M4.44434 8.33334H12.2221" stroke="#5A66C1" stroke-width="1.1024" stroke-linecap="round" stroke-linejoin="round"/>
<path d="M8.88982 10.7223L7.88303 12.0312C7.77513 12.1715 7.85246 12.3733 8.0284 12.4107L9.08301 12.6345C9.27065 12.6743 9.34215 12.8977 9.21099 13.0342L7.96186 14.3334" stroke="#5A66C1" stroke-width="1.08333" stroke-linecap="round" stroke-linejoin="round"/>
<path d="M4.22217 16.5V7.83336C4.22217 5.79061 4.22217 4.76923 4.85677 4.13463C5.49137 3.50003 6.51275 3.50003 8.5555 3.50003C10.5982 3.50003 11.6196 3.50003 12.2542 4.13463C12.8888 4.76923 12.8888 5.79061 12.8888 7.83336V16.5H4.22217Z" stroke="#5A66C1" stroke-width="1.08333"/>
<path d="M2.77783 16.5H14.3334" stroke="#5A66C1" stroke-width="1.08333" stroke-linecap="round" stroke-linejoin="round"/>
<path d="M12.8889 11.4444H14.0926C14.3165 11.4444 14.4285 11.4444 14.5203 11.469C14.7695 11.5358 14.9642 11.7305 15.031 11.9797C15.0556 12.0715 15.0556 12.1835 15.0556 12.4073V13.25C15.0556 13.8482 15.5406 14.3333 16.1389 14.3333C16.7372 14.3333 17.2222 13.8482 17.2222 13.25V8.70798C17.2222 8.27383 17.2222 8.05676 17.1603 7.85206C17.0983 7.64736 16.9778 7.46674 16.7371 7.10551L16.1784 6.26755C15.9282 5.89213 15.5068 5.66663 15.0556 5.66663" stroke="#5A66C1" stroke-width="1.08333" stroke-linecap="round" stroke-linejoin="round"/>
</svg>
