<svg width="20" height="20" viewBox="0 0 20 20" fill="none" xmlns="http://www.w3.org/2000/svg">
<path d="M16.6241 13.5817C16.138 10.6567 14.6245 8.47858 13.3088 7.19923C12.9259 6.82695 12.7345 6.64081 12.3116 6.46854C11.8887 6.29626 11.5253 6.29626 10.7983 6.29626H9.20155C8.47459 6.29626 8.1111 6.29626 7.68823 6.46854C7.26535 6.64081 7.07392 6.82695 6.69106 7.19923C5.37534 8.47858 3.86185 10.6567 3.37567 13.5817C3.01394 15.758 5.0216 17.4074 7.26534 17.4074H12.7345C14.9782 17.4074 16.9859 15.758 16.6241 13.5817Z" stroke="#5A66C1" stroke-width="1.11111" stroke-linecap="round" stroke-linejoin="round"/>
<path d="M6.48648 4.40215C6.33365 4.17972 6.11215 3.8778 6.56971 3.80895C7.04003 3.73818 7.52839 4.06013 8.00642 4.05352C8.43888 4.04753 8.6592 3.85572 8.89557 3.58187C9.14446 3.29349 9.52987 2.59262 10.0001 2.59262C10.4703 2.59262 10.8557 3.29349 11.1046 3.58187C11.341 3.85572 11.5613 4.04753 11.9937 4.05352C12.4718 4.06013 12.9602 3.73818 13.4305 3.80895C13.888 3.8778 13.6665 4.17972 13.5137 4.40215L12.8227 5.40791C12.5271 5.83815 12.3793 6.05327 12.07 6.1748C11.7608 6.29632 11.3611 6.29632 10.5617 6.29632H9.43846C8.63913 6.29632 8.23942 6.29632 7.93013 6.1748C7.62085 6.05327 7.47305 5.83815 7.17746 5.40791L6.48648 4.40215Z" stroke="#5A66C1" stroke-width="1.11111" stroke-linejoin="round"/>
<path d="M11.2049 10.6805C11.0448 10.0893 10.2296 9.55579 9.2512 9.9549C8.27275 10.3539 8.11732 11.638 9.59735 11.7745C10.2662 11.8361 10.7024 11.7029 11.1016 12.0797C11.501 12.4565 11.5751 13.5043 10.5544 13.7867C9.53364 14.069 8.5229 13.6279 8.41284 13.0013M9.88268 9.25386V9.81712M9.88268 13.8736V14.439" stroke="#5A66C1" stroke-width="1.11111" stroke-linecap="round" stroke-linejoin="round"/>
</svg>
