<svg width="18" height="19" viewBox="0 0 18 19" fill="none" xmlns="http://www.w3.org/2000/svg">
<path d="M2.25 6.67267H11.25C13.3713 6.67267 14.432 6.67267 15.091 7.33168C15.75 7.99072 15.75 9.05137 15.75 11.1727V11.9227C15.75 14.044 15.75 15.1046 15.091 15.7636C14.432 16.4227 13.3713 16.4227 11.25 16.4227H6.75C4.62868 16.4227 3.56802 16.4227 2.90901 15.7636C2.25 15.1046 2.25 14.044 2.25 11.9227V6.67267Z" stroke="#8396A8" stroke-width="1.125" stroke-linecap="round" stroke-linejoin="round"/>
<path d="M11.25 6.67142V3.38039C11.25 2.71339 10.7093 2.17267 10.0423 2.17267C9.8502 2.17267 9.6609 2.21848 9.49005 2.3063L2.82173 5.73462C2.47068 5.9151 2.25 6.27669 2.25 6.67142" stroke="#8396A8" stroke-width="1.125" stroke-linecap="round" stroke-linejoin="round"/>
<path d="M13.125 11.9227C13.3321 11.9227 13.5 11.7547 13.5 11.5477C13.5 11.3406 13.3321 11.1727 13.125 11.1727M13.125 11.9227C12.9179 11.9227 12.75 11.7547 12.75 11.5477C12.75 11.3406 12.9179 11.1727 13.125 11.1727M13.125 11.9227V11.1727" stroke="#8396A8" stroke-width="1.125" stroke-linecap="round" stroke-linejoin="round"/>
</svg>
