<svg width="18" height="18" viewBox="0 0 18 18" fill="none" xmlns="http://www.w3.org/2000/svg">
<path d="M13.6666 8.00001V7.66664C13.6666 5.15252 13.6666 3.89542 12.8856 3.11437C12.1045 2.33334 10.8474 2.33334 8.33329 2.33334C5.81922 2.33334 4.56213 2.33338 3.78109 3.1144C3.00006 3.89544 3.00005 5.15249 3.00003 7.6666L3 10.6667C2.99998 12.8583 2.99997 13.9541 3.60525 14.6917C3.71608 14.8267 3.83991 14.9505 3.97495 15.0614C4.71251 15.6667 5.80833 15.6667 7.99996 15.6667" stroke="white" stroke-linecap="round" stroke-linejoin="round"/>
<path d="M5.66675 5.66666H11.0001M5.66675 8.33332H8.33341" stroke="white" stroke-linecap="round" stroke-linejoin="round"/>
<path d="M13 13.3333L12 12.9667V11.3333M9 12.6667C9 14.3235 10.3431 15.6667 12 15.6667C13.6569 15.6667 15 14.3235 15 12.6667C15 11.0098 13.6569 9.66666 12 9.66666C10.3431 9.66666 9 11.0098 9 12.6667Z" stroke="white" stroke-linecap="round" stroke-linejoin="round"/>
</svg>
