<svg width="18" height="19" viewBox="0 0 18 19" fill="none" xmlns="http://www.w3.org/2000/svg">
<path d="M11.5133 4.85499C11.1685 4.85499 10.9961 4.85499 10.839 4.79672C10.8172 4.78862 10.7958 4.77972 10.7746 4.77002C10.6223 4.70018 10.5005 4.57828 10.2566 4.3345C9.69553 3.77339 9.41501 3.49283 9.06979 3.46696C9.02342 3.46349 8.97675 3.46349 8.93037 3.46696C8.58516 3.49283 8.30457 3.77339 7.74349 4.33449C7.49971 4.57828 7.37781 4.70018 7.22556 4.77002C7.20442 4.77972 7.18292 4.78862 7.16111 4.79672C7.00406 4.85499 6.83167 4.85499 6.48691 4.85499H6.42332C5.5437 4.85499 5.1039 4.85499 4.83064 5.12825C4.55738 5.40151 4.55738 5.84131 4.55738 6.72092V6.78452C4.55738 7.12928 4.55738 7.30167 4.49911 7.45871C4.49101 7.48052 4.48211 7.50203 4.47241 7.52317C4.40257 7.67542 4.28068 7.79731 4.03688 8.0411C3.47578 8.60218 3.19523 8.88276 3.16936 9.22798C3.16588 9.27436 3.16588 9.32102 3.16936 9.3674C3.19523 9.71261 3.47578 9.99314 4.03688 10.5542C4.28068 10.7981 4.40257 10.9199 4.47241 11.0722C4.48211 11.0934 4.49101 11.1148 4.49911 11.1366C4.55738 11.2937 4.55738 11.4661 4.55738 11.8109V11.8744C4.55738 12.7541 4.55738 13.1939 4.83064 13.4671C5.1039 13.7404 5.5437 13.7404 6.42332 13.7404H6.48691C6.83167 13.7404 7.00406 13.7404 7.16111 13.7987C7.18292 13.8067 7.20442 13.8157 7.22556 13.8253C7.37781 13.8952 7.49971 14.0171 7.74349 14.2609C8.30457 14.822 8.58516 15.1026 8.93037 15.1284C8.97675 15.1319 9.02336 15.1319 9.06979 15.1284C9.41501 15.1026 9.69553 14.822 10.2566 14.2609C10.5005 14.0171 10.6223 13.8952 10.7746 13.8253C10.7958 13.8157 10.8172 13.8067 10.839 13.7987C10.9961 13.7404 11.1685 13.7404 11.5133 13.7404H11.5768C12.4564 13.7404 12.8963 13.7404 13.1695 13.4671C13.4428 13.1939 13.4428 12.7541 13.4428 11.8744V11.8109C13.4428 11.4661 13.4428 11.2937 13.5011 11.1366C13.5091 11.1148 13.5181 11.0934 13.5277 11.0722C13.5976 10.9199 13.7195 10.7981 13.9633 10.5542C14.5244 9.99314 14.8049 9.71261 14.8308 9.3674C14.8343 9.32096 14.8343 9.27436 14.8308 9.22798C14.8049 8.88276 14.5244 8.60218 13.9633 8.0411C13.7195 7.79731 13.5976 7.67542 13.5277 7.52317C13.5181 7.50203 13.5091 7.48052 13.5011 7.45871C13.4428 7.30167 13.4428 7.12928 13.4428 6.78452V6.72092C13.4428 5.84131 13.4428 5.40151 13.1695 5.12825C12.8963 4.85499 12.4564 4.85499 11.5768 4.85499H11.5133Z" stroke="#8396A8" stroke-width="0.875"/>
<path d="M11.0416 9.29765C11.0416 10.4252 10.1275 11.3393 8.99992 11.3393C7.87234 11.3393 6.95825 10.4252 6.95825 9.29765C6.95825 8.17006 7.87234 7.25598 8.99992 7.25598C10.1275 7.25598 11.0416 8.17006 11.0416 9.29765Z" stroke="#8396A8" stroke-width="0.875"/>
</svg>
