<svg width="18" height="19" viewBox="0 0 18 19" fill="none" xmlns="http://www.w3.org/2000/svg">
<path d="M2.69873 8.58844V11.7429C2.69873 13.7255 2.69873 14.7169 3.31393 15.3328C3.92913 15.9488 4.91927 15.9488 6.89957 15.9488H11.1004C13.0807 15.9488 14.0708 15.9488 14.686 15.3328C15.3012 14.7169 15.3012 13.7255 15.3012 11.7429V8.58844" stroke="#8396A8" stroke-width="1.05021"/>
<path d="M11.1005 12.7821C10.6215 13.2072 9.85899 13.4822 9.00006 13.4822C8.14113 13.4822 7.37862 13.2072 6.89966 12.7821" stroke="#8396A8" stroke-width="1.05021" stroke-linecap="round"/>
<path d="M13.0579 2.64837L4.90414 2.66873C3.68718 2.60604 3.37516 3.54431 3.37516 4.00296C3.37516 4.41318 3.32233 5.0112 2.57646 6.13518C1.8306 7.25916 1.88664 7.59306 2.30724 8.37115C2.65631 9.01696 3.54418 9.26922 4.00712 9.31165C5.47756 9.34511 6.19298 8.07359 6.19298 7.17988C6.92242 9.42542 8.99698 9.42542 9.92131 9.16861C10.8475 8.91138 11.6408 7.99055 11.828 7.17988C11.9372 8.18736 12.2685 8.7752 13.2473 9.17918C14.2613 9.59759 15.1332 8.95808 15.5707 8.54808C16.0083 8.13814 16.289 7.22804 15.5091 6.22774C14.9713 5.5379 14.7471 4.88802 14.6735 4.21447C14.6308 3.82419 14.5933 3.40482 14.3192 3.13794C13.9184 2.74794 13.3435 2.6296 13.0579 2.64837Z" stroke="#8396A8" stroke-width="1.05021" stroke-linecap="round" stroke-linejoin="round"/>
</svg>
