<svg width="18" height="19" viewBox="0 0 18 19" fill="none" xmlns="http://www.w3.org/2000/svg">
<path d="M5.8999 8.10602L8.57998 5.4259C9.31117 4.69475 9.67673 4.32916 10.0802 4.03471C10.908 3.43057 11.8681 3.03288 12.8806 2.87475C13.3741 2.79767 13.8911 2.79767 14.9252 2.79767C14.9792 2.79767 14.9999 2.82245 14.9999 2.87244C14.9999 3.90646 14.9999 4.42348 14.9228 4.91697C14.7647 5.92949 14.367 6.88959 13.7629 7.71738C13.4684 8.12084 13.1028 8.4864 12.3717 9.21759L9.69155 11.8977" stroke="#8396A8" stroke-width="0.975" stroke-linecap="round" stroke-linejoin="round"/>
<path d="M7.42165 6.76164C6.31475 6.76164 4.92356 6.52717 3.8878 6.95619C3.12886 7.27055 2.5704 7.99847 2 8.56885L4.14888 9.48977C4.71835 9.73384 4.37023 10.4525 4.27596 10.9239C4.1709 11.4491 4.17676 11.4685 4.55553 11.8473L5.95043 13.2422C6.3292 13.6209 6.34855 13.6268 6.8738 13.5217C7.34521 13.4275 8.06385 13.0793 8.30786 13.6488L9.22885 15.7977C9.79922 15.2273 10.5272 14.6688 10.8415 13.9099C11.2706 12.8741 11.036 11.4829 11.036 10.376" stroke="#8396A8" stroke-width="0.975" stroke-linejoin="round"/>
<path d="M8.5001 14.4977L7.8501 15.1477" stroke="#8396A8" stroke-width="0.975" stroke-linecap="round" stroke-linejoin="round"/>
<path d="M3.2999 9.29767L2.6499 9.94767" stroke="#8396A8" stroke-width="0.975" stroke-linecap="round" stroke-linejoin="round"/>
<path d="M10.4502 4.14966C11.2302 4.26666 12.0492 4.57866 12.5051 5.04666C13.0876 5.56156 13.4922 6.25566 13.6482 7.34766" stroke="#8396A8" stroke-width="0.975" stroke-linecap="square"/>
<path d="M12.3608 5.43671L11.4248 6.37271" stroke="#8396A8" stroke-width="0.975" stroke-linecap="round"/>
</svg>
