<svg width="18" height="19" viewBox="0 0 18 19" fill="none" xmlns="http://www.w3.org/2000/svg">
<path d="M11.513 4.85499C11.1683 4.85499 10.9958 4.85499 10.8388 4.79672C10.817 4.78862 10.7955 4.77972 10.7743 4.77002C10.6221 4.70018 10.5002 4.57828 10.2564 4.3345C9.69529 3.77339 9.41476 3.49283 9.06955 3.46696C9.02317 3.46349 8.9765 3.46349 8.93013 3.46696C8.58491 3.49283 8.30433 3.77339 7.74325 4.33449C7.49946 4.57828 7.37757 4.70018 7.22532 4.77002C7.20417 4.77972 7.18267 4.78862 7.16086 4.79672C7.00382 4.85499 6.83143 4.85499 6.48667 4.85499H6.42307C5.54346 4.85499 5.10365 4.85499 4.8304 5.12825C4.55714 5.40151 4.55714 5.84131 4.55714 6.72092V6.78452C4.55714 7.12928 4.55714 7.30167 4.49887 7.45871C4.49077 7.48052 4.48187 7.50203 4.47217 7.52317C4.40232 7.67542 4.28043 7.79731 4.03664 8.0411C3.47554 8.60218 3.19498 8.88276 3.16911 9.22798C3.16563 9.27436 3.16563 9.32102 3.16911 9.3674C3.19498 9.71261 3.47554 9.99314 4.03664 10.5542C4.28043 10.7981 4.40232 10.9199 4.47217 11.0722C4.48187 11.0934 4.49077 11.1148 4.49887 11.1366C4.55714 11.2937 4.55714 11.4661 4.55714 11.8109V11.8744C4.55714 12.7541 4.55714 13.1939 4.8304 13.4671C5.10365 13.7404 5.54346 13.7404 6.42307 13.7404H6.48667C6.83143 13.7404 7.00382 13.7404 7.16086 13.7987C7.18267 13.8067 7.20417 13.8157 7.22532 13.8253C7.37757 13.8952 7.49946 14.0171 7.74325 14.2609C8.30433 14.822 8.58491 15.1026 8.93013 15.1284C8.9765 15.1319 9.02311 15.1319 9.06955 15.1284C9.41476 15.1026 9.69529 14.822 10.2564 14.2609C10.5002 14.0171 10.6221 13.8952 10.7743 13.8253C10.7955 13.8157 10.817 13.8067 10.8388 13.7987C10.9958 13.7404 11.1683 13.7404 11.513 13.7404H11.5766C12.4562 13.7404 12.896 13.7404 13.1693 13.4671C13.4426 13.1939 13.4426 12.7541 13.4426 11.8744V11.8109C13.4426 11.4661 13.4426 11.2937 13.5008 11.1366C13.5089 11.1148 13.5178 11.0934 13.5275 11.0722C13.5974 10.9199 13.7192 10.7981 13.963 10.5542C14.5241 9.99314 14.8047 9.71261 14.8305 9.3674C14.834 9.32096 14.834 9.27436 14.8305 9.22798C14.8047 8.88276 14.5241 8.60218 13.963 8.0411C13.7192 7.79731 13.5974 7.67542 13.5275 7.52317C13.5178 7.50203 13.5089 7.48052 13.5008 7.45871C13.4426 7.30167 13.4426 7.12928 13.4426 6.78452V6.72092C13.4426 5.84131 13.4426 5.40151 13.1693 5.12825C12.896 4.85499 12.4562 4.85499 11.5766 4.85499H11.513Z" stroke="#8396A8" stroke-width="0.875"/>
<path d="M11.0418 9.29765C11.0418 10.4252 10.1277 11.3393 9.00016 11.3393C7.87258 11.3393 6.9585 10.4252 6.9585 9.29765C6.9585 8.17006 7.87258 7.25598 9.00016 7.25598C10.1277 7.25598 11.0418 8.17006 11.0418 9.29765Z" stroke="#8396A8" stroke-width="0.875"/>
</svg>
