<svg width="18" height="18" viewBox="0 0 18 18" fill="none" xmlns="http://www.w3.org/2000/svg">
<path d="M3.594 14.4058C2.6665 13.4783 2.6665 11.9855 2.6665 8.99996C2.6665 6.0144 2.6665 4.52162 3.594 3.59412C4.5215 2.66663 6.01428 2.66663 8.99984 2.66663C11.9854 2.66663 13.4782 2.66663 14.4057 3.59412C15.3332 4.52162 15.3332 6.0144 15.3332 8.99996C15.3332 11.9855 15.3332 13.4783 14.4057 14.4058C13.4782 15.3333 11.9854 15.3333 8.99984 15.3333C6.01428 15.3333 4.5215 15.3333 3.594 14.4058Z" stroke="#5A66C1" stroke-linecap="round" stroke-linejoin="round"/>
<path d="M2.6665 7H15.3332" stroke="#5A66C1"/>
<path d="M2.6665 9.66663H15.3332" stroke="#8396A8"/>
<path d="M2.6665 12.3334H15.3332" stroke="#8396A8"/>
<path d="M9 15.3333V7" stroke="#8396A8" stroke-linecap="round"/>
</svg>
