<svg width="14" height="14" viewBox="0 0 14 14" fill="none" xmlns="http://www.w3.org/2000/svg">
<path d="M7.51868 2.85185H2.3335" stroke="#A9B4BE" stroke-width="0.777778" stroke-linecap="round" stroke-linejoin="round"/>
<path d="M6.48164 10.6296H2.3335" stroke="#A9B4BE" stroke-width="0.777778" stroke-linecap="round" stroke-linejoin="round"/>
<path d="M11.6668 10.6296H9.59277" stroke="#A9B4BE" stroke-width="0.777778" stroke-linecap="round" stroke-linejoin="round"/>
<path d="M11.6666 6.74074H6.48145" stroke="#A9B4BE" stroke-width="0.777778" stroke-linecap="round" stroke-linejoin="round"/>
<path d="M11.6664 2.85185H10.6294" stroke="#A9B4BE" stroke-width="0.777778" stroke-linecap="round" stroke-linejoin="round"/>
<path d="M3.37053 6.74074H2.3335" stroke="#A9B4BE" stroke-width="0.777778" stroke-linecap="round" stroke-linejoin="round"/>
<path d="M8.29633 1.8148C8.53791 1.8148 8.65872 1.8148 8.75403 1.85427C8.88107 1.9069 8.98202 2.00784 9.03465 2.1349C9.07411 2.23018 9.07411 2.35098 9.07411 2.59258V3.1111C9.07411 3.3527 9.07411 3.4735 9.03465 3.56879C8.98202 3.69584 8.88107 3.79678 8.75403 3.84941C8.65872 3.88888 8.53791 3.88888 8.29633 3.88888C8.05475 3.88888 7.93394 3.88888 7.83864 3.84941C7.7116 3.79678 7.61064 3.69584 7.55801 3.56879C7.51855 3.4735 7.51855 3.3527 7.51855 3.1111V2.59258C7.51855 2.35098 7.51855 2.23018 7.55801 2.1349C7.61064 2.00784 7.7116 1.9069 7.83864 1.85427C7.93394 1.8148 8.05475 1.8148 8.29633 1.8148Z" stroke="#A9B4BE" stroke-width="0.777778" stroke-linecap="round" stroke-linejoin="round"/>
<path d="M7.25922 9.59259C7.5008 9.59259 7.62162 9.59259 7.71692 9.63205C7.84396 9.68468 7.94491 9.78563 7.99754 9.91267C8.037 10.008 8.037 10.1288 8.037 10.3704V10.8889C8.037 11.1305 8.037 11.2513 7.99754 11.3466C7.94491 11.4736 7.84396 11.5746 7.71692 11.6272C7.62162 11.6667 7.5008 11.6667 7.25922 11.6667C7.01765 11.6667 6.89683 11.6667 6.80153 11.6272C6.67449 11.5746 6.57353 11.4736 6.5209 11.3466C6.48145 11.2513 6.48145 11.1305 6.48145 10.8889V10.3704C6.48145 10.1288 6.48145 10.008 6.5209 9.91267C6.57353 9.78563 6.67449 9.68468 6.80153 9.63205C6.89683 9.59259 7.01765 9.59259 7.25922 9.59259Z" stroke="#A9B4BE" stroke-width="0.777778" stroke-linecap="round" stroke-linejoin="round"/>
<path d="M5.70405 5.7037C5.94565 5.7037 6.06644 5.70371 6.16174 5.74317C6.28878 5.7958 6.38974 5.89674 6.44237 6.02379C6.48182 6.11909 6.48182 6.2399 6.48182 6.48148V7C6.48182 7.24158 6.48182 7.36239 6.44237 7.4577C6.38974 7.58473 6.28878 7.68569 6.16174 7.73832C6.06644 7.77778 5.94565 7.77778 5.70405 7.77778C5.46245 7.77778 5.34165 7.77778 5.24636 7.73832C5.11931 7.68569 5.01836 7.58473 4.96574 7.4577C4.92627 7.36239 4.92627 7.24158 4.92627 7V6.48148C4.92627 6.2399 4.92627 6.11909 4.96574 6.02379C5.01836 5.89674 5.11931 5.7958 5.24636 5.74317C5.34165 5.70371 5.46245 5.7037 5.70405 5.7037Z" stroke="#A9B4BE" stroke-width="0.777778" stroke-linecap="round" stroke-linejoin="round"/>
</svg>
