<svg width="17" height="17" viewBox="0 0 17 17" fill="none" xmlns="http://www.w3.org/2000/svg">
<path d="M12.6519 7.00737C12.6568 7.00735 12.6618 7.00734 12.6668 7.00734C14.3237 7.00734 15.6668 8.35293 15.6668 10.0129C15.6668 11.5599 14.5002 12.8339 13.0002 13M12.6519 7.00737C12.6618 6.89737 12.6668 6.78597 12.6668 6.67339C12.6668 4.64463 11.0252 3 9.00016 3C7.08232 3 5.50838 4.47511 5.34711 6.35461M12.6519 7.00737C12.5837 7.76507 12.2859 8.4564 11.8287 9.011M5.34711 6.35461C3.65615 6.51582 2.3335 7.9426 2.3335 9.67887C2.3335 11.2945 3.47867 12.6421 5.00016 12.9515M5.34711 6.35461C5.45234 6.34458 5.55898 6.33945 5.66683 6.33945C6.41738 6.33945 7.10999 6.58796 7.66716 7.00734" stroke="#5B738B" stroke-linecap="round" stroke-linejoin="round"/>
<path d="M9.00016 9.66663V15M9.00016 9.66663C8.53336 9.66663 7.66118 10.9962 7.3335 11.3333M9.00016 9.66663C9.46696 9.66663 10.3392 10.9962 10.6668 11.3333" stroke="#5B738B" stroke-linecap="round" stroke-linejoin="round"/>
</svg>
