<svg width="18" height="19" viewBox="0 0 18 19" fill="none" xmlns="http://www.w3.org/2000/svg">
<path d="M10.2677 14.8902C10.125 14.5456 10.125 14.1088 10.125 13.2352C10.125 12.3615 10.125 11.9247 10.2677 11.5801C10.458 11.1207 10.823 10.7557 11.2825 10.5654C11.627 10.4227 12.0638 10.4227 12.9375 10.4227C13.8112 10.4227 14.248 10.4227 14.5925 10.5654C15.052 10.7557 15.417 11.1207 15.6073 11.5801C15.75 11.9247 15.75 12.3615 15.75 13.2352C15.75 14.1088 15.75 14.5456 15.6073 14.8902C15.417 15.3496 15.052 15.7147 14.5925 15.9049C14.248 16.0477 13.8112 16.0477 12.9375 16.0477C12.0638 16.0477 11.627 16.0477 11.2825 15.9049C10.823 15.7147 10.458 15.3496 10.2677 14.8902Z" stroke="#8396A8" stroke-width="1.125" stroke-linecap="square" stroke-linejoin="round"/>
<path d="M10.2677 7.0152C10.125 6.67063 10.125 6.23381 10.125 5.36017C10.125 4.48653 10.125 4.04971 10.2677 3.70514C10.458 3.24571 10.823 2.8807 11.2825 2.69039C11.627 2.54767 12.0638 2.54767 12.9375 2.54767C13.8112 2.54767 14.248 2.54767 14.5925 2.69039C15.052 2.8807 15.417 3.24571 15.6073 3.70514C15.75 4.04971 15.75 4.48653 15.75 5.36017C15.75 6.23381 15.75 6.67063 15.6073 7.0152C15.417 7.47463 15.052 7.83967 14.5925 8.02994C14.248 8.17267 13.8112 8.17267 12.9375 8.17267C12.0638 8.17267 11.627 8.17267 11.2825 8.02994C10.823 7.83967 10.458 7.47463 10.2677 7.0152Z" stroke="#8396A8" stroke-width="1.125" stroke-linecap="square" stroke-linejoin="round"/>
<path d="M2.39273 14.8902C2.25 14.5456 2.25 14.1088 2.25 13.2352C2.25 12.3615 2.25 11.9247 2.39273 11.5801C2.58303 11.1207 2.94804 10.7557 3.40747 10.5654C3.75204 10.4227 4.18886 10.4227 5.0625 10.4227C5.93614 10.4227 6.37296 10.4227 6.71753 10.5654C7.17696 10.7557 7.542 11.1207 7.73228 11.5801C7.875 11.9247 7.875 12.3615 7.875 13.2352C7.875 14.1088 7.875 14.5456 7.73228 14.8902C7.542 15.3496 7.17696 15.7147 6.71753 15.9049C6.37296 16.0477 5.93614 16.0477 5.0625 16.0477C4.18886 16.0477 3.75204 16.0477 3.40747 15.9049C2.94804 15.7147 2.58303 15.3496 2.39273 14.8902Z" stroke="#8396A8" stroke-width="1.125" stroke-linecap="square" stroke-linejoin="round"/>
<path d="M2.39273 7.0152C2.25 6.67063 2.25 6.23381 2.25 5.36017C2.25 4.48653 2.25 4.04971 2.39273 3.70514C2.58303 3.24571 2.94804 2.8807 3.40747 2.69039C3.75204 2.54767 4.18886 2.54767 5.0625 2.54767C5.93614 2.54767 6.37296 2.54767 6.71753 2.69039C7.17696 2.8807 7.542 3.24571 7.73228 3.70514C7.875 4.04971 7.875 4.48653 7.875 5.36017C7.875 6.23381 7.875 6.67063 7.73228 7.0152C7.542 7.47463 7.17696 7.83967 6.71753 8.02994C6.37296 8.17267 5.93614 8.17267 5.0625 8.17267C4.18886 8.17267 3.75204 8.17267 3.40747 8.02994C2.94804 7.83967 2.58303 7.47463 2.39273 7.0152Z" stroke="#8396A8" stroke-width="1.125" stroke-linecap="square" stroke-linejoin="round"/>
</svg>
