<svg width="19" height="18" viewBox="0 0 19 18" fill="none" xmlns="http://www.w3.org/2000/svg">
<path d="M4.27637 7.5H11.2764" stroke="#8396A8" stroke-width="0.992157" stroke-linecap="round" stroke-linejoin="round"/>
<path d="M8.27686 9.6499L7.37075 10.828C7.27365 10.9542 7.34324 11.1359 7.50159 11.1695L8.45074 11.3709C8.61961 11.4067 8.68396 11.6078 8.56592 11.7306L7.4417 12.8999" stroke="#8396A8" stroke-width="0.975" stroke-linecap="round" stroke-linejoin="round"/>
<path d="M4.07617 14.8499V7.0499C4.07617 5.21142 4.07617 4.29219 4.64731 3.72104C5.21846 3.1499 6.13769 3.1499 7.97617 3.1499C9.81463 3.1499 10.7339 3.1499 11.305 3.72104C11.8762 4.29219 11.8762 5.21142 11.8762 7.0499V14.8499H4.07617Z" stroke="#8396A8" stroke-width="0.975"/>
<path d="M2.77637 14.8499H13.1764" stroke="#8396A8" stroke-width="0.975" stroke-linecap="round" stroke-linejoin="round"/>
<path d="M11.8765 10.2999H12.9598C13.1613 10.2999 13.2621 10.2999 13.3447 10.322C13.569 10.3821 13.7442 10.5573 13.8043 10.7816C13.8265 10.8642 13.8265 10.965 13.8265 11.1665V11.9249C13.8265 12.4633 14.263 12.8999 14.8015 12.8999C15.3399 12.8999 15.7765 12.4633 15.7765 11.9249V7.83707C15.7765 7.44634 15.7765 7.25097 15.7207 7.06674C15.6649 6.88251 15.5565 6.71996 15.3398 6.39485L14.837 5.64069C14.6118 5.3028 14.2325 5.09985 13.8265 5.09985" stroke="#8396A8" stroke-width="0.975" stroke-linecap="round" stroke-linejoin="round"/>
</svg>
