<svg width="18" height="18" viewBox="0 0 18 18" fill="none" xmlns="http://www.w3.org/2000/svg">
<path d="M10 4C10 3.44771 9.55227 3 9 3C8.44773 3 8 3.44771 8 4C8 4.55229 8.44773 5 9 5C9.55227 5 10 4.55229 10 4Z" stroke="#8396A8"/>
<path d="M10 9C10 8.44773 9.55227 8 9 8C8.44773 8 8 8.44773 8 9C8 9.55227 8.44773 10 9 10C9.55227 10 10 9.55227 10 9Z" stroke="#8396A8"/>
<path d="M10 14C10 13.4477 9.55227 13 9 13C8.44773 13 8 13.4477 8 14C8 14.5523 8.44773 15 9 15C9.55227 15 10 14.5523 10 14Z" stroke="#8396A8"/>
</svg>
