<svg width="18" height="19" viewBox="0 0 18 19" fill="none" xmlns="http://www.w3.org/2000/svg">
<path d="M4 7.79767H11" stroke="#8396A8" stroke-width="0.992157" stroke-linecap="round" stroke-linejoin="round"/>
<path d="M8.0005 9.94769L7.09438 11.1258C6.99728 11.252 7.06687 11.4337 7.22522 11.4673L8.17437 11.6687C8.34324 11.7045 8.40759 11.9056 8.28955 12.0284L7.16533 13.1977" stroke="#8396A8" stroke-width="0.975" stroke-linecap="round" stroke-linejoin="round"/>
<path d="M3.7998 15.1477V7.34769C3.7998 5.50921 3.7998 4.58998 4.37095 4.01883C4.94209 3.44769 5.86133 3.44769 7.6998 3.44769C9.53826 3.44769 10.4575 3.44769 11.0286 4.01883C11.5998 4.58998 11.5998 5.50921 11.5998 7.34769V15.1477H3.7998Z" stroke="#8396A8" stroke-width="0.975"/>
<path d="M2.5 15.1476H12.9" stroke="#8396A8" stroke-width="0.975" stroke-linecap="round" stroke-linejoin="round"/>
<path d="M11.6001 10.5976H12.6835C12.885 10.5976 12.9857 10.5976 13.0683 10.6198C13.2926 10.6799 13.4679 10.8551 13.5279 11.0794C13.5501 11.162 13.5501 11.2628 13.5501 11.4643V12.2226C13.5501 12.7611 13.9866 13.1976 14.5251 13.1976C15.0636 13.1976 15.5001 12.7611 15.5001 12.2226V8.13486C15.5001 7.74413 15.5001 7.54876 15.4443 7.36453C15.3886 7.1803 15.2801 7.01775 15.0634 6.69264L14.5607 5.93848C14.3354 5.60059 13.9562 5.39764 13.5501 5.39764" stroke="#8396A8" stroke-width="0.975" stroke-linecap="round" stroke-linejoin="round"/>
</svg>
