<svg width="18" height="19" viewBox="0 0 18 19" fill="none" xmlns="http://www.w3.org/2000/svg">
<path d="M11.9165 10.3503C11.9165 10.1486 11.9165 10.0478 11.9468 9.958C12.035 9.6969 12.2676 9.59563 12.5005 9.48952C12.7623 9.37023 12.8932 9.31061 13.023 9.30011C13.1703 9.28821 13.3178 9.31995 13.4437 9.39059C13.6106 9.48421 13.7269 9.66219 13.8461 9.80691C14.3964 10.4753 14.6715 10.8095 14.7722 11.1781C14.8535 11.4755 14.8535 11.7865 14.7722 12.0839C14.6254 12.6214 14.1615 13.0721 13.8181 13.4891C13.6424 13.7025 13.5546 13.8092 13.4437 13.8714C13.3178 13.942 13.1703 13.9738 13.023 13.9619C12.8932 13.9514 12.7623 13.8918 12.5005 13.7725C12.2676 13.6664 12.035 13.5651 11.9468 13.304C11.9165 13.2142 11.9165 13.1134 11.9165 12.9117V10.3503Z" stroke="#8396A8" stroke-width="0.875"/>
<path d="M7.5415 14.5477C8.34691 15.3254 9.65276 15.3254 10.4582 14.5477" stroke="#8396A8" stroke-width="0.875" stroke-linecap="round" stroke-linejoin="round"/>
<path d="M6.08317 10.3503C6.08317 10.0964 6.07604 9.86827 5.87078 9.68977C5.79613 9.62484 5.69715 9.57975 5.4992 9.48957C5.23734 9.37033 5.10641 9.31072 4.97668 9.30022C4.58745 9.26872 4.37804 9.53437 4.15358 9.80696C3.60327 10.4753 3.32812 10.8095 3.22744 11.1781C3.14619 11.4755 3.14619 11.7865 3.22744 12.0839C3.37429 12.6214 3.83822 13.0719 4.18163 13.489C4.39809 13.7519 4.60487 13.9919 4.97668 13.9618C5.10641 13.9513 5.23734 13.8916 5.4992 13.7723C5.69715 13.6822 5.79613 13.6371 5.87078 13.5722C6.07604 13.3937 6.08317 13.1656 6.08317 12.9116V10.3503Z" stroke="#8396A8" stroke-width="0.875"/>
<path d="M3.1665 11.631V9.29769C3.1665 6.07603 5.77817 3.46436 8.99984 3.46436C12.2215 3.46436 14.8332 6.07603 14.8332 9.29769L14.8332 11.631" stroke="#8396A8" stroke-width="0.875" stroke-linecap="round" stroke-linejoin="round"/>
</svg>
