<svg width="18" height="18" viewBox="0 0 18 18" fill="none" xmlns="http://www.w3.org/2000/svg">
<path d="M4 7.5H11" stroke="#8396A8" stroke-width="0.992157" stroke-linecap="round" stroke-linejoin="round"/>
<path d="M8.0005 9.6499L7.09438 10.828C6.99728 10.9542 7.06687 11.1359 7.22522 11.1695L8.17437 11.3709C8.34324 11.4067 8.40759 11.6078 8.28955 11.7306L7.16533 12.8999" stroke="#8396A8" stroke-width="0.975" stroke-linecap="round" stroke-linejoin="round"/>
<path d="M3.7998 14.8499V7.0499C3.7998 5.21142 3.7998 4.29219 4.37095 3.72104C4.94209 3.1499 5.86133 3.1499 7.6998 3.1499C9.53826 3.1499 10.4575 3.1499 11.0286 3.72104C11.5998 4.29219 11.5998 5.21142 11.5998 7.0499V14.8499H3.7998Z" stroke="#8396A8" stroke-width="0.975"/>
<path d="M2.5 14.8499H12.9" stroke="#8396A8" stroke-width="0.975" stroke-linecap="round" stroke-linejoin="round"/>
<path d="M11.6001 10.2999H12.6835C12.885 10.2999 12.9857 10.2999 13.0683 10.322C13.2926 10.3821 13.4679 10.5573 13.5279 10.7816C13.5501 10.8642 13.5501 10.965 13.5501 11.1665V11.9249C13.5501 12.4633 13.9866 12.8999 14.5251 12.8999C15.0636 12.8999 15.5001 12.4633 15.5001 11.9249V7.83707C15.5001 7.44634 15.5001 7.25097 15.4443 7.06674C15.3886 6.88251 15.2801 6.71996 15.0634 6.39485L14.5607 5.64069C14.3354 5.3028 13.9562 5.09985 13.5501 5.09985" stroke="#8396A8" stroke-width="0.975" stroke-linecap="round" stroke-linejoin="round"/>
</svg>
