<svg width="18" height="18" viewBox="0 0 18 18" fill="none" xmlns="http://www.w3.org/2000/svg">
<path d="M11.6668 2.33337V5.00004M6.3335 2.33337V5.00004" stroke="#8396A8" stroke-linecap="round" stroke-linejoin="round"/>
<path d="M9.66667 3.66663H8.33333C5.81917 3.66663 4.5621 3.66663 3.78105 4.44767C3 5.22873 3 6.4858 3 8.99996V10.3333C3 12.8474 3 14.1046 3.78105 14.8856C4.5621 15.6666 5.81917 15.6666 8.33333 15.6666H9.66667C12.1808 15.6666 13.4379 15.6666 14.2189 14.8856C15 14.1046 15 12.8474 15 10.3333V8.99996C15 6.4858 15 5.22873 14.2189 4.44767C13.4379 3.66663 12.1808 3.66663 9.66667 3.66663Z" stroke="#8396A8" stroke-linecap="round" stroke-linejoin="round"/>
<path d="M3 7.66663H15" stroke="#8396A8" stroke-linecap="round" stroke-linejoin="round"/>
<path d="M8.99716 10.3334H9.00316M8.99716 13H9.00316M11.6608 10.3334H11.6668M6.3335 10.3334H6.33948M6.3335 13H6.33948" stroke="#8396A8" stroke-width="1.33333" stroke-linecap="round" stroke-linejoin="round"/>
</svg>
