<svg width="18" height="19" viewBox="0 0 18 19" fill="none" xmlns="http://www.w3.org/2000/svg">
<path d="M2.69873 8.58844V11.7429C2.69873 13.7255 2.69873 14.7169 3.31393 15.3328C3.92913 15.9488 4.91927 15.9488 6.89957 15.9488H11.1004C13.0807 15.9488 14.0708 15.9488 14.686 15.3328C15.3012 14.7169 15.3012 13.7255 15.3012 11.7429V8.58844" stroke="#8396A8" stroke-width="1.05021"/>
<path d="M11.1002 12.7821C10.6213 13.2072 9.85875 13.4822 8.99981 13.4822C8.14088 13.4822 7.37837 13.2072 6.89941 12.7821" stroke="#8396A8" stroke-width="1.05021" stroke-linecap="round"/>
<path d="M13.0576 2.64837L4.9039 2.66873C3.68694 2.60604 3.37491 3.54431 3.37491 4.00296C3.37491 4.41318 3.32209 5.0112 2.57622 6.13518C1.83035 7.25916 1.8864 7.59306 2.30699 8.37115C2.65606 9.01696 3.54393 9.26922 4.00687 9.31165C5.47731 9.34511 6.19273 8.07359 6.19273 7.17988C6.92218 9.42542 8.99674 9.42542 9.92106 9.16861C10.8472 8.91138 11.6405 7.99055 11.8278 7.17988C11.9369 8.18736 12.2682 8.7752 13.2471 9.17918C14.261 9.59759 15.133 8.95808 15.5705 8.54808C16.008 8.13814 16.2888 7.22804 15.5089 6.22774C14.971 5.5379 14.7468 4.88802 14.6733 4.21447C14.6306 3.82419 14.5931 3.40482 14.3189 3.13794C13.9182 2.74794 13.3432 2.6296 13.0576 2.64837Z" stroke="#8396A8" stroke-width="1.05021" stroke-linecap="round" stroke-linejoin="round"/>
</svg>
