<svg width="18" height="18" viewBox="0 0 18 18" fill="none" xmlns="http://www.w3.org/2000/svg">
<path d="M11.513 4.5573C11.1683 4.5573 10.9958 4.5573 10.8388 4.49903C10.817 4.49094 10.7955 4.48204 10.7743 4.47234C10.6221 4.40249 10.5002 4.2806 10.2564 4.03681C9.69529 3.4757 9.41476 3.19515 9.06955 3.16928C9.02317 3.1658 8.9765 3.1658 8.93013 3.16928C8.58491 3.19515 8.30433 3.4757 7.74325 4.03681C7.49946 4.2806 7.37757 4.40249 7.22532 4.47234C7.20417 4.48204 7.18267 4.49094 7.16086 4.49903C7.00382 4.5573 6.83143 4.5573 6.48667 4.5573H6.42307C5.54346 4.5573 5.10365 4.5573 4.8304 4.83057C4.55714 5.10382 4.55714 5.54363 4.55714 6.42324V6.48684C4.55714 6.8316 4.55714 7.00398 4.49887 7.16103C4.49077 7.18284 4.48187 7.20434 4.47217 7.22549C4.40232 7.37774 4.28043 7.49963 4.03664 7.74342C3.47554 8.3045 3.19498 8.58508 3.16911 8.9303C3.16563 8.97667 3.16563 9.02334 3.16911 9.06971C3.19498 9.41493 3.47554 9.69546 4.03664 10.2566C4.28043 10.5004 4.40232 10.6223 4.47217 10.7745C4.48187 10.7957 4.49077 10.8171 4.49887 10.839C4.55714 10.996 4.55714 11.1684 4.55714 11.5132V11.5768C4.55714 12.4564 4.55714 12.8962 4.8304 13.1694C5.10365 13.4427 5.54346 13.4427 6.42307 13.4427H6.48667C6.83143 13.4427 7.00382 13.4427 7.16086 13.501C7.18267 13.5091 7.20417 13.518 7.22532 13.5277C7.37757 13.5975 7.49946 13.7194 7.74325 13.9632C8.30433 14.5243 8.58491 14.8049 8.93013 14.8307C8.9765 14.8342 9.02311 14.8342 9.06955 14.8307C9.41476 14.8049 9.69529 14.5243 10.2564 13.9632C10.5002 13.7194 10.6221 13.5975 10.7743 13.5277C10.7955 13.518 10.817 13.5091 10.8388 13.501C10.9958 13.4427 11.1683 13.4427 11.513 13.4427H11.5766C12.4562 13.4427 12.896 13.4427 13.1693 13.1694C13.4426 12.8962 13.4426 12.4564 13.4426 11.5768V11.5132C13.4426 11.1684 13.4426 10.996 13.5008 10.839C13.5089 10.8171 13.5178 10.7957 13.5275 10.7745C13.5974 10.6223 13.7192 10.5004 13.963 10.2566C14.5241 9.69546 14.8047 9.41493 14.8305 9.06971C14.834 9.02328 14.834 8.97667 14.8305 8.9303C14.8047 8.58508 14.5241 8.3045 13.963 7.74342C13.7192 7.49963 13.5974 7.37774 13.5275 7.22549C13.5178 7.20434 13.5089 7.18284 13.5008 7.16103C13.4426 7.00398 13.4426 6.8316 13.4426 6.48684V6.42324C13.4426 5.54363 13.4426 5.10382 13.1693 4.83057C12.896 4.5573 12.4562 4.5573 11.5766 4.5573H11.513Z" stroke="#5A66C1" stroke-width="0.875"/>
<path d="M11.0418 9C11.0418 10.1276 10.1277 11.0417 9.00016 11.0417C7.87258 11.0417 6.9585 10.1276 6.9585 9C6.9585 7.87241 7.87258 6.95833 9.00016 6.95833C10.1277 6.95833 11.0418 7.87241 11.0418 9Z" stroke="#5A66C1" stroke-width="0.875"/>
</svg>
