<svg width="18" height="19" viewBox="0 0 18 19" fill="none" xmlns="http://www.w3.org/2000/svg">
<path d="M7.875 3.67267C7.875 3.57321 7.91451 3.47783 7.98483 3.4075C8.05516 3.33718 8.15054 3.29767 8.25 3.29767H9.75C9.84946 3.29767 9.94484 3.33718 10.0152 3.4075C10.0855 3.47783 10.125 3.57321 10.125 3.67267C10.125 3.77212 10.0855 3.86751 10.0152 3.93783C9.94484 4.00816 9.84946 4.04767 9.75 4.04767H8.25C8.15054 4.04767 8.05516 4.00816 7.98483 3.93783C7.91451 3.86751 7.875 3.77212 7.875 3.67267Z" fill="#8396A8"/>
<path fill-rule="evenodd" clip-rule="evenodd" d="M13.0419 6.86178C12.8853 6.98844 12.682 7.08976 12.4369 7.17198C12.4478 7.28635 12.4533 7.40219 12.4533 7.51952C12.4531 8.00094 12.358 8.47731 12.1736 8.91974C11.9893 9.36217 11.7197 9.76145 11.3811 10.0934C11.0424 10.4253 10.6418 10.6829 10.2036 10.8507C9.76542 11.0184 9.29868 11.0927 8.83173 11.0692C8.36478 11.0456 7.90734 10.9247 7.48715 10.7136C7.06695 10.5026 6.69276 10.2058 6.38725 9.84143C6.08174 9.47702 5.85129 9.05251 5.70986 8.59365C5.56843 8.13478 5.51897 7.65112 5.56448 7.17198C5.31935 7.08976 5.11608 6.98844 4.95985 6.86178C4.75701 6.69734 4.62106 6.4778 4.60509 6.21382C4.58999 5.96894 4.68407 5.76096 4.77816 5.6143C4.87099 5.47535 4.98128 5.34968 5.10615 5.24054C5.16715 5.18603 5.22555 5.13759 5.28137 5.09522C5.26468 5.00367 5.24713 4.89404 5.22872 4.76635C5.15265 4.20611 5.11516 3.64103 5.11651 3.07534C5.11651 2.93579 5.17434 2.8318 5.2011 2.7878C5.23476 2.73225 5.27447 2.6847 5.31072 2.64648C5.38279 2.5687 5.47601 2.4896 5.57829 2.4136C5.78545 2.25894 6.07029 2.08518 6.40864 1.92252C7.08319 1.59809 8.00978 1.29767 9.00068 1.29767C9.99157 1.29767 10.9182 1.59854 11.5927 1.92252C11.8836 2.05946 12.1616 2.22385 12.4231 2.4136C12.5253 2.4896 12.6186 2.56915 12.6906 2.64648C12.7269 2.6847 12.7666 2.73225 12.8003 2.7878C12.827 2.8318 12.8848 2.93579 12.8848 3.07534C12.8848 3.7873 12.8287 4.36415 12.7726 4.76635C12.7542 4.89434 12.7367 5.00396 12.72 5.09522C12.7752 5.13744 12.8352 5.18588 12.8956 5.24054C13.0035 5.33787 13.127 5.46453 13.2232 5.6143C13.3177 5.76096 13.4114 5.96894 13.3967 6.21426C13.3807 6.4778 13.2448 6.69734 13.0419 6.86178ZM5.98052 3.21666C5.98699 3.81574 6.03533 4.30015 6.08324 4.6388C6.09474 4.7188 6.10568 4.7902 6.11604 4.85301H11.8853C11.896 4.7899 11.9069 4.7185 11.9181 4.6388C11.9656 4.30015 12.0144 3.81574 12.0208 3.21666C11.9872 3.18746 11.9525 3.15959 11.9168 3.13311C11.761 3.01712 11.5245 2.87091 11.2276 2.72825C10.6307 2.44116 9.83103 2.1865 9.00068 2.1865C8.17033 2.1865 7.37062 2.44116 6.77375 2.72825C6.47683 2.87091 6.24033 3.01712 6.08496 3.13267C6.04911 3.15943 6.01427 3.18759 5.98052 3.21711M5.88816 5.74185L5.88687 5.74273C5.81236 5.79382 5.74102 5.84963 5.67324 5.90984C5.59642 5.97916 5.53514 6.04672 5.49802 6.10538C5.48939 6.11871 5.48147 6.1325 5.47428 6.14671L5.49327 6.16315C5.55801 6.21559 5.69698 6.29248 5.96801 6.36847C6.02152 6.38329 6.07892 6.39781 6.1402 6.41203L6.14409 6.41292C6.36074 6.46225 6.62745 6.50624 6.95243 6.54091C7.41292 6.59024 7.99252 6.62268 8.7167 6.62979L9.00068 6.63068C10.3934 6.63068 11.2941 6.54135 11.8577 6.41292L11.8612 6.41203C11.9227 6.3981 11.9803 6.38358 12.0338 6.36847C12.3044 6.29292 12.4438 6.21559 12.5081 6.16315L12.5271 6.14671C12.52 6.13251 12.5122 6.11872 12.5038 6.10538C12.4534 6.0329 12.3944 5.9672 12.3281 5.90984C12.2605 5.84964 12.1893 5.79383 12.1149 5.74273L12.1132 5.74185H5.88816ZM8.88329 7.51952C10.0235 7.51952 10.9074 7.4573 11.5849 7.34886C11.5884 7.40515 11.5901 7.46204 11.5901 7.51952C11.5898 7.87538 11.5203 8.22758 11.3858 8.55537C11.2512 8.88315 11.0543 9.17988 10.8067 9.42808C10.559 9.67628 10.2656 9.87091 9.94377 10.0005C9.62193 10.1301 9.27814 10.1921 8.93268 10.1827C8.58722 10.1734 8.24707 10.0929 7.93228 9.94611C7.61748 9.79928 7.33441 9.58905 7.09975 9.32781C6.86509 9.06657 6.68358 8.7596 6.56593 8.42499C6.44827 8.09039 6.39685 7.73491 6.41468 7.37952C7.04608 7.4693 7.85528 7.51952 8.88329 7.51952ZM5.58175 15.9088C5.55916 16.0741 5.54791 16.2409 5.54808 16.4079V16.8523C5.54813 16.95 5.51692 17.045 5.45927 17.1226C5.40161 17.2002 5.32074 17.256 5.22916 17.2815C5.13757 17.307 5.04038 17.3007 4.95261 17.2636C4.86485 17.2265 4.7914 17.1607 4.74363 17.0763C4.45263 17.2383 4.11243 17.2795 3.79287 17.1914L2.95907 16.9612C2.62752 16.8695 2.34488 16.646 2.17331 16.3398C2.00173 16.0337 1.95527 15.6698 2.04413 15.3284L2.37903 14.0405C2.46794 13.699 2.68493 13.4078 2.98228 13.231C3.27963 13.0543 3.63299 13.0064 3.96464 13.0978L4.79844 13.3276C5.08846 13.4076 5.32928 13.5832 5.49673 13.8125C5.89632 13.2399 6.42259 12.7736 7.03199 12.4521C7.64139 12.1306 8.31639 11.9632 9.00111 11.9637C9.68546 11.9633 10.3601 12.1307 10.9691 12.4521C11.5782 12.7734 12.1043 13.2394 12.5038 13.8116C12.6775 13.575 12.923 13.4049 13.2012 13.3281L14.035 13.0983C14.3666 13.0068 14.7199 13.0546 15.0172 13.2313C15.3146 13.408 15.5316 13.699 15.6206 14.0405L15.9559 15.3288C15.9999 15.498 16.0111 15.6744 15.9889 15.8479C15.9667 16.0215 15.9115 16.1889 15.8264 16.3405C15.7414 16.4922 15.6282 16.625 15.4933 16.7316C15.3584 16.8382 15.2044 16.9163 15.0401 16.9616L14.2068 17.1914C13.8878 17.2796 13.5481 17.2389 13.2573 17.0776C13.2094 17.1619 13.1358 17.2276 13.048 17.2645C12.9602 17.3014 12.863 17.3076 12.7715 17.2819C12.68 17.2563 12.5992 17.2003 12.5417 17.1226C12.4842 17.045 12.4531 16.95 12.4533 16.8523V16.4079C12.4534 16.2409 12.4422 16.0741 12.4196 15.9088L10.1737 16.5288C10.0694 16.7585 9.90371 16.9529 9.69593 17.0891C9.48816 17.2253 9.24697 17.2977 9.00068 17.2977C8.75438 17.2977 8.51319 17.2253 8.30542 17.0891C8.09765 16.9529 7.93191 16.7585 7.82766 16.5288L5.58175 15.9088ZM7.75774 15.5888C7.81544 15.3861 7.9191 15.2004 8.06016 15.047C8.20123 14.8936 8.37567 14.777 8.5691 14.7066V12.8801C7.96377 12.9589 7.38949 13.2014 6.90459 13.5827C6.4197 13.9641 6.04147 14.4709 5.80832 15.0515L7.75774 15.5888ZM12.193 15.0511C11.9598 14.4705 11.5816 13.9639 11.0967 13.5826C10.6118 13.2013 10.0375 12.9589 9.43225 12.8801V14.7062C9.82239 14.8484 10.1271 15.1773 10.2436 15.5893L12.193 15.0511ZM13.1196 14.7311C13.1049 14.6747 13.1012 14.6159 13.1086 14.558C13.116 14.5002 13.1343 14.4443 13.1627 14.3938C13.191 14.3432 13.2287 14.2989 13.2737 14.2634C13.3187 14.2278 13.37 14.2018 13.4247 14.1867L14.2585 13.9565C14.3691 13.9261 14.4868 13.9421 14.5858 14.001C14.6849 14.0599 14.7572 14.1569 14.7868 14.2707L15.1221 15.5586C15.1368 15.615 15.1406 15.6738 15.1332 15.7316C15.1258 15.7895 15.1074 15.8453 15.0791 15.8959C15.0507 15.9464 15.013 15.9907 14.968 16.0263C14.9231 16.0618 14.8718 16.0879 14.817 16.103L13.9832 16.3332C13.9284 16.3483 13.8713 16.3522 13.8151 16.3445C13.7588 16.3369 13.7046 16.3179 13.6555 16.2887C13.6064 16.2595 13.5634 16.2206 13.5289 16.1742C13.4944 16.1279 13.4691 16.075 13.4545 16.0186L13.1196 14.7311ZM3.74151 13.9565C3.68674 13.9413 3.62959 13.9374 3.57334 13.9449C3.51709 13.9525 3.46284 13.9714 3.4137 14.0006C3.36456 14.0298 3.32148 14.0687 3.28694 14.115C3.2524 14.1613 3.22707 14.2142 3.2124 14.2707L2.8775 15.5581C2.86282 15.6145 2.85906 15.6733 2.86645 15.7312C2.87383 15.7891 2.89222 15.8449 2.92055 15.8954C2.94889 15.946 2.98661 15.9903 3.03158 16.0258C3.07655 16.0614 3.12787 16.0874 3.18263 16.1026L4.01643 16.3328C4.07118 16.3479 4.12828 16.3518 4.18448 16.3441C4.24068 16.3365 4.29488 16.3176 4.34397 16.2884C4.39306 16.2593 4.4361 16.2204 4.47061 16.1741C4.50512 16.1278 4.53043 16.0749 4.54511 16.0186L4.88001 14.7306C4.89476 14.6742 4.89856 14.6154 4.89121 14.5575C4.88385 14.4995 4.86548 14.4437 4.83714 14.3931C4.8088 14.3425 4.77105 14.2981 4.72605 14.2625C4.68105 14.227 4.62968 14.2009 4.57488 14.1858L3.74151 13.9565ZM9.43225 15.9635C9.43225 16.0813 9.38678 16.1944 9.30585 16.2777C9.22491 16.361 9.11514 16.4079 9.00068 16.4079C8.88622 16.4079 8.77644 16.361 8.69551 16.2777C8.61457 16.1944 8.5691 16.0813 8.5691 15.9635C8.5691 15.8456 8.61457 15.7325 8.69551 15.6492C8.77644 15.5659 8.88622 15.519 9.00068 15.519C9.11514 15.519 9.22491 15.5659 9.30585 15.6492C9.38678 15.7325 9.43225 15.8456 9.43225 15.9635Z" fill="#8396A8"/>
</svg>
