<svg width="18" height="19" viewBox="0 0 18 19" fill="none" xmlns="http://www.w3.org/2000/svg">
<path d="M4 11.2977V13.2977" stroke="#8396A8" stroke-width="1.125" stroke-linecap="round" stroke-linejoin="round"/>
<path d="M9 7.29767V13.2977" stroke="#8396A8" stroke-width="1.125" stroke-linecap="round" stroke-linejoin="round"/>
<path d="M15 15.2977H3" stroke="#8396A8" stroke-width="1.125" stroke-linecap="round" stroke-linejoin="round"/>
<path d="M14 10.2977V13.2977" stroke="#8396A8" stroke-width="1.125" stroke-linecap="round" stroke-linejoin="round"/>
<path d="M5.16005 7.37763C4.94113 7.08618 4.59258 6.89767 4.2 6.89767C3.53726 6.89767 3 7.43493 3 8.09767C3 8.76043 3.53726 9.29767 4.2 9.29767C4.86274 9.29767 5.4 8.76043 5.4 8.09767C5.4 7.82751 5.31072 7.57819 5.16005 7.37763ZM5.16005 7.37763L8.03994 5.21771M8.03994 5.21771C8.25888 5.50915 8.60742 5.69767 9 5.69767C9.4698 5.69767 9.87654 5.4277 10.0735 5.03444M8.03994 5.21771C7.88928 5.01714 7.8 4.76783 7.8 4.49767C7.8 3.83493 8.33724 3.29767 9 3.29767C9.66276 3.29767 10.2 3.83493 10.2 4.49767C10.2 4.69062 10.1545 4.87293 10.0735 5.03444M10.0735 5.03444L12.7265 6.3609M12.7265 6.3609C12.6455 6.52241 12.6 6.70472 12.6 6.89767C12.6 7.56041 13.1372 8.09767 13.8 8.09767C14.4628 8.09767 15 7.56041 15 6.89767C15 6.23493 14.4628 5.69767 13.8 5.69767C13.3302 5.69767 12.9235 5.96763 12.7265 6.3609Z" stroke="#8396A8" stroke-width="1.125"/>
</svg>
