<svg width="18" height="19" viewBox="0 0 18 19" fill="none" xmlns="http://www.w3.org/2000/svg">
<path d="M10.875 13.8133C10.829 14.9707 9.86444 15.9535 8.57225 15.9219C8.27163 15.9145 7.90006 15.8098 7.15695 15.6002C5.36851 15.0957 3.81597 14.2479 3.44348 12.3486C3.375 11.9995 3.375 11.6067 3.375 10.821V9.77435C3.375 8.98867 3.375 8.59582 3.44348 8.2467C3.81597 6.34745 5.36851 5.49964 7.15695 4.99519C7.90006 4.78557 8.27163 4.68076 8.57225 4.67341C9.86444 4.6418 10.829 5.62459 10.875 6.78205" stroke="#EE3939" stroke-width="0.9375" stroke-linecap="round"/>
<path d="M14.625 10.2977H7.75M14.625 10.2977C14.625 9.86004 13.3786 9.04237 13.0625 8.73517M14.625 10.2977C14.625 10.7353 13.3786 11.553 13.0625 11.8602" stroke="#EE3939" stroke-width="0.9375" stroke-linecap="round" stroke-linejoin="round"/>
</svg>
