<svg width="18" height="18" viewBox="0 0 18 18" fill="none" xmlns="http://www.w3.org/2000/svg">
<path d="M11.8724 3.92255C11.4784 3.92255 11.2813 3.92255 11.1018 3.85595C11.0769 3.8467 11.0524 3.83653 11.0282 3.82544C10.8542 3.74562 10.7149 3.60631 10.4362 3.3277C9.79496 2.68643 9.47436 2.3658 9.07983 2.33623C9.02683 2.33226 8.9735 2.33226 8.9205 2.33623C8.52596 2.3658 8.2053 2.68643 7.56406 3.32769C7.28545 3.60631 7.14614 3.74562 6.97214 3.82544C6.94798 3.83653 6.9234 3.8467 6.89848 3.85595C6.719 3.92255 6.52198 3.92255 6.12797 3.92255H6.05529C5.05002 3.92255 4.54738 3.92255 4.23509 4.23485C3.92279 4.54714 3.92279 5.04977 3.92279 6.05504V6.12773C3.92279 6.52174 3.92279 6.71875 3.8562 6.89823C3.84694 6.92316 3.83677 6.94773 3.82568 6.9719C3.74586 7.1459 3.60656 7.2852 3.32794 7.56382C2.68668 8.20505 2.36604 8.52572 2.33648 8.92025C2.3325 8.97325 2.3325 9.02658 2.33648 9.07958C2.36604 9.47412 2.68668 9.79472 3.32794 10.436C3.60656 10.7147 3.74586 10.8539 3.82568 11.0279C3.83677 11.0521 3.84694 11.0767 3.8562 11.1016C3.92279 11.2811 3.92279 11.4781 3.92279 11.8721V11.9448C3.92279 12.9501 3.92279 13.4527 4.23509 13.765C4.54738 14.0773 5.05002 14.0773 6.05529 14.0773H6.12797C6.52198 14.0773 6.719 14.0773 6.89848 14.1439C6.9234 14.1531 6.94798 14.1633 6.97214 14.1744C7.14614 14.2543 7.28545 14.3935 7.56406 14.6721C8.2053 15.3134 8.52596 15.6341 8.9205 15.6636C8.9735 15.6676 9.02683 15.6676 9.07983 15.6636C9.47436 15.6341 9.79496 15.3134 10.4362 14.6721C10.7149 14.3935 10.8542 14.2543 11.0282 14.1744C11.0524 14.1633 11.0769 14.1531 11.1018 14.1439C11.2813 14.0773 11.4784 14.0773 11.8724 14.0773H11.945C12.9503 14.0773 13.453 14.0773 13.7652 13.765C14.0776 13.4527 14.0776 12.9501 14.0776 11.9448V11.8721C14.0776 11.4781 14.0776 11.2811 14.1441 11.1016C14.1534 11.0767 14.1636 11.0521 14.1746 11.0279C14.2545 10.8539 14.3938 10.7147 14.6724 10.436C15.3136 9.79472 15.6343 9.47412 15.6638 9.07958C15.6678 9.02658 15.6678 8.97325 15.6638 8.92025C15.6343 8.52572 15.3136 8.20505 14.6724 7.56382C14.3938 7.2852 14.2545 7.1459 14.1746 6.9719C14.1636 6.94773 14.1534 6.92316 14.1441 6.89823C14.0776 6.71875 14.0776 6.52174 14.0776 6.12773V6.05504C14.0776 5.04977 14.0776 4.54714 13.7652 4.23485C13.453 3.92255 12.9503 3.92255 11.945 3.92255H11.8724Z" stroke="#5A66C1"/>
<path d="M6.6665 11.9999C7.13226 11.1948 8.00277 10.653 8.99984 10.653C9.9969 10.653 10.8674 11.1948 11.3332 11.9999M10.3332 7.66658C10.3332 8.40298 9.73624 8.99991 8.99984 8.99991C8.2635 8.99991 7.6665 8.40298 7.6665 7.66658C7.6665 6.93021 8.2635 6.33325 8.99984 6.33325C9.73624 6.33325 10.3332 6.93021 10.3332 7.66658Z" stroke="#5A66C1" stroke-linecap="round"/>
</svg>
