<svg width="18" height="18" viewBox="0 0 18 18" fill="none" xmlns="http://www.w3.org/2000/svg">
<path d="M7 12.5C7 13.3284 6.32843 14 5.5 14C4.67157 14 4 13.3284 4 12.5C4 11.6716 4.67157 11 5.5 11C6.32843 11 7 11.6716 7 12.5Z" stroke="#5A66C1" stroke-width="1.125"/>
<path d="M14 12.5C14 13.3284 13.3284 14 12.5 14C11.6716 14 11 13.3284 11 12.5C11 11.6716 11.6716 11 12.5 11C13.3284 11 14 11.6716 14 12.5Z" stroke="#5A66C1" stroke-width="1.125"/>
<path d="M2.00547 7.74891H13.2048M2.00547 7.74891C2.00547 8.33374 1.99147 10.0283 2.00827 11.6928C2.03344 12.2326 2.11738 12.6825 4.10654 12.9974M2.00547 7.74891C2.15654 6.44429 2.814 4.89974 3.14972 4.31491M6.90518 7.74891V4M11.098 12.9974H6.90145M2.01666 4H9.16758C9.16758 4 9.54528 4 9.88098 4.03599C10.5105 4.09897 11.0393 4.40488 11.568 5.16966C12.1279 5.97943 12.5584 7.00513 13.1291 7.55397C14.0776 8.466 15.8821 8.18379 15.9828 10.1182C16.008 11.1079 16.008 12.1876 15.966 12.3676C15.8986 12.8974 15.5172 12.984 15.0428 12.9974C14.631 13.0091 14.1347 12.9765 13.8929 12.9974" stroke="#5A66C1" stroke-width="1.125" stroke-linecap="round"/>
</svg>
