<svg width="221" height="78" viewBox="0 0 221 78" fill="none" xmlns="http://www.w3.org/2000/svg">
<path d="M-2.0807 94.404C-0.0619955 92.8165 2.23482 90.6015 4.30758 89.1309C4.33663 89.1103 4.36569 89.0897 4.39475 89.0691C5.24416 88.4662 6.12749 87.8747 7.19404 87.1609C7.32988 87.07 7.46928 86.9771 7.61138 86.8819C8.87717 86.0339 10.4282 84.9902 12.5171 83.5349C19.53 78.6487 24.4889 74.1031 26.0327 72.6889C29.1209 69.8588 32.6046 67.0385 37.3475 63.2156C37.7777 62.869 38.2268 62.5085 38.6845 62.1398C39.0553 61.841 39.4933 61.7591 39.6652 61.9558C39.8369 62.1528 39.677 62.5535 39.3062 62.8522C38.8586 63.2129 38.4187 63.5674 37.9989 63.9057C37.997 63.9073 37.9951 63.9088 37.9931 63.9103C33.2211 67.7568 29.8154 70.5143 26.7997 73.2777C25.221 74.7238 20.142 79.3779 12.9558 84.3852C10.8464 85.8546 9.27594 86.9133 8.00433 87.7649C7.86516 87.8581 7.72924 87.9487 7.59728 88.0371C7.59415 88.0391 7.59102 88.0411 7.58788 88.0432C6.51434 88.7618 5.66706 89.3287 4.85509 89.9049C4.83799 89.9173 4.8209 89.9297 4.8038 89.9421C2.70744 91.4294 0.459864 93.6082 -1.49812 95.1479C-1.87243 95.4421 -2.30551 95.5132 -2.46649 95.3078C-2.62692 95.1022 -2.45462 94.6982 -2.0807 94.404ZM133.895 21.9804C135.988 23.2128 138.41 25.3742 140.383 27.4393C142.379 29.5182 144.021 31.5677 144.76 32.5626C145.126 33.0538 145.523 33.5406 145.978 34.0668C146.418 34.5772 146.91 35.1234 147.443 35.7106C147.693 35.9857 147.942 36.2593 148.206 36.5518C149.074 37.5107 150.04 38.5942 151.044 39.8149C154.74 44.3172 157.169 47.2366 158.936 49.3062C159.296 49.73 159.633 50.1243 159.95 50.4977C159.951 50.4983 159.951 50.499 159.952 50.4996C161.137 51.8952 162.023 52.9571 162.727 54.0001C163.986 55.8673 164.991 57.4094 166.09 59.3557C167.606 62.0348 170.268 65.4532 172.201 67.5397C172.308 67.6543 172.417 67.7713 172.528 67.8903C173.927 69.3993 175.653 71.2721 178.019 74.2369C178.335 74.633 178.641 75.0253 178.938 75.4137C180.479 77.4279 181.752 79.2979 182.871 81.0068C183.252 81.5895 183.614 82.1527 183.958 82.6883C184.831 84.047 185.607 85.2673 186.379 86.3848C191.172 93.3396 193.647 97.5521 195.091 100.272C196.195 102.363 196.688 103.613 197.044 104.515C197.151 104.787 197.245 105.027 197.34 105.25C198.189 107.238 199.1 108.972 200.198 111.066C200.441 111.53 200.694 112.013 200.957 112.521C201.834 114.212 202.61 115.398 203.259 116.305C203.543 116.703 203.799 117.044 204.043 117.367C204.047 117.373 204.052 117.379 204.057 117.385C204.091 117.43 204.124 117.475 204.157 117.52C204.183 117.553 204.209 117.586 204.234 117.62C204.247 117.631 204.257 117.642 204.265 117.65C204.272 117.656 204.277 117.661 204.28 117.664C204.28 117.665 204.281 117.665 204.282 117.666C204.339 117.723 204.382 117.777 204.39 117.788C204.406 117.807 204.418 117.825 204.425 117.834C204.459 117.881 204.502 117.944 204.529 117.986C204.6 118.093 204.723 118.281 204.91 118.571C205.081 118.818 205.253 119.05 205.47 119.341C205.484 119.359 205.498 119.377 205.511 119.395C205.723 119.679 205.97 120.011 206.273 120.433C206.547 120.816 206.619 121.282 206.432 121.473C206.246 121.664 205.872 121.507 205.597 121.125C205.314 120.729 205.081 120.416 204.869 120.133C204.856 120.115 204.842 120.097 204.829 120.079C204.608 119.783 204.4 119.503 204.187 119.195C204.116 119.092 204.044 118.985 203.977 118.883C203.851 118.705 203.702 118.505 203.523 118.267C203.487 118.219 203.451 118.17 203.413 118.119C203.169 117.796 202.887 117.422 202.579 116.991C201.857 115.98 201 114.668 200.046 112.827C199.795 112.343 199.55 111.876 199.312 111.421C198.21 109.319 197.231 107.458 196.329 105.35C196.206 105.061 196.096 104.78 195.976 104.477C195.623 103.584 195.202 102.516 194.182 100.585C192.807 97.997 190.397 93.8843 185.639 86.9782C184.83 85.8071 184.003 84.5064 183.118 83.1279C182.781 82.6045 182.43 82.0623 182.073 81.5164C180.951 79.8023 179.689 77.9501 178.162 75.961C177.904 75.6258 177.64 75.2878 177.368 74.947C175.061 72.0531 173.391 70.2384 171.998 68.7337C171.95 68.6822 171.902 68.6307 171.853 68.5793C171.794 68.5155 171.734 68.451 171.675 68.3874C169.62 66.1658 166.788 62.5415 165.117 59.5915C164.068 57.7364 163.106 56.2618 161.857 54.4102C161.246 53.505 160.49 52.5985 159.333 51.2335C159.005 50.8472 158.645 50.4237 158.25 49.959C156.456 47.8571 153.997 44.9022 150.271 40.3655C149.302 39.1875 148.382 38.1558 147.523 37.2058C147.254 36.9085 146.997 36.6257 146.736 36.3378C146.236 35.7867 145.748 35.2473 145.296 34.726C144.769 34.1204 144.283 33.5316 143.842 32.9393C143.157 32.0199 141.576 30.0473 139.647 28.0394C137.712 26.0172 135.48 24.0502 133.66 22.9691C133.471 22.856 133.282 22.7443 133.09 22.6302C131.45 21.6613 129.753 20.7412 128.243 20.2443C126.772 19.9282 125.216 19.3976 123.575 18.7341C119.033 16.8779 114.032 14.1785 109.594 12.9409C108.647 12.6715 108.328 12.6054 107.936 12.5741C107.55 12.5463 107.033 12.6005 106.412 12.7624C106.34 12.7811 106.276 12.7982 106.204 12.8182C99.093 15.3025 92.6593 20.4101 90.8353 21.5595C90.7423 21.6249 90.6572 21.6848 90.5805 21.7388C90.5119 21.7871 90.4499 21.8313 90.3949 21.8701C89.6216 22.4145 88.8803 22.9812 88.1869 23.5201C88.1479 23.5504 88.1088 23.5808 88.0697 23.6112C87.301 24.2069 86.5087 24.8233 85.527 25.5356C85.3781 25.6437 85.2295 25.7519 85.0811 25.8601C81.6769 28.3448 78.8976 30.4967 76.4863 32.3844C76.0297 32.7423 75.5806 33.0943 75.139 33.4421C75.1377 33.4431 75.1364 33.4441 75.135 33.4451C73.2032 34.9671 71.5078 36.3154 69.8633 37.5887C66.8926 39.8899 64.8986 41.527 63.3894 42.7909C62.9137 43.1894 62.4734 43.5611 62.0559 43.9141C61.157 44.6743 60.3911 45.3247 59.5623 45.9945C58.0237 47.2384 56.6129 48.4367 55.2575 49.5913C55.1357 49.695 55.0135 49.7983 54.8916 49.9021C53.3931 51.1769 51.9389 52.4131 50.3292 53.6972C49.9614 53.9907 49.5226 54.069 49.3521 53.871C49.1821 53.6729 49.3442 53.273 49.712 52.9795C51.2761 51.7317 52.693 50.5278 54.1937 49.2512C54.3164 49.1467 54.4392 49.0416 54.5622 48.9368C55.9136 47.7854 57.3541 46.5639 58.9197 45.298C59.7184 44.6525 60.4476 44.0337 61.323 43.2927C61.7461 42.935 62.1993 42.5518 62.7015 42.1312C64.2314 40.8495 66.2558 39.1868 69.2565 36.8621C70.8831 35.6026 72.5599 34.2699 74.4905 32.7486C74.9358 32.3978 75.3896 32.0409 75.8526 31.6779C78.2774 29.7794 81.0818 27.6078 84.5225 25.0967C84.6642 24.9934 84.8061 24.8901 84.9483 24.7869C85.8815 24.1097 86.6267 23.5296 87.4 22.9301C87.4427 22.8971 87.4853 22.8642 87.5279 22.8314C88.2187 22.2941 88.9991 21.6959 89.8185 21.1189C89.9355 21.0365 90.0847 20.9321 90.2618 20.8077C92.1282 19.6421 98.4709 14.5335 105.94 11.9109C105.961 11.9052 105.981 11.8997 106.002 11.8942C107.949 11.4147 108.223 11.5566 109.839 11.9279C112.068 12.5027 113.72 13.1096 115.154 13.5522C117.071 14.1562 118.476 14.818 119.612 15.3908C119.827 15.4997 120.035 15.6067 120.228 15.7079C121.07 16.1496 121.733 16.5163 122.422 16.8445C123.063 17.1502 123.656 17.4245 124.231 17.6752C125.519 18.2372 126.698 18.6648 128.09 19.1126C129.795 19.6598 131.685 20.6792 133.317 21.639C133.32 21.6405 133.322 21.6419 133.325 21.6433C133.517 21.7558 133.708 21.8687 133.895 21.9804ZM210.422 125.883C210.669 126.292 210.685 126.728 210.462 126.863C210.238 126.997 209.859 126.778 209.612 126.369C209.026 125.397 208.443 124.43 207.857 123.458C207.612 123.051 207.594 122.614 207.818 122.479C208.042 122.345 208.422 122.565 208.667 122.972C209.253 123.943 209.836 124.911 210.422 125.883ZM135.256 17.0648C135.667 17.3148 135.93 17.7326 135.858 18.0013C135.784 18.2684 135.395 18.278 134.997 18.0354C134.78 17.9026 134.434 17.698 133.953 17.4192C132.535 16.6005 130.013 15.191 126.743 13.6169C122.443 11.5596 116.838 9.04573 110.824 7.85661C110.335 7.76067 109.867 7.67987 109.413 7.62935C108.543 7.53193 107.811 7.56477 107.089 7.67605C104.001 8.27579 101.692 10.0385 95.9214 13.5115C91.3977 16.298 87.0087 19.3418 82.5984 22.4677C63.3539 36.2776 44.3996 50.773 26.3069 66.1895C19.8988 71.6681 13.3948 76.9863 6.83982 82.2888C1.3703 86.7122 -8.92871 94.4648 -11.3131 96.3403C-11.6869 96.6344 -12.1207 96.7059 -12.2816 96.5004C-12.4422 96.2948 -12.2694 95.8904 -11.8957 95.5964C-9.52832 93.7342 0.737435 86.0077 6.18658 81.6007C12.7295 76.3079 19.2218 71 25.6175 65.5318C43.7358 50.0938 62.2435 34.9772 81.4244 20.8634C85.832 17.6609 90.232 14.5589 94.854 11.7129C100.723 8.19164 103.538 7.42711 106.842 6.75604C107.628 6.62547 108.472 6.57793 109.421 6.67692C109.959 6.73206 110.5 6.8259 111.047 6.93355C117.261 8.1687 122.939 10.7356 127.251 12.7951C130.349 14.286 132.761 15.6216 134.16 16.4227C134.655 16.7063 135.03 16.928 135.256 17.0648ZM151.37 32.5646C155.094 36.3902 160.02 42.1714 164.137 47.3498C166.147 49.8676 167.987 52.2476 169.454 54.144C171.725 57.0832 172.968 59.0863 174.187 61.0691C174.2 61.0904 174.214 61.1117 174.227 61.133C175.443 63.1182 176.654 65.1023 178.842 68.1739C179.844 69.5822 181.05 71.2235 182.359 73.0013C183.918 75.1197 185.621 77.4331 187.313 79.7715C187.315 79.775 187.318 79.7784 187.32 79.7818C190.415 84.0572 193.885 88.1783 195.964 91.4455C203.192 102.832 207.007 110.233 208.816 114.056C211.961 120.751 217.214 127.285 220.254 134.239C220.484 135.075 219.129 134.27 218.495 132.871C218.47 132.821 218.446 132.772 218.422 132.722C218.188 132.248 217.981 131.835 217.668 131.268C217.196 130.462 216.826 129.866 216.49 129.327C215.604 127.911 209.61 117.996 207.853 114.259C206.135 110.631 201.446 103.985 194.19 92.5529C192.154 89.3554 189.709 84.7008 186.601 80.4051C186.593 80.3934 186.585 80.3817 186.576 80.3699C184.884 78.0299 183.164 75.6944 181.585 73.5472C180.287 71.7831 179.084 70.1458 178.079 68.7334C175.817 65.5573 174.554 63.4879 173.323 61.481C173.311 61.4614 173.299 61.4419 173.287 61.4223C172.081 59.4622 170.897 57.5571 168.715 54.7328C167.219 52.7991 165.361 50.3984 163.344 47.8725C159.251 42.7287 154.411 37.0473 150.735 33.2676C150.404 32.9259 150.273 32.4886 150.449 32.2944C150.623 32.0994 151.036 32.2197 151.37 32.5646ZM155.731 28.6058C167.024 39.1099 176.369 51.3286 184.263 64.0601C185.301 65.5185 186.519 67.2569 187.819 69.1505C189.345 71.3719 190.98 73.8044 192.59 76.2444C192.623 76.2955 192.656 76.3467 192.69 76.3978C195.641 80.8708 198.495 85.3471 200.542 88.5638C207.81 100.014 212.05 107.192 213.862 111.022C215.541 114.595 216.114 115.516 216.967 116.885C216.99 116.923 217.013 116.96 217.036 116.997C217.038 116.999 217.041 117.001 217.043 117.004C217.082 117.044 217.113 117.079 217.128 117.098C217.159 117.136 217.182 117.168 217.19 117.18C217.21 117.208 217.226 117.233 217.231 117.241C217.254 117.276 217.279 117.317 217.295 117.343C217.443 117.588 217.897 118.368 218.24 118.991C218.593 119.629 218.825 120.098 219.068 120.593C219.093 120.644 219.117 120.694 219.142 120.744C219.36 121.19 219.597 121.674 219.957 122.363C220.176 122.783 220.151 123.195 219.901 123.282C219.652 123.371 219.271 123.1 219.052 122.681C218.674 121.956 218.423 121.443 218.202 120.993C218.178 120.943 218.154 120.893 218.129 120.843C217.897 120.369 217.69 119.956 217.378 119.39C216.906 118.58 216.538 117.987 216.203 117.449C215.32 116.031 214.658 114.966 212.901 111.224C211.18 107.591 207.059 100.596 199.753 89.0829C197.704 85.8634 194.85 81.3875 191.906 76.9256C191.872 76.8734 191.837 76.8212 191.802 76.769C190.195 74.3335 188.566 71.9083 187.047 69.6953C185.75 67.8058 184.536 66.0724 183.501 64.6192C174.692 52.2903 165.11 41.0101 155.098 29.3109C154.401 28.5905 153.72 27.891 153.062 27.2227C151.848 25.9878 150.685 24.8269 149.562 23.7327C144.45 18.7611 140.145 15.1231 135.459 12.42C134.592 11.9252 132.602 10.5953 129.661 8.90084C129.136 8.59808 128.583 8.2848 127.994 7.9595C126.854 7.33054 125.587 6.65907 124.18 5.97358C121.006 4.44137 117.109 2.75751 112.306 1.73146C111.896 1.64524 111.446 1.55587 110.956 1.47802C109.65 1.26375 108.257 1.2127 107.041 1.33352C101.846 2.05503 99.0154 3.7186 92.7352 7.3894C88.669 9.84817 83.4319 13.3998 78.5148 16.8876C74.2402 19.9151 70.1189 22.9286 67.2197 25.0424C64.1091 27.3127 62.3249 28.5943 61.0827 29.47C60.7328 29.7173 60.4223 29.9349 60.1368 30.136C59.3807 30.6693 58.8321 31.0548 58.0884 31.6071C52.7582 35.5697 49.2167 38.5074 43.4177 43.414C43.0526 43.723 42.602 43.8263 42.4133 43.6434C42.2226 43.4621 42.3614 43.0659 42.7275 42.7559C48.5385 37.8388 52.1335 34.8559 57.5405 30.8363C58.3157 30.2606 58.9092 29.8439 59.6776 29.3021C59.9589 29.104 60.2584 28.8936 60.5902 28.6592C61.8096 27.7999 63.5825 26.5263 66.6765 24.2684C69.5705 22.1585 73.6851 19.1498 77.9563 16.1245C82.8803 12.6316 88.129 9.07098 92.2227 6.59406C98.5082 2.92562 101.297 1.24384 106.738 0.411172C108.022 0.265897 109.523 0.295407 110.931 0.514671C111.523 0.603751 112.056 0.709881 112.529 0.809551C117.389 1.85169 121.312 3.54144 124.499 5.07437C125.926 5.76673 127.203 6.44168 128.352 7.07409C128.998 7.4296 129.6 7.77018 130.161 8.09364C133.082 9.77898 134.924 11.0088 135.67 11.4298C140.585 14.2403 145.113 18.0767 150.291 23.1218C151.407 24.2096 152.554 25.356 153.743 26.5655C154.388 27.2213 155.053 27.9039 155.731 28.6058ZM21.9925 60.3314C22.3541 60.0224 22.8005 59.9206 22.9904 60.1024C23.1801 60.2842 23.0422 60.6811 22.6809 60.9899C20.7639 62.628 19.4152 63.7933 18.3398 64.7217C16.3745 66.42 15.4062 67.257 13.9439 68.4319C10.144 71.4851 6.48828 74.439 3.1991 77.0995C-2.26918 81.5229 -6.72073 85.1299 -9.10608 87.0056C-9.4797 87.2993 -9.91343 87.3709 -10.0743 87.1653C-10.2347 86.9597 -10.0619 86.5553 -9.68869 86.2616C-7.32001 84.399 -2.90163 80.8196 2.54662 76.4123C5.83959 73.7486 9.50727 70.7834 13.3312 67.7108C14.7496 66.5712 15.6655 65.7805 17.586 64.1206C18.66 63.1934 20.0264 62.0117 21.9925 60.3314Z" fill="#929CE6"/>
</svg>
