<svg width="166" height="84" viewBox="0 0 166 84" fill="none" xmlns="http://www.w3.org/2000/svg">
<path d="M1.85535 -14.7528C3.15725 -12.72 5.03685 -10.3832 6.2251 -8.30065C6.24174 -8.27148 6.25838 -8.2423 6.27502 -8.21313C6.76019 -7.3627 7.22885 -6.48296 7.79985 -5.41338C7.87245 -5.27734 7.94658 -5.13778 8.02258 -4.99549C8.69669 -3.73294 9.53419 -2.17581 10.704 -0.0904694C14.6479 6.93728 18.5275 11.9472 19.7427 13.5147C22.1702 16.6447 24.5382 20.1338 27.7971 24.8828C28.0957 25.3177 28.3944 25.7542 28.7121 26.2158C28.968 26.5875 29.0052 27.0131 28.7959 27.1694C28.5864 27.3255 28.2099 27.1524 27.9538 26.7804C27.6417 26.3272 27.3489 25.9014 27.0569 25.4761C27.0556 25.4741 27.0543 25.4722 27.0529 25.4703C23.7716 20.6893 21.4544 17.2748 19.0826 14.2173C17.8399 12.6142 13.8649 7.4798 9.82354 0.277836C8.64039 -1.83124 7.79344 -3.40386 7.11458 -4.67514C7.04012 -4.81454 6.96783 -4.95064 6.89728 -5.08282C6.89566 -5.08596 6.89403 -5.08909 6.89241 -5.09222C6.3171 -6.16967 5.8696 -7.01114 5.40484 -7.82573C5.39479 -7.84291 5.38474 -7.8601 5.37469 -7.87728C4.17323 -9.98308 2.32245 -12.2714 1.05968 -14.2431C0.818607 -14.6198 0.801235 -15.0397 1.021 -15.1804C1.24077 -15.3209 1.61417 -15.1291 1.85535 -14.7528ZM120.852 65.7962C122.203 63.582 123.921 60.802 125.346 58.3396C126.538 56.2981 127.611 54.4268 128.313 53.2493C128.459 53.0055 128.589 52.7887 128.701 52.6065C129.321 51.5969 129.877 50.4177 130.491 48.9978C130.633 48.6692 130.776 48.3338 130.924 47.9836C131.412 46.8273 131.946 45.538 132.563 44.1378C134.822 38.9951 136.036 35.558 136.878 33.0943C137.049 32.5889 137.208 32.1128 137.354 31.6727C137.354 31.6719 137.354 31.6712 137.355 31.6704C137.908 30.0002 138.314 28.7533 138.803 27.6454C139.672 25.6724 140.386 24.0621 141.36 22.1527C142.372 20.1682 143.312 17.4147 143.922 15.0316C144.123 14.2497 144.287 13.5124 144.411 12.8512C144.438 12.7042 144.465 12.5538 144.493 12.402C144.851 10.4597 145.286 8.06931 146.11 4.54403C146.793 1.61539 147.533 -0.893002 148.216 -3.09745C148.414 -3.7355 148.603 -4.33276 148.785 -4.91436C149.244 -6.37583 149.652 -7.68401 149.982 -8.92951C151.343 -14.0774 152.415 -17.7328 153.308 -20.3575C153.752 -21.6617 154.16 -22.7144 154.525 -23.5681C155.376 -25.5583 156.019 -26.5736 156.484 -27.3112C156.623 -27.5299 156.749 -27.7251 156.862 -27.9118C157.857 -29.5569 158.653 -31.0715 159.69 -32.8387C159.924 -33.237 160.167 -33.6405 160.433 -34.0735C161.319 -35.51 161.943 -36.7516 162.408 -37.9291C162.575 -38.3503 162.722 -38.7594 162.852 -39.1564C162.888 -39.234 162.968 -39.4778 162.999 -39.5579C163.018 -39.6358 163.036 -39.7133 163.054 -39.7905C163.056 -39.7988 163.058 -39.8071 163.06 -39.8154C163.074 -39.8777 163.09 -39.9416 163.103 -40.0015C163.114 -40.0465 163.123 -40.0919 163.133 -40.1372C163.134 -40.156 163.136 -40.1726 163.137 -40.185C163.137 -40.1949 163.138 -40.2026 163.139 -40.2075C163.138 -40.2085 163.138 -40.2095 163.138 -40.2105C163.146 -40.2999 163.161 -40.3751 163.165 -40.3906C163.17 -40.4181 163.175 -40.4398 163.178 -40.4517C163.192 -40.5133 163.212 -40.5924 163.226 -40.6451C163.263 -40.7827 163.326 -41.0131 163.42 -41.3702C163.491 -41.6808 163.546 -41.9807 163.61 -42.3511C163.614 -42.3743 163.618 -42.3975 163.622 -42.4208C163.685 -42.7864 163.753 -43.1988 163.842 -43.7216C163.922 -44.192 164.198 -44.5765 164.465 -44.5847C164.732 -44.5902 164.889 -44.2141 164.809 -43.7349C164.727 -43.2432 164.662 -42.8421 164.602 -42.481C164.598 -42.4585 164.594 -42.4344 164.591 -42.4111C164.525 -42.0276 164.461 -41.6679 164.371 -41.2708C164.34 -41.1387 164.308 -41.0048 164.275 -40.8746C164.222 -40.6435 164.166 -40.3739 164.094 -40.0473C164.079 -39.9806 164.064 -39.9122 164.048 -39.8425C164.009 -39.6682 163.961 -39.4649 163.91 -39.2618C163.875 -39.1687 163.782 -38.8852 163.74 -38.795C163.63 -38.466 163.506 -38.1206 163.369 -37.7702C162.831 -36.3937 162.128 -35.0182 161.184 -33.4842C160.934 -33.077 160.702 -32.6898 160.478 -32.3065C159.449 -30.5505 158.611 -28.953 157.567 -27.2115C157.426 -26.9784 157.28 -26.7478 157.126 -26.5017C156.674 -25.7787 156.129 -24.9089 155.352 -23.0874C155.014 -22.2927 154.635 -21.3181 154.216 -20.0911C153.346 -17.5427 152.28 -13.9204 150.913 -8.74846C150.566 -7.44011 150.13 -6.0443 149.663 -4.55694C149.484 -3.98516 149.304 -3.41003 149.118 -2.80973C148.444 -0.637665 147.728 1.79323 147.067 4.62577C146.262 8.0754 145.839 10.4025 145.482 12.3404C145.47 12.4076 145.458 12.4747 145.446 12.5419C145.431 12.625 145.415 12.7071 145.4 12.7887C145.259 13.5484 145.066 14.407 144.829 15.3157C144.179 17.8167 143.195 20.6768 142.103 22.8148C141.17 24.6427 140.484 26.1861 139.618 28.151C139.191 29.1176 138.844 30.1859 138.301 31.8255C138.149 32.2843 137.979 32.7918 137.789 33.3511C136.931 35.8636 135.696 39.3596 133.405 44.5742C132.805 45.9348 132.293 47.1728 131.805 48.3271C131.654 48.6858 131.505 49.0348 131.355 49.3816C130.735 50.8148 130.118 52.1398 129.393 53.3157C129.334 53.4122 129.268 53.5202 129.196 53.6383C128.543 54.7188 127.406 56.6942 126.125 58.8841C124.697 61.345 123.064 63.974 121.868 65.9872C121.747 66.1957 121.618 66.4082 121.489 66.6168C120.414 68.3739 119.069 70.0591 118.1 71.4704C118.071 71.5141 118.042 71.5576 118.014 71.6012C116.092 75.0186 112.829 78.9718 105.849 81.5712C100.494 83.3841 94.4629 83.7509 89.9881 83.6185C89.869 83.6161 89.7497 83.6132 89.6301 83.61C87.2987 83.5478 85.1596 83.3697 83.2075 83.1516C79.4826 82.9209 75.1485 81.1737 73.0142 79.7636C70.6927 78.3324 69.2959 77.1476 68.4965 76.5003C68.3988 76.4195 68.309 76.3446 68.2352 76.2826C68.1677 76.2259 68.1061 76.1746 68.0521 76.1287C67.2254 75.4261 66.51 74.8208 65.7917 74.1924C65.7518 74.1573 65.7117 74.1222 65.6716 74.0869C64.9018 73.4076 64.1351 72.7031 63.2596 71.7971C60.0792 68.4851 57.7305 65.7341 55.7207 63.3585C55.3869 62.962 55.0575 62.5667 54.7315 62.1731C54.6999 62.135 54.6683 62.097 54.6368 62.059C54.6358 62.0578 54.6348 62.0565 54.6339 62.0553C53.1087 60.2134 51.7972 58.577 50.5786 56.9846C48.3673 54.0894 46.8908 52.1855 45.6989 50.676C45.3352 50.2154 44.9959 49.7871 44.6737 49.3796C43.9682 48.4862 43.3821 47.7425 42.7754 46.9256C41.6488 45.4088 40.579 44.0263 39.54 42.6754C39.4467 42.5541 39.3539 42.4324 39.2606 42.3108C38.1315 40.8399 37.017 39.3707 35.9061 37.7906C35.6465 37.4214 35.6044 36.9912 35.8128 36.8337C36.0213 36.6765 36.4016 36.8506 36.6608 37.2192C37.7391 38.753 38.8255 40.1869 39.9508 41.653C40.0445 41.7752 40.139 41.8974 40.2331 42.0199C41.2697 43.3682 42.3554 44.774 43.5001 46.3154C44.0859 47.1044 44.6332 47.7988 45.326 48.6768C45.6519 49.0892 46.0009 49.5294 46.384 50.0147C47.5896 51.5419 49.0828 53.4672 51.3095 56.3832C52.5126 57.9554 53.7959 59.5586 55.3175 61.3977C55.3678 61.4584 55.4183 61.5192 55.4688 61.5801C55.7771 61.952 56.0895 62.3259 56.4059 62.702C58.4101 65.0727 60.7577 67.8242 63.9201 71.1195C64.7386 71.9669 65.4592 72.6322 66.2067 73.2937C66.2495 73.3317 66.2923 73.3696 66.3349 73.4074C67.0451 74.0311 67.7693 74.6454 68.6335 75.3813C68.7485 75.479 68.8801 75.5908 69.0672 75.746C70.5208 76.7131 74.8874 81.4371 83.3007 82.2111C85.2392 82.4278 87.3596 82.6043 89.6666 82.6655C89.6988 82.6665 89.731 82.6674 89.7632 82.6684C96.7299 82.8103 100.844 81.8403 103.66 80.8512C104.292 80.6215 104.874 80.4036 105.414 80.1982C107.169 79.542 108.338 78.9021 109.33 78.3543C109.591 78.2079 109.834 78.066 110.062 77.9307C111.044 77.3439 111.768 76.8566 112.442 76.3192C114.461 74.6859 115.635 73.3108 116.852 71.4909C117.029 71.2234 117.217 70.9527 117.412 70.6804C118.401 69.3391 119.58 67.8275 120.475 66.4062C120.476 66.4036 120.478 66.4011 120.48 66.3985C120.609 66.1949 120.733 65.994 120.852 65.7962ZM164.532 -50.4717C164.615 -50.9262 164.889 -51.2614 165.145 -51.2153C165.403 -51.1705 165.545 -50.7582 165.461 -50.2994C165.259 -49.202 165.043 -48.1071 164.81 -47.0061C164.711 -46.5438 164.423 -46.2163 164.168 -46.2715C163.913 -46.3301 163.789 -46.7462 163.886 -47.2039C164.117 -48.2957 164.331 -49.3818 164.532 -50.4717ZM116.049 64.1779C116.284 63.8448 116.671 63.6487 116.927 63.7419C117.182 63.836 117.205 64.198 116.963 64.5483C116.837 64.7316 116.628 65.0378 116.333 65.44C115.939 65.9766 115.384 66.6844 114.651 67.5088C112.481 69.8096 109.404 73.5936 104.081 75.9947C101.317 77.1223 98.1925 78.0024 94.9466 78.4297C93.987 78.5575 93.1242 78.6469 92.3015 78.7145C89.673 78.9145 87.4028 79.2908 83.6078 79.1151C82.3537 79.0547 80.6795 78.8983 78.8611 78.2579C69.1872 74.1188 64.0209 66.3571 58.2393 59.3522C46.9423 44.5676 36.9082 29.0756 26.0555 14.132C21.4068 7.69344 16.9844 1.16027 12.5905 -5.44974C8.93137 -10.9514 2.62606 -21.3106 1.09007 -23.7105C0.849065 -24.0871 0.83214 -24.5066 1.052 -24.6473C1.27186 -24.7877 1.64494 -24.5963 1.88588 -24.22C3.41103 -21.837 9.69445 -11.5121 13.3389 -6.03241C17.724 0.564533 22.1348 7.08199 26.773 13.5066C37.6302 28.4586 48.1363 43.7193 59.6443 58.2223C65.4309 65.0598 70.9809 72.702 79.5784 76.2933C81.1617 76.8457 82.5842 77.0488 83.7962 77.2154C87.3897 77.6971 89.5356 77.9683 92.1115 77.7789C92.9214 77.7142 93.7718 77.6276 94.7206 77.5034C97.9528 77.0853 101.052 76.2088 103.792 75.0827C108.825 72.7841 111.936 69.0009 114.013 66.7754C114.605 66.1028 115.064 65.5244 115.406 65.069C115.706 64.6693 115.917 64.3652 116.049 64.1779ZM125.991 46.75C127.79 42.1402 130.361 35.5454 132.484 29.7423C133.524 26.9102 134.466 24.2686 135.191 22.1442C136.313 18.8515 137.194 16.8344 138.064 14.8302C138.073 14.8087 138.083 14.7871 138.092 14.7656C138.288 14.3125 138.484 13.8588 138.681 13.3904C139.357 11.7833 140.059 9.98689 140.877 7.37253C141.943 3.96806 143.187 -0.8125 144.403 -5.64401C144.404 -5.64777 144.405 -5.65154 144.406 -5.65529C145.619 -10.4648 146.353 -15.4651 147.39 -18.9608C147.684 -19.9517 147.975 -20.9098 148.264 -21.8375C151.439 -32.4141 155.614 -38.2112 157.44 -41.2992C157.449 -41.3157 157.458 -41.3321 157.468 -41.3486C159.733 -46.3796 160.205 -52.4503 161.198 -58.1C161.441 -59.6579 161.712 -61.2182 161.944 -62.7669C162.185 -63.5546 162.945 -62.2234 162.649 -60.697C162.64 -60.6419 162.631 -60.5901 162.622 -60.5358C162.536 -60.0242 162.458 -59.5845 162.367 -58.968C162.324 -58.613 162.285 -58.296 162.251 -58.0032C162.251 -57.9983 162.249 -57.9836 162.249 -57.9787C162.191 -57.5378 162.143 -57.1554 162.098 -56.7939C161.96 -55.2616 160.262 -44.9934 158.384 -41.0565C158.379 -41.0425 158.365 -40.9996 158.358 -40.986C158.293 -40.8635 158.228 -40.748 158.164 -40.6393C156.319 -37.5563 153.255 -31.7354 150.25 -21.2547C149.973 -20.3201 149.688 -19.3526 149.391 -18.3513C148.377 -14.9329 146.563 -10.3343 145.344 -5.49755C145.34 -5.48429 145.337 -5.47103 145.334 -5.45776C144.126 -0.658524 142.869 4.17598 141.783 7.6415C140.97 10.2424 140.262 12.0737 139.592 13.6756C139.36 14.2311 139.131 14.7618 138.904 15.2853C138.895 15.305 138.886 15.3247 138.878 15.3444C138.014 17.3331 137.172 19.26 136.089 22.4363C135.347 24.611 134.394 27.2876 133.345 30.1432C131.226 35.932 128.683 42.4482 126.894 47.038C126.73 47.4588 126.397 47.7265 126.149 47.6456C125.9 47.5642 125.829 47.1678 125.991 46.75ZM120.57 44.4472C124.035 33.4111 127.896 22.2152 132.081 11.3237C132.821 9.3894 133.569 7.4589 134.325 5.53413C135.393 2.12679 136.87 -2.63941 138.313 -7.43084C138.33 -7.48514 138.346 -7.53939 138.363 -7.59357C139.792 -12.3335 141.187 -17.0717 142.21 -20.5185C142.499 -21.4925 142.782 -22.4388 143.065 -23.363C146.178 -34.1448 150.706 -41.6065 152.002 -43.5738L151.857 -43.1763C151.863 -43.1869 151.868 -43.1976 151.874 -43.2083C153.213 -46.0058 153.382 -47.1548 153.68 -48.5074C153.688 -48.5452 153.696 -48.5831 153.704 -48.6211C153.703 -48.6237 153.703 -48.6264 153.703 -48.6291C153.701 -48.6794 153.702 -48.7211 153.703 -48.7425C153.705 -48.7861 153.71 -48.8213 153.712 -48.8344C153.716 -48.8648 153.721 -48.8901 153.722 -48.8991C153.729 -48.936 153.737 -48.978 153.743 -49.0051C153.797 -49.2519 153.977 -50.0359 154.128 -50.658C154.283 -51.2969 154.412 -51.7466 154.549 -52.227C154.563 -52.2752 154.577 -52.3234 154.591 -52.3718C154.714 -52.8052 154.846 -53.2737 155.012 -53.9592C155.112 -54.3751 155.392 -54.6426 155.641 -54.5529C155.889 -54.4641 156.009 -54.0487 155.908 -53.6297C155.732 -52.906 155.589 -52.3991 155.464 -51.9641C155.45 -51.9154 155.436 -51.8668 155.422 -51.8184C155.29 -51.3597 155.175 -50.9525 155.036 -50.3854C154.856 -49.556 154.735 -48.9434 154.62 -48.3824C154.317 -46.9964 154.122 -45.7271 152.773 -42.8787L152.895 -43.2104C152.859 -43.1529 152.822 -43.0937 152.783 -43.0326C151.42 -40.9381 147.133 -33.9479 143.971 -23.0971C143.691 -22.1787 143.408 -21.2358 143.12 -20.2634C142.096 -16.8152 140.699 -12.0704 139.271 -7.33105C139.254 -7.27523 139.237 -7.21934 139.22 -7.16338C137.776 -2.36585 136.298 2.39865 135.231 5.80299C134.61 7.7852 133.996 9.76128 133.38 11.7304C129.859 22.9226 126.357 34.103 121.472 44.7369C120.823 46.4148 120.186 47.9728 119.569 49.4008C119.318 49.9831 119.073 50.5371 118.831 51.0731C116.273 56.7043 114.259 59.9906 111.88 62.9208C111.743 63.0903 111.538 63.3186 111.253 63.6057C110.337 64.5154 108.781 65.9738 106.725 67.5276C105.923 68.1295 105.035 68.7453 104.117 69.2789C103.481 69.6495 102.822 69.9786 102.243 70.1981C100.024 70.9946 97.5291 71.6797 94.7052 72.0981C93.8792 72.2208 93.1311 72.3097 92.4128 72.3791C90.0157 72.5924 87.9702 72.6829 84.2782 72.356C83.2104 72.2573 82.352 72.1474 81.4092 71.8496C76.3092 70.5519 67.9165 60.6448 63.6544 54.9974C63.4016 54.6666 63.1559 54.3428 62.9193 54.0291C60.795 51.2042 59.6459 49.5363 58.8481 48.371C58.6249 48.0438 58.4202 47.7411 58.2481 47.4846C57.7883 46.8007 57.4223 46.2556 56.9284 45.554C53.417 40.5459 50.8102 37.1045 46.5498 31.4577C46.2841 31.1048 46.2251 30.6727 46.4191 30.4956C46.6133 30.3185 46.9876 30.4631 47.2534 30.8159C51.5142 36.464 54.1584 39.9566 57.7096 45.0213C58.2258 45.7544 58.6144 46.3342 59.0805 47.0272C59.2544 47.2855 59.449 47.5728 59.6603 47.8825C60.4402 49.0216 61.5782 50.6729 63.6816 53.4698C63.9103 53.7729 64.1475 54.0856 64.3914 54.4048C68.5895 60.0154 77.0865 69.8617 81.6771 70.9423C82.5343 71.2144 83.3106 71.3167 84.3716 71.4146C87.9376 71.7299 89.9066 71.6466 92.2344 71.4443C92.9392 71.3777 93.6747 71.2913 94.489 71.172C97.293 70.7623 99.7585 70.0849 101.956 69.294C102.44 69.1067 103.027 68.8158 103.602 68.4819C104.467 67.9824 105.323 67.3917 106.1 66.8109C108.281 65.1651 109.826 63.6892 110.627 62.8866C110.811 62.6983 110.946 62.5487 111.039 62.4355C113.45 59.5152 115.43 56.2757 118.003 50.6062C118.232 50.0984 118.465 49.5705 118.703 49.0195C119.311 47.6113 119.936 46.0849 120.57 44.4472ZM32.2416 10.3045C32.501 10.6636 32.5505 11.0948 32.3531 11.2682C32.1549 11.4404 31.7825 11.2873 31.5233 10.9287C30.1488 9.02626 29.1536 7.65633 28.3764 6.58639C26.9374 4.60445 26.2431 3.64618 25.2625 2.1744C22.7287 -1.62929 20.2793 -5.30751 18.0822 -8.61251C14.4262 -14.1124 11.4543 -18.6004 9.91716 -21.0001C9.67597 -21.3768 9.65909 -21.7961 9.87891 -21.9368C10.0987 -22.0771 10.4717 -21.8861 10.7129 -21.5098C12.239 -19.1271 15.1882 -14.6727 18.8296 -9.19448C21.0289 -5.88627 23.4871 -2.19693 26.0359 1.62937C26.986 3.05534 27.6424 3.96286 29.0476 5.89822C29.8247 6.96824 30.8299 8.35032 32.2416 10.3045Z" fill="#929CE6"/>
</svg>
